<svg width="237" height="13" viewBox="0 0 237 13" fill="none" xmlns="http://www.w3.org/2000/svg">
<path id="Vector" d="M218.208 2.42614C213.067 2.14922 207.838 1.8723 202.609 1.59537C200.925 1.50306 199.152 1.50306 197.468 1.41076C193.746 1.31845 190.023 1.22614 186.301 1.13383C184.262 1.04153 182.135 1.04153 180.097 0.949219C179.476 0.949219 178.856 0.949219 178.324 0.949219C176.995 0.949219 175.665 0.949219 174.247 0.949219C168.132 0.949219 162.016 0.949219 155.901 0.949219C154.483 0.949219 152.976 0.949219 151.558 1.04153C147.924 1.13383 144.379 1.13383 140.745 1.22614C136.668 1.31845 132.591 1.31845 128.514 1.41076C121.955 1.59537 115.308 1.77999 108.749 1.9646C104.938 2.05691 101.127 2.14922 97.3161 2.24153C90.7574 2.51845 84.1988 2.79537 77.6401 3.0723C74.0063 3.25691 70.4611 3.34922 66.8272 3.53383C60.0027 3.99537 53.1782 4.3646 46.3536 4.73383C42.7198 4.91845 39.086 5.10306 35.4521 5.37999C28.7162 5.93383 21.8917 6.57999 15.1558 7.22614C13.7377 7.31845 12.231 7.50306 10.7243 7.59537C7.8881 7.8723 4.9633 8.33383 2.0385 8.70307C1.86124 8.70307 1.68398 8.79537 1.50671 8.79537C1.15219 8.79537 0.886303 8.97999 0.620412 9.25691C0.177261 9.71845 0 10.2723 0 10.8261C0 11.38 0.177261 11.9338 0.620412 12.3031C0.974933 12.6723 1.59535 12.9492 2.0385 12.9492C5.58371 12.58 9.04029 12.1185 12.5855 11.7492C15.8648 11.4723 19.1441 11.1954 22.4235 10.9184C25.9687 10.6415 29.5139 10.2723 33.1477 9.99537C34.5658 9.90306 35.9839 9.71845 37.4906 9.62614C43.0743 9.34922 48.5694 8.97999 54.1531 8.70307C57.6097 8.51845 61.0663 8.33383 64.5229 8.14922C65.9409 8.05691 67.359 7.9646 68.7771 7.8723C74.2722 7.59537 79.7673 7.41076 85.2623 7.13383C88.6303 7.04153 91.9096 6.85691 95.2776 6.7646C96.4297 6.7646 97.4933 6.6723 98.6455 6.6723C104.584 6.48768 110.522 6.39537 116.46 6.21076C119.74 6.11845 123.107 6.02614 126.387 5.93383C127.539 5.93383 128.78 5.84153 129.932 5.84153C136.047 5.74922 142.163 5.74922 148.367 5.65691C152.178 5.65691 155.989 5.5646 159.8 5.5646C166.27 5.5646 172.829 5.5646 179.299 5.65691C180.54 5.65691 181.869 5.74922 183.11 5.74922C186.744 5.84153 190.289 5.93383 193.923 6.11845C196.582 6.21076 199.329 6.30306 201.988 6.39537C203.938 6.48768 205.8 6.57999 207.749 6.6723C213.333 6.94922 219.005 7.31845 224.589 7.68768C226.007 7.77999 227.425 7.8723 228.843 7.9646C230.35 8.05691 231.945 8.14922 233.452 8.33383C233.718 8.33383 233.895 8.42614 234.161 8.51845C234.782 8.61076 235.313 8.61076 235.845 8.24153C236.377 7.9646 236.731 7.41076 236.909 6.85691C237.263 5.65691 236.554 4.3646 235.313 3.99537C234.25 3.71845 233.186 3.62614 232.211 3.44153C231.502 3.34922 230.793 3.25691 230.084 3.25691C228.666 3.0723 227.248 3.0723 225.919 2.88768C223.437 2.79537 220.778 2.61076 218.208 2.42614Z" fill="#FF6C40"/>
</svg>
