<svg width="471" height="314" viewBox="0 0 471 314" fill="none" xmlns="http://www.w3.org/2000/svg">
<g opacity="0.25" filter="url(#filter0_f_1442_49451)">
<path opacity="0.04" d="M290.247 167.544C328.866 166.533 359.784 150.824 359.303 132.457C358.822 114.09 327.125 100.021 288.505 101.033C249.886 102.044 218.968 117.753 219.449 136.12C219.93 154.487 251.627 168.556 290.247 167.544Z" fill="#4A0101"/>
<path opacity="0.08" d="M290.226 166.662C327.825 165.677 357.925 150.384 357.457 132.503C356.989 114.622 326.129 100.925 288.53 101.909C250.932 102.894 220.831 118.187 221.299 136.068C221.768 153.949 252.627 167.646 290.226 166.662Z" fill="#480202"/>
<path opacity="0.12" d="M290.203 165.782C326.78 164.824 356.063 149.946 355.608 132.55C355.152 115.154 325.131 101.828 288.554 102.786C251.976 103.744 222.693 118.622 223.149 136.018C223.604 153.414 253.626 166.74 290.203 165.782Z" fill="#460303"/>
<path opacity="0.15" d="M290.172 164.9C325.728 163.968 354.193 149.505 353.75 132.595C353.307 115.685 324.125 102.731 288.569 103.662C253.013 104.594 224.548 119.057 224.991 135.967C225.433 152.877 254.616 165.831 290.172 164.9Z" fill="#440404"/>
<path opacity="0.19" d="M290.154 164.017C324.689 163.112 352.337 149.065 351.907 132.64C351.477 116.216 323.132 103.635 288.596 104.539C254.061 105.443 226.413 119.491 226.843 135.915C227.273 152.34 255.618 164.921 290.154 164.017Z" fill="#420505"/>
<path opacity="0.23" d="M290.128 163.15C323.642 162.272 350.472 148.64 350.055 132.701C349.638 116.763 322.131 104.554 288.617 105.431C255.103 106.309 228.273 119.941 228.69 135.88C229.108 151.818 256.614 164.027 290.128 163.15Z" fill="#400606"/>
<path opacity="0.27" d="M290.107 162.251C322.601 161.4 348.614 148.184 348.209 132.731C347.804 117.278 321.135 105.441 288.642 106.292C256.149 107.143 230.136 120.36 230.54 135.812C230.945 151.265 257.614 163.102 290.107 162.251Z" fill="#3E0606"/>
<path opacity="0.31" d="M290.091 161.387C321.562 160.563 346.758 147.761 346.366 132.794C345.974 117.826 320.143 106.36 288.671 107.184C257.2 108.009 232.004 120.811 232.396 135.778C232.788 150.746 258.619 162.212 290.091 161.387Z" fill="#3C0707"/>
<path opacity="0.35" d="M290.059 160.505C320.51 159.707 344.887 147.321 344.508 132.839C344.129 118.357 319.137 107.264 288.686 108.061C258.236 108.858 233.858 121.245 234.237 135.727C234.617 150.209 259.609 161.302 290.059 160.505Z" fill="#3A0808"/>
<path opacity="0.38" d="M290.041 159.614C319.471 158.843 343.032 146.873 342.665 132.877C342.299 118.88 318.144 108.159 288.714 108.93C259.284 109.701 235.724 121.671 236.09 135.668C236.457 149.664 260.611 160.385 290.041 159.614Z" fill="#380909"/>
<path opacity="0.42" d="M290.021 158.739C318.43 157.995 341.172 146.44 340.819 132.93C340.465 119.419 317.149 109.07 288.74 109.814C260.332 110.558 237.589 122.113 237.943 135.624C238.297 149.134 261.613 159.483 290.021 158.739Z" fill="#360A0A"/>
<path opacity="0.46" d="M289.994 157.868C317.382 157.15 339.308 146.01 338.967 132.984C338.626 119.959 316.147 109.981 288.759 110.699C261.372 111.416 239.446 122.556 239.787 135.582C240.128 148.607 262.607 158.585 289.994 157.868Z" fill="#340B0B"/>
<path opacity="0.5" d="M289.972 156.985C316.338 156.294 337.446 145.569 337.118 133.03C336.789 120.49 315.149 110.885 288.783 111.575C262.417 112.266 241.309 122.991 241.637 135.53C241.965 148.07 263.606 157.675 289.972 156.985Z" fill="#330C0C"/>
<path opacity="0.54" d="M289.948 156.102C315.294 155.438 335.585 145.129 335.269 133.075C334.953 121.021 314.151 111.788 288.805 112.452C263.459 113.116 243.168 123.425 243.484 135.479C243.8 147.532 264.602 156.766 289.948 156.102Z" fill="#310D0D"/>
<path opacity="0.58" d="M289.925 155.227C314.25 154.59 333.723 144.696 333.42 133.128C333.117 121.561 313.153 112.699 288.829 113.336C264.504 113.973 245.031 123.867 245.334 135.435C245.637 147.003 265.601 155.864 289.925 155.227Z" fill="#2F0E0E"/>
<path opacity="0.62" d="M289.9 154.355C313.203 153.745 331.858 144.266 331.568 133.183C331.278 122.1 312.152 113.61 288.849 114.221C265.546 114.831 246.891 124.31 247.181 135.393C247.471 146.476 266.597 154.966 289.9 154.355Z" fill="#2D0F0F"/>
<path opacity="0.65" d="M289.879 153.465C312.161 152.881 330 143.818 329.722 133.221C329.445 122.624 311.157 114.506 288.874 115.09C266.592 115.673 248.754 124.737 249.031 135.334C249.309 145.931 267.597 154.049 289.879 153.465Z" fill="#2B1010"/>
<path opacity="0.69" d="M289.857 152.59C311.117 152.033 328.138 143.385 327.873 133.274C327.608 123.163 310.159 115.417 288.898 115.974C267.637 116.531 250.616 125.179 250.881 135.29C251.146 145.401 268.596 153.147 289.857 152.59Z" fill="#291111"/>
<path opacity="0.73" d="M289.83 151.707C310.07 151.177 326.274 142.945 326.022 133.319C325.769 123.694 309.157 116.321 288.917 116.851C268.677 117.381 252.473 125.613 252.725 135.239C252.977 144.864 269.59 152.237 289.83 151.707Z" fill="#271212"/>
<path opacity="0.77" d="M289.816 150.825C309.034 150.321 324.42 142.504 324.181 133.365C323.941 124.225 308.168 117.224 288.949 117.727C269.73 118.23 254.344 126.048 254.584 135.187C254.823 144.327 270.597 151.328 289.816 150.825Z" fill="#251212"/>
<path opacity="0.81" d="M289.787 149.945C307.984 149.469 322.553 142.066 322.326 133.412C322.099 124.757 307.164 118.127 288.967 118.604C270.769 119.08 256.201 126.483 256.428 135.137C256.655 143.792 271.59 150.422 289.787 149.945Z" fill="#231313"/>
<path opacity="0.85" d="M289.766 149.07C306.943 148.62 320.694 141.633 320.48 133.465C320.266 125.296 306.168 119.038 288.992 119.488C271.815 119.938 258.064 126.925 258.278 135.094C258.492 143.262 272.59 149.52 289.766 149.07Z" fill="#211414"/>
<path opacity="0.88" d="M289.744 148.195C305.899 147.772 318.832 141.201 318.631 133.518C318.43 125.835 305.17 119.95 289.015 120.373C272.86 120.796 259.927 127.367 260.128 135.05C260.329 142.733 273.589 148.618 289.744 148.195Z" fill="#1F1515"/>
<path opacity="0.92" d="M289.72 147.313C304.854 146.916 316.971 140.76 316.782 133.563C316.594 126.366 304.172 120.853 289.037 121.249C273.903 121.646 261.787 127.801 261.975 134.999C262.163 142.196 274.585 147.709 289.72 147.313Z" fill="#1D1616"/>
<path opacity="0.96" d="M289.692 146.433C303.805 146.063 315.103 140.322 314.927 133.61C314.752 126.898 303.168 121.756 289.055 122.126C274.942 122.495 263.643 128.236 263.819 134.949C263.995 141.661 275.578 146.803 289.692 146.433Z" fill="#1B1717"/>
<path d="M289.671 145.558C302.763 145.215 313.244 139.89 313.081 133.663C312.918 127.437 302.173 122.667 289.081 123.01C275.989 123.353 265.509 128.679 265.672 134.905C265.835 141.131 276.58 145.901 289.671 145.558Z" fill="#191818"/>
</g>
<g opacity="0.25" filter="url(#filter1_f_1442_49451)">
<path opacity="0.04" d="M189.072 286.628C211.399 286.043 229.273 276.961 228.995 266.343C228.717 255.725 210.392 247.591 188.065 248.176C165.738 248.761 147.864 257.842 148.142 268.46C148.42 279.078 166.745 287.212 189.072 286.628Z" fill="#4A0101"/>
<path opacity="0.08" d="M189.053 286.126C210.79 285.556 228.191 276.714 227.921 266.376C227.65 256.038 209.809 248.119 188.073 248.689C166.336 249.258 148.934 258.1 149.204 268.438C149.475 278.776 167.316 286.695 189.053 286.126Z" fill="#480202"/>
<path opacity="0.12" d="M189.038 285.628C210.184 285.075 227.113 276.473 226.849 266.416C226.586 256.359 209.23 248.655 188.084 249.209C166.938 249.763 150.009 258.364 150.273 268.421C150.536 278.478 167.892 286.182 189.038 285.628Z" fill="#460303"/>
<path opacity="0.15" d="M189.027 285.108C209.583 284.569 226.04 276.208 225.784 266.432C225.528 256.656 208.656 249.167 188.1 249.706C167.544 250.244 151.087 258.605 151.343 268.381C151.599 278.157 168.471 285.646 189.027 285.108Z" fill="#440404"/>
<path opacity="0.19" d="M189.013 284.595C208.979 284.072 224.964 275.951 224.715 266.456C224.467 256.961 208.079 249.687 188.113 250.21C168.147 250.733 152.162 258.854 152.411 268.349C152.66 277.844 169.047 285.117 189.013 284.595Z" fill="#420505"/>
<path opacity="0.23" d="M189.001 284.093C208.377 283.585 223.888 275.704 223.647 266.489C223.405 257.274 207.503 250.215 188.128 250.723C168.752 251.23 153.241 259.111 153.482 268.326C153.724 277.541 169.626 284.6 189.001 284.093Z" fill="#400606"/>
<path opacity="0.27" d="M188.982 283.58C207.768 283.088 222.807 275.447 222.573 266.513C222.339 257.579 206.921 250.735 188.135 251.227C169.35 251.719 154.311 259.36 154.545 268.294C154.779 277.228 170.197 284.072 188.982 283.58Z" fill="#3E0606"/>
<path opacity="0.31" d="M188.976 283.075C207.17 282.598 221.736 275.197 221.51 266.544C221.283 257.891 206.35 251.263 188.155 251.74C169.961 252.216 155.395 259.617 155.621 268.27C155.848 276.923 170.781 283.551 188.976 283.075Z" fill="#3C0707"/>
<path opacity="0.35" d="M188.96 282.58C206.564 282.119 220.658 274.958 220.439 266.585C220.219 258.212 205.77 251.799 188.166 252.26C170.561 252.721 156.467 259.882 156.687 268.255C156.906 276.628 171.355 283.041 188.96 282.58Z" fill="#3A0808"/>
<path opacity="0.38" d="M188.941 282.06C205.955 281.614 219.576 274.693 219.364 266.601C219.152 258.51 205.188 252.311 188.174 252.757C171.16 253.202 157.539 260.123 157.751 268.215C157.963 276.307 171.927 282.505 188.941 282.06Z" fill="#380909"/>
<path opacity="0.42" d="M188.931 281.547C205.355 281.117 218.503 274.436 218.299 266.625C218.094 258.814 204.614 252.831 188.19 253.261C171.766 253.691 158.618 260.372 158.822 268.183C159.027 275.993 172.507 281.977 188.931 281.547Z" fill="#360A0A"/>
<path opacity="0.46" d="M188.923 281.049C204.757 280.635 217.433 274.194 217.236 266.664C217.039 259.135 204.043 253.367 188.209 253.781C172.375 254.196 159.699 260.636 159.896 268.166C160.093 275.696 173.089 281.464 188.923 281.049Z" fill="#340B0B"/>
<path opacity="0.5" d="M188.908 280.532C204.151 280.133 216.354 273.932 216.165 266.682C215.975 259.432 203.464 253.879 188.221 254.278C172.978 254.677 160.774 260.878 160.964 268.128C161.154 275.377 173.665 280.931 188.908 280.532Z" fill="#330C0C"/>
<path opacity="0.54" d="M188.894 280.019C203.548 279.635 215.278 273.675 215.096 266.706C214.914 259.737 202.887 254.399 188.234 254.783C173.58 255.166 161.85 261.127 162.032 268.096C162.215 275.064 174.241 280.402 188.894 280.019Z" fill="#310D0D"/>
<path opacity="0.58" d="M188.874 279.521C202.936 279.153 214.194 273.433 214.019 266.745C213.844 260.058 202.302 254.935 188.24 255.303C174.177 255.671 162.919 261.391 163.094 268.079C163.27 274.767 174.811 279.89 188.874 279.521Z" fill="#2F0E0E"/>
<path opacity="0.62" d="M188.866 279.001C202.338 278.648 213.124 273.168 212.956 266.761C212.788 260.355 201.731 255.447 188.258 255.8C174.786 256.152 164 261.632 164.168 268.039C164.336 274.446 175.393 279.353 188.866 279.001Z" fill="#2D0F0F"/>
<path opacity="0.65" d="M188.86 278.491C201.741 278.153 212.054 272.913 211.894 266.787C211.733 260.66 201.16 255.967 188.279 256.304C175.397 256.642 165.085 261.882 165.245 268.008C165.405 274.135 175.978 278.828 188.86 278.491Z" fill="#2B1010"/>
<path opacity="0.69" d="M188.832 277.986C201.123 277.664 210.964 272.664 210.811 266.818C210.658 260.973 200.569 256.495 188.278 256.817C175.986 257.139 166.146 262.138 166.299 267.984C166.452 273.83 176.54 278.308 188.832 277.986Z" fill="#291111"/>
<path opacity="0.73" d="M188.825 277.48C200.526 277.174 209.893 272.415 209.748 266.85C209.602 261.285 199.998 257.023 188.298 257.329C176.597 257.636 167.229 262.395 167.375 267.96C167.521 273.524 177.124 277.787 188.825 277.48Z" fill="#271212"/>
<path opacity="0.77" d="M188.814 276.979C199.925 276.688 208.82 272.168 208.682 266.883C208.544 261.599 199.424 257.551 188.313 257.842C177.202 258.133 168.307 262.652 168.446 267.937C168.584 273.221 177.704 277.27 188.814 276.979Z" fill="#251212"/>
<path opacity="0.81" d="M188.798 276.473C199.319 276.198 207.742 271.918 207.611 266.915C207.48 261.911 198.845 258.078 188.324 258.354C177.803 258.629 169.38 262.909 169.511 267.912C169.642 272.916 178.277 276.749 188.798 276.473Z" fill="#231313"/>
<path opacity="0.85" d="M188.789 275.953C198.719 275.693 206.669 271.653 206.545 266.931C206.421 262.208 198.271 258.591 188.341 258.851C178.411 259.111 170.461 263.15 170.585 267.872C170.708 272.595 178.859 276.213 188.789 275.953Z" fill="#211414"/>
<path opacity="0.88" d="M188.773 275.44C198.113 275.195 205.59 271.396 205.474 266.955C205.358 262.513 197.692 259.111 188.351 259.355C179.011 259.6 171.534 263.399 171.65 267.84C171.766 272.282 179.432 275.684 188.773 275.44Z" fill="#1F1515"/>
<path opacity="0.92" d="M188.769 274.938C197.518 274.709 204.523 271.149 204.414 266.988C204.305 262.826 197.124 259.639 188.374 259.868C179.625 260.097 172.621 263.656 172.73 267.818C172.838 271.979 180.02 275.167 188.769 274.938Z" fill="#1D1616"/>
<path opacity="0.96" d="M188.75 274.432C196.909 274.219 203.441 270.9 203.34 267.019C203.238 263.139 196.541 260.166 188.382 260.38C180.222 260.594 173.69 263.913 173.792 267.793C173.893 271.674 180.59 274.646 188.75 274.432Z" fill="#1B1717"/>
<path d="M188.732 273.92C196.3 273.721 202.359 270.643 202.265 267.043C202.171 263.444 195.959 260.687 188.39 260.885C180.822 261.083 174.762 264.162 174.857 267.761C174.951 271.361 181.163 274.118 188.732 273.92Z" fill="#191818"/>
</g>
<g opacity="0.25" filter="url(#filter2_f_1442_49451)">
<path opacity="0.04" d="M347.123 218.02C369.45 217.436 387.324 208.354 387.046 197.736C386.768 187.118 368.443 178.984 346.116 179.569C323.789 180.154 305.915 189.235 306.193 199.853C306.471 210.471 324.796 218.605 347.123 218.02Z" fill="#4A0101"/>
<path opacity="0.08" d="M347.106 217.519C368.843 216.949 386.245 208.107 385.974 197.769C385.704 187.431 367.863 179.512 346.126 180.081C324.389 180.651 306.988 189.493 307.258 199.831C307.529 210.169 325.37 218.088 347.106 217.519Z" fill="#480202"/>
<path opacity="0.12" d="M347.088 217.021C368.234 216.468 385.163 207.866 384.9 197.809C384.636 187.752 367.281 180.048 346.135 180.602C324.989 181.156 308.06 189.757 308.323 199.814C308.586 209.871 325.942 217.575 347.088 217.021Z" fill="#460303"/>
<path opacity="0.15" d="M347.078 216.501C367.634 215.962 384.091 207.601 383.835 197.825C383.579 188.049 366.707 180.56 346.151 181.099C325.595 181.637 309.138 189.998 309.394 199.774C309.65 209.55 326.522 217.039 347.078 216.501Z" fill="#440404"/>
<path opacity="0.19" d="M347.065 215.988C367.031 215.465 383.015 207.344 382.766 197.849C382.518 188.354 366.13 181.08 346.164 181.603C326.198 182.126 310.214 190.247 310.462 199.742C310.711 209.237 327.098 216.51 347.065 215.988Z" fill="#420505"/>
<path opacity="0.23" d="M347.052 215.486C366.428 214.978 381.939 207.097 381.698 197.882C381.456 188.667 365.554 181.608 346.178 182.115C326.803 182.623 311.292 190.504 311.533 199.719C311.774 208.934 327.677 215.993 347.052 215.486Z" fill="#400606"/>
<path opacity="0.27" d="M347.036 214.973C365.821 214.481 380.86 206.84 380.626 197.906C380.393 188.972 364.974 182.128 346.189 182.62C327.403 183.112 312.364 190.753 312.598 199.687C312.832 208.621 328.251 215.465 347.036 214.973Z" fill="#3E0606"/>
<path opacity="0.31" d="M347.026 214.467C365.221 213.991 379.787 206.59 379.56 197.937C379.334 189.284 364.401 182.656 346.206 183.132C328.011 183.609 313.445 191.01 313.672 199.663C313.899 208.316 328.832 214.944 347.026 214.467Z" fill="#3C0707"/>
<path opacity="0.35" d="M347.01 213.973C364.615 213.512 378.709 206.351 378.489 197.978C378.27 189.605 363.821 183.192 346.216 183.653C328.612 184.114 314.518 191.275 314.737 199.648C314.957 208.021 329.406 214.434 347.01 213.973Z" fill="#3A0808"/>
<path opacity="0.38" d="M346.998 213.453C364.012 213.007 377.632 206.086 377.421 197.994C377.209 189.902 363.245 183.704 346.231 184.15C329.217 184.595 315.596 191.516 315.808 199.608C316.02 207.7 329.984 213.898 346.998 213.453Z" fill="#380909"/>
<path opacity="0.42" d="M346.988 212.94C363.411 212.509 376.56 205.829 376.355 198.018C376.151 190.207 362.671 184.224 346.247 184.654C329.823 185.084 316.675 191.765 316.879 199.576C317.084 207.386 330.564 213.37 346.988 212.94Z" fill="#360A0A"/>
<path opacity="0.46" d="M346.974 212.427C362.808 212.012 375.484 205.572 375.287 198.042C375.09 190.512 362.094 184.744 346.26 185.159C330.426 185.573 317.75 192.014 317.947 199.543C318.144 207.073 331.14 212.841 346.974 212.427Z" fill="#340B0B"/>
<path opacity="0.5" d="M346.959 211.925C362.202 211.525 374.405 205.325 374.215 198.075C374.026 190.825 361.515 185.272 346.272 185.671C331.028 186.07 318.825 192.271 319.015 199.521C319.205 206.77 331.716 212.324 346.959 211.925Z" fill="#330C0C"/>
<path opacity="0.54" d="M346.945 211.412C361.598 211.028 373.329 205.068 373.147 198.099C372.964 191.13 360.938 185.792 346.284 186.176C331.631 186.559 319.9 192.52 320.083 199.488C320.265 206.457 332.292 211.795 346.945 211.412Z" fill="#310D0D"/>
<path opacity="0.58" d="M346.933 210.914C360.996 210.546 372.253 204.826 372.078 198.138C371.903 191.451 360.361 186.328 346.299 186.696C332.237 187.064 320.979 192.784 321.154 199.472C321.329 206.16 332.871 211.283 346.933 210.914Z" fill="#2F0E0E"/>
<path opacity="0.62" d="M346.919 210.394C360.392 210.041 371.177 204.561 371.01 198.154C370.842 191.748 359.784 186.84 346.312 187.193C332.84 187.546 322.054 193.025 322.222 199.432C322.389 205.839 333.447 210.746 346.919 210.394Z" fill="#2D0F0F"/>
<path opacity="0.65" d="M346.911 209.884C359.792 209.546 370.105 204.306 369.944 198.18C369.784 192.053 359.211 187.36 346.33 187.697C333.448 188.035 323.135 193.275 323.296 199.401C323.456 205.528 334.029 210.221 346.911 209.884Z" fill="#2B1010"/>
<path opacity="0.69" d="M346.888 209.379C359.18 209.057 369.02 204.057 368.867 198.211C368.714 192.366 358.625 187.888 346.334 188.21C334.042 188.532 324.202 193.531 324.355 199.377C324.508 205.223 334.596 209.7 346.888 209.379Z" fill="#291111"/>
<path opacity="0.73" d="M346.876 208.874C358.577 208.567 367.944 203.808 367.798 198.243C367.653 192.678 358.049 188.416 346.348 188.722C334.648 189.029 325.28 193.788 325.426 199.353C325.572 204.917 335.175 209.18 346.876 208.874Z" fill="#271212"/>
<path opacity="0.77" d="M346.865 208.371C357.976 208.081 366.871 203.561 366.733 198.276C366.594 192.992 357.475 188.944 346.364 189.234C335.253 189.525 326.358 194.045 326.497 199.33C326.635 204.614 335.754 208.662 346.865 208.371Z" fill="#251212"/>
<path opacity="0.81" d="M346.849 207.858C357.37 207.583 365.793 203.303 365.662 198.3C365.531 193.296 356.896 189.464 346.375 189.739C335.854 190.015 327.431 194.294 327.562 199.298C327.693 204.301 336.328 208.134 346.849 207.858Z" fill="#231313"/>
<path opacity="0.85" d="M346.84 207.346C356.77 207.086 364.719 203.046 364.596 198.324C364.472 193.601 356.322 189.984 346.392 190.244C336.462 190.504 328.512 194.543 328.636 199.266C328.759 203.988 336.909 207.606 346.84 207.346Z" fill="#211414"/>
<path opacity="0.88" d="M346.823 206.833C356.164 206.588 363.641 202.789 363.525 198.348C363.408 193.906 355.742 190.504 346.402 190.748C337.062 190.993 329.585 194.792 329.701 199.233C329.817 203.675 337.483 207.077 346.823 206.833Z" fill="#1F1515"/>
<path opacity="0.92" d="M346.82 206.331C355.569 206.101 362.574 202.542 362.465 198.381C362.356 194.219 355.175 191.032 346.425 191.261C337.676 191.49 330.671 195.049 330.78 199.211C330.889 203.372 338.07 206.56 346.82 206.331Z" fill="#1D1616"/>
<path opacity="0.96" d="M346.801 205.818C354.96 205.604 361.492 202.285 361.391 198.404C361.289 194.524 354.592 191.552 346.433 191.765C338.273 191.979 331.741 195.298 331.843 199.178C331.944 203.059 338.641 206.031 346.801 205.818Z" fill="#1B1717"/>
<path d="M346.783 205.313C354.351 205.114 360.411 202.036 360.316 198.436C360.222 194.837 354.01 192.08 346.442 192.278C338.873 192.476 332.814 195.555 332.908 199.154C333.002 202.753 339.214 205.511 346.783 205.313Z" fill="#191818"/>
</g>
<path d="M149.614 205.859L199.562 195.81C202.362 194.983 205.347 196.318 206.597 198.958L229.873 238.415C231.354 241.545 227.08 249.307 223.801 250.422L175.103 266.973C171.391 268.235 167.328 266.471 165.716 262.899L145.662 218.487C144.245 215.347 146.312 206.836 149.614 205.859Z" fill="#60F1C8"/>
<path d="M297.781 0.195622L358.669 19.0427C360.792 19.6991 362.064 21.8665 361.604 24.0402L346.895 93.5082L344.13 94.4548L281.45 64.7104L292.524 3.39203C292.963 0.964599 295.425 -0.532135 297.782 0.197204L297.781 0.195622Z" fill="url(#paint0_linear_1442_49451)"/>
<path d="M279.314 69.2205L236.64 96.2821C235.175 97.3333 236.315 102.382 237.866 103.298L296.966 138.252C299.33 139.651 302.336 139.291 304.305 137.377L344.759 98.0182L344.13 94.8044L279.313 69.2205H279.314Z" fill="url(#paint1_linear_1442_49451)"/>
<path d="M279.367 69.4277L343.692 94.8175L344.217 97.4971L303.956 136.667C303.956 136.667 303.956 136.667 303.956 136.667C302.149 138.424 299.39 138.754 297.221 137.471L297.221 137.47L238.12 102.516L238.12 102.516C237.861 102.363 237.553 101.984 237.264 101.392C236.983 100.818 236.754 100.111 236.613 99.3928C236.472 98.6728 236.425 97.969 236.492 97.3999C236.561 96.8177 236.734 96.4856 236.922 96.3438L279.367 69.4277Z" fill="#173D7A" stroke="black"/>
<path d="M295.018 1.14093L355.907 19.988C358.03 20.6444 359.301 22.8118 358.842 24.9856L344.132 94.4535L278.687 65.6557L289.761 4.33734C290.2 1.90991 292.662 0.413178 295.02 1.14252L295.018 1.14093Z" fill="#173D7A"/>
<path d="M280.899 64.4853L291.697 4.69058C291.881 3.66792 292.767 2.9259 293.804 2.9259C294.018 2.9259 294.232 2.9592 294.441 3.02262L355.33 21.8697C356.489 22.228 357.173 23.395 356.923 24.5825L342.715 91.6849L280.9 64.4837L280.899 64.4853Z" fill="#83CFFF"/>
<path d="M342.371 94.7733L302.98 133.097C301.334 134.697 298.822 134.997 296.847 133.829L296.847 133.829L237.747 98.8746L237.746 98.8742C236.816 98.3251 236.757 97.0002 237.635 96.3699L237.635 96.3697L278.806 66.8029L342.371 94.7733Z" fill="#D4ECFF" stroke="white" stroke-width="2"/>
<path d="M303.676 133.464C301.709 135.379 298.702 135.737 296.338 134.339L237.237 99.3846C236.478 98.9343 236.069 98.1749 236.018 97.3932C235.95 98.2922 236.362 99.2197 237.237 99.7366L296.338 134.691C298.702 136.089 301.707 135.729 303.676 133.816L344.131 94.4568L343.882 94.3474L303.676 133.464Z" fill="url(#paint2_linear_1442_49451)"/>
<path d="M277.409 72.6239L262.382 83.2089C261.51 83.6607 261.707 85.1305 262.709 85.6458L314.187 111.675C315.311 112.252 316.527 112.203 317.41 111.542L332.292 99.9599C333.294 99.2099 332.902 97.3707 331.613 96.7667L281.853 72.6747C280.332 71.9628 278.718 71.9438 277.409 72.6239Z" fill="#D4ECFF"/>
<path d="M290.214 84.2137L292.704 85.4313L294.149 84.3564L291.663 83.1356L290.214 84.2137Z" fill="#173D7A"/>
<path d="M286.657 82.4777L289.146 83.6953L290.6 82.6141L288.116 81.3933L286.657 82.4777Z" fill="#173D7A"/>
<path d="M283.1 80.7418L285.591 81.9593L287.053 80.8718L284.568 79.651L283.1 80.7418Z" fill="#173D7A"/>
<path d="M280.699 82.5101L283.171 83.7404L284.753 82.564L282.264 81.3464L280.699 82.5101Z" fill="#173D7A"/>
<path d="M274.845 82.4953L277.317 83.7255L278.809 82.6158L276.339 81.3855L274.845 82.4953Z" fill="#173D7A"/>
<path d="M277.175 80.7472L279.646 81.9775L281.201 80.8201L278.711 79.6041L277.175 80.7472Z" fill="#173D7A"/>
<path d="M300.881 89.4201L303.371 90.6377L304.789 89.5834L302.304 88.3627L300.881 89.4201Z" fill="#173D7A"/>
<path d="M304.437 91.1561L306.926 92.3737L308.336 91.3257L305.851 90.105L304.437 91.1561Z" fill="#173D7A"/>
<path d="M307.994 92.9015L310.485 94.1175L311.884 93.0774L309.4 91.8551L307.994 92.9015Z" fill="#173D7A"/>
<path d="M293.77 85.9497L296.261 87.1672L297.696 86.1003L295.211 84.8779L293.77 85.9497Z" fill="#173D7A"/>
<path d="M297.321 87.6856L299.812 88.9032L301.239 87.8426L298.754 86.6202L297.321 87.6856Z" fill="#173D7A"/>
<path d="M297.666 94.8902L295.195 93.6599L293.658 94.803L296.125 96.0364L297.666 94.8902Z" fill="#173D7A"/>
<path d="M301.195 96.6481L298.723 95.4178L297.18 96.5641L299.647 97.7991L301.195 96.6481Z" fill="#173D7A"/>
<path d="M304.723 98.3982L302.253 97.168L300.702 98.319L303.169 99.554L304.723 98.3982Z" fill="#173D7A"/>
<path d="M279.956 77.3737L278.041 76.432L276.52 77.518L278.477 78.474L279.956 77.3737Z" fill="#173D7A"/>
<path d="M294.135 93.126L291.663 91.8942L290.133 93.0325L292.6 94.2675L294.135 93.126Z" fill="#173D7A"/>
<path d="M280.019 86.0926L277.547 84.8623L276.041 85.9816L278.508 87.2166L280.019 86.0926Z" fill="#173D7A"/>
<path d="M308.257 100.158L305.787 98.9259L304.23 100.083L306.699 101.317L308.257 100.158Z" fill="#173D7A"/>
<path d="M287.082 89.6023L284.61 88.3705L283.092 89.4993L285.56 90.7343L287.082 89.6023Z" fill="#173D7A"/>
<path d="M290.612 91.3757L288.14 90.1438L286.617 91.2774L289.084 92.5124L290.612 91.3757Z" fill="#173D7A"/>
<path d="M278.376 84.2532L280.848 85.4835L282.34 84.3737L279.87 83.1434L278.376 84.2532Z" fill="#173D7A"/>
<path d="M291.286 87.7817L293.758 89.0135L295.423 87.7753L292.932 86.5577L291.286 87.7817Z" fill="#173D7A"/>
<path d="M287.761 86.0344L290.233 87.2662L291.87 86.0486L289.38 84.8311L287.761 86.0344Z" fill="#173D7A"/>
<path d="M285.875 86.116L283.403 84.8857L281.91 85.9939L284.382 87.2258L285.875 86.116Z" fill="#173D7A"/>
<path d="M294.82 89.5525L297.292 90.7844L298.983 89.5256L296.493 88.308L294.82 89.5525Z" fill="#173D7A"/>
<path d="M284.236 84.273L286.708 85.5033L288.318 84.3063L285.828 83.0887L284.236 84.273Z" fill="#173D7A"/>
<path d="M298.348 91.3076L300.82 92.5395L302.538 91.2601L300.047 90.0425L298.348 91.3076Z" fill="#173D7A"/>
<path d="M284.337 78.4963L285.678 77.4991L283.145 76.3148L281.853 77.2756L284.337 78.4963Z" fill="#173D7A"/>
<path d="M289.403 87.8833L286.931 86.6515L285.438 87.7613L287.909 88.9931L289.403 87.8833Z" fill="#173D7A"/>
<path d="M301.879 93.069L304.35 94.2992L306.097 93.0008L303.607 91.7848L301.879 93.069Z" fill="#173D7A"/>
<path d="M309.649 94.7353L307.159 93.5193L305.404 94.8241L307.875 96.0543L309.649 94.7353Z" fill="#173D7A"/>
<path d="M307.05 96.6715L304.578 95.4413L303.086 96.5511L305.556 97.7813L307.05 96.6715Z" fill="#173D7A"/>
<path d="M313.207 96.4776L310.716 95.2616L308.934 96.587L311.406 97.8172L313.207 96.4776Z" fill="#173D7A"/>
<path d="M316.762 98.2199L314.272 97.0039L312.463 98.3483L314.934 99.5802L316.762 98.2199Z" fill="#173D7A"/>
<path d="M292.934 89.6414L290.462 88.4095L288.969 89.5193L291.44 90.7512L292.934 89.6414Z" fill="#173D7A"/>
<path d="M310.577 98.4389L308.106 97.207L306.614 98.3168L309.086 99.5487L310.577 98.4389Z" fill="#173D7A"/>
<path d="M318.98 96.5605L316.495 95.3397L315.107 96.3718L317.597 97.5878L318.98 96.5605Z" fill="#173D7A"/>
<path d="M296.463 91.4071L293.991 90.1753L292.499 91.2851L294.969 92.5169L296.463 91.4071Z" fill="#173D7A"/>
<path d="M299.991 93.1557L297.519 91.9254L296.027 93.0352L298.497 94.2655L299.991 93.1557Z" fill="#173D7A"/>
<path d="M311.551 94.6374L314.041 95.8534L315.432 94.8197L312.947 93.5974L311.551 94.6374Z" fill="#173D7A"/>
<path d="M303.516 94.9136L301.044 93.6833L299.552 94.7931L302.023 96.0234L303.516 94.9136Z" fill="#173D7A"/>
<path d="M283.554 87.8521L281.082 86.6202L279.57 87.7459L282.036 88.9793L283.554 87.8521Z" fill="#173D7A"/>
<path d="M296.35 97.1755L293.945 98.9639L296.402 100.205L298.817 98.409L296.35 97.1755Z" fill="#173D7A"/>
<path d="M271.693 84.8311L269.393 86.5401L271.85 87.7831L274.16 86.0645L271.693 84.8311Z" fill="#173D7A"/>
<path d="M303.399 100.692L300.964 102.502L303.421 103.745L305.866 101.927L303.399 100.692Z" fill="#173D7A"/>
<path d="M299.878 98.9337L297.459 100.732L299.915 101.974L302.345 100.167L299.878 98.9337Z" fill="#173D7A"/>
<path d="M273.865 100.145L264.462 107.137L278.808 115.537L288.584 107.51L273.865 100.145Z" fill="#173D7A"/>
<path d="M306.924 102.458L304.474 104.279L306.932 105.52L309.391 103.693L306.924 102.458Z" fill="#173D7A"/>
<path d="M278.74 88.3627L276.411 90.0955L278.867 91.3369L281.207 89.5977L278.74 88.3627Z" fill="#173D7A"/>
<path d="M275.215 86.5968L272.901 88.3185L275.358 89.5615L277.682 87.8318L275.215 86.5968Z" fill="#173D7A"/>
<path d="M295.298 96.6351L282.261 90.1128L279.916 91.8567L284.244 94.043L285.882 94.8721L288.571 96.2308L289.389 96.6462L292.897 98.4187L295.298 96.6351Z" fill="#173D7A"/>
<path d="M282.038 75.8184C280.974 75.441 279.887 75.449 278.95 75.8437L280.789 76.7474L282.038 75.8184Z" fill="#173D7A"/>
<path d="M322.22 99.8438L324.627 101.02L325.965 99.9912L323.591 98.8243L322.22 99.8438Z" fill="#173D7A"/>
<path d="M326.526 96.6523L324.42 98.2187L326.776 99.3776L326.895 99.2857C327.7 98.6832 327.463 97.2659 326.527 96.6523H326.526Z" fill="#173D7A"/>
<path d="M268.51 83.2372L267.776 83.7619C267.024 84.152 267.194 85.4203 268.058 85.8642L268.34 86.0069L270.636 84.301L268.511 83.2388L268.51 83.2372Z" fill="#173D7A"/>
<path d="M311.487 107.823L312.487 108.329C313.458 108.827 314.507 108.784 315.268 108.215L316.516 107.256L313.967 105.981L311.487 107.825V107.823Z" fill="#173D7A"/>
<path d="M315.313 103.666L312.843 102.434L311.275 103.599L313.742 104.834L315.313 103.666Z" fill="#173D7A"/>
<path d="M319.524 101.859L321.966 103.075L323.811 101.657L321.389 100.473L319.524 101.859Z" fill="#173D7A"/>
<path d="M314.794 105.37L317.326 106.637L318.873 105.448L316.368 104.2L314.794 105.37Z" fill="#173D7A"/>
<path d="M310.446 104.231L307.982 106.064L310.438 107.305L312.914 105.465L310.446 104.231Z" fill="#173D7A"/>
<path d="M275.281 80.8515L273.264 79.8463L271.736 80.9371L273.789 81.9596L275.281 80.8515Z" fill="#173D7A"/>
<path d="M316.263 94.1962L318.228 92.736L315.696 91.5502L313.779 92.9754L316.263 94.1962Z" fill="#173D7A"/>
<path d="M319.811 95.952L321.845 94.4395L319.312 93.2537L317.327 94.7297L319.811 95.952Z" fill="#173D7A"/>
<path d="M312.715 92.4565L314.61 91.0471L312.076 89.8628L310.231 91.2357L312.715 92.4565Z" fill="#173D7A"/>
<path d="M323.36 97.6825L325.464 96.1193L322.931 94.9335L320.878 96.4602L323.36 97.6825Z" fill="#173D7A"/>
<path d="M309.167 90.7102L310.994 89.3531L308.46 88.1672L306.683 89.4879L309.167 90.7102Z" fill="#173D7A"/>
<path d="M322.526 98.3028L320.042 97.082L318.661 98.1078L321.152 99.3238L322.526 98.3028Z" fill="#173D7A"/>
<path d="M311.628 98.9495L310.136 100.059L312.608 101.291L314.1 100.181L311.628 98.9495Z" fill="#173D7A"/>
<path d="M305.622 88.964L307.379 87.6577L304.847 86.4718L303.138 87.7417L305.622 88.964Z" fill="#173D7A"/>
<path d="M317.633 101.947L315.162 100.715L313.67 101.825L319.688 104.823L321.15 103.699L317.633 101.947Z" fill="#173D7A"/>
<path d="M320.317 99.9544L317.826 98.7384L315.99 100.103L318.462 101.335L320.317 99.9544Z" fill="#173D7A"/>
<path d="M277.646 79.0851L275.67 78.1196L274.12 79.2278L276.116 80.2234L277.646 79.0851Z" fill="#173D7A"/>
<path d="M311.784 101.924L309.314 100.692L307.753 101.854L310.22 103.087L311.784 101.924Z" fill="#173D7A"/>
<path d="M272.519 84.2111L274.986 85.4461L276.491 84.3268L274.019 83.0966L272.519 84.2111Z" fill="#173D7A"/>
<path d="M272.956 82.5817L270.884 81.5496L269.353 82.6435L271.458 83.6962L272.956 82.5817Z" fill="#173D7A"/>
<path d="M279.541 78.9917L282.031 80.2077L283.503 79.1154L281.018 77.8931L279.541 78.9917Z" fill="#173D7A"/>
<path d="M298.529 85.4763L300.148 84.273L297.614 83.0887L296.045 84.2556L298.529 85.4763Z" fill="#173D7A"/>
<path d="M302.077 87.2257L303.764 85.9701L301.232 84.7842L299.593 86.0033L302.077 87.2257Z" fill="#173D7A"/>
<path d="M294.975 83.738L296.526 82.587L293.992 81.4011L292.491 82.5172L294.975 83.738Z" fill="#173D7A"/>
<path d="M287.882 80.2537L289.293 79.2042L286.76 78.0183L285.398 79.0314L287.882 80.2537Z" fill="#173D7A"/>
<path d="M291.436 81.9918L292.915 80.8916L290.383 79.7057L288.951 80.7695L291.436 81.9918Z" fill="#173D7A"/>
<g opacity="0.18" filter="url(#filter3_f_1442_49451)">
<path opacity="0.04" d="M106.541 154.153C145.161 153.141 176.078 137.432 175.597 119.066C175.116 100.699 143.419 86.6294 104.8 87.6408C66.1803 88.6522 35.2629 104.361 35.7438 122.728C36.2247 141.095 67.9218 155.164 106.541 154.153Z" fill="#4A0101"/>
<path opacity="0.08" d="M106.52 153.27C144.119 152.285 174.22 136.992 173.751 119.111C173.283 101.23 142.424 87.5328 104.825 88.5174C67.226 89.5021 37.1256 104.796 37.5938 122.677C38.062 140.558 68.9215 154.255 106.52 153.27Z" fill="#480202"/>
<path opacity="0.12" d="M106.497 152.39C143.075 151.433 172.357 136.554 171.902 119.158C171.446 101.762 141.425 88.4361 104.848 89.394C68.2705 90.3519 38.9879 105.231 39.4434 122.627C39.8989 140.023 69.92 153.348 106.497 152.39Z" fill="#460303"/>
<path opacity="0.15" d="M106.467 151.508C142.023 150.577 170.487 136.113 170.045 119.203C169.602 102.293 140.419 89.3395 104.863 90.2707C69.3072 91.2018 40.8423 105.665 41.2851 122.575C41.7279 139.485 70.9106 152.439 106.467 151.508Z" fill="#440404"/>
<path opacity="0.19" d="M106.448 150.625C140.983 149.721 168.631 135.673 168.201 119.249C167.771 102.824 139.426 90.2428 104.891 91.1472C70.3553 92.0516 42.7075 106.099 43.1376 122.524C43.5676 138.948 71.9127 151.529 106.448 150.625Z" fill="#420505"/>
<path opacity="0.23" d="M106.423 149.75C139.937 148.873 166.767 135.24 166.349 119.302C165.932 103.363 138.425 91.154 104.911 92.0317C71.3974 92.9094 44.5673 106.542 44.9846 122.48C45.402 138.419 72.9087 150.628 106.423 149.75Z" fill="#400606"/>
<path opacity="0.27" d="M106.402 148.86C138.895 148.009 164.908 134.792 164.503 119.339C164.099 103.887 137.43 92.0496 104.936 92.9005C72.4431 93.7515 46.4301 106.968 46.8347 122.421C47.2393 137.874 73.9083 149.711 106.402 148.86Z" fill="#3E0606"/>
<path opacity="0.31" d="M106.385 147.996C137.857 147.172 163.052 134.37 162.66 119.402C162.268 104.434 136.438 92.9685 104.966 93.7927C73.4939 94.6169 48.2987 107.419 48.6906 122.387C49.0825 137.354 74.9132 148.82 106.385 147.996Z" fill="#3C0707"/>
<path opacity="0.35" d="M106.365 147.113C136.815 146.316 161.193 133.929 160.814 119.447C160.435 104.965 135.442 93.872 104.992 94.6694C74.5414 95.4668 50.1638 107.853 50.543 122.335C50.9222 136.817 75.9146 147.911 106.365 147.113Z" fill="#3A0808"/>
<path opacity="0.38" d="M106.336 146.222C135.766 145.452 159.326 133.481 158.96 119.485C158.593 105.489 134.438 94.7674 105.009 95.5381C75.5788 96.3088 52.0183 108.28 52.3847 122.276C52.7512 136.272 76.9059 146.993 106.336 146.222Z" fill="#380909"/>
<path opacity="0.42" d="M106.316 145.348C134.724 144.604 157.467 133.048 157.113 119.538C156.759 106.028 133.443 95.6786 105.035 96.4226C76.6262 97.1666 53.8835 108.722 54.2372 122.232C54.591 135.742 77.9072 146.092 106.316 145.348Z" fill="#360A0A"/>
<path opacity="0.46" d="M106.292 144.476C133.68 143.759 155.605 132.618 155.264 119.593C154.923 106.567 132.445 96.5897 105.057 97.3069C77.669 98.0242 55.7433 109.165 56.0843 122.19C56.4254 135.215 78.904 145.193 106.292 144.476Z" fill="#340B0B"/>
<path opacity="0.5" d="M106.266 143.593C132.633 142.903 153.741 132.178 153.412 119.638C153.084 107.099 131.444 97.4931 105.077 98.1836C78.711 98.8741 57.6031 109.599 57.9314 122.139C58.2597 134.678 79.9 144.284 106.266 143.593Z" fill="#330C0C"/>
<path opacity="0.54" d="M106.242 142.71C131.588 142.047 151.879 131.737 151.563 119.683C151.248 107.63 130.445 98.3964 105.1 99.0601C79.7538 99.7239 59.4629 110.033 59.7785 122.087C60.0941 134.141 80.8967 143.374 106.242 142.71Z" fill="#310D0D"/>
<path opacity="0.58" d="M106.22 141.836C130.544 141.199 150.017 131.305 149.714 119.737C149.412 108.169 129.447 99.3076 105.123 99.9446C80.7988 100.582 61.3256 110.476 61.6285 122.043C61.9314 133.611 81.8957 142.473 106.22 141.836Z" fill="#2F0E0E"/>
<path opacity="0.62" d="M106.197 140.964C129.5 140.354 148.156 130.874 147.865 119.791C147.575 108.709 128.449 100.219 105.147 100.829C81.8438 101.439 63.1884 110.918 63.4786 122.001C63.7688 133.084 82.8947 141.574 106.197 140.964Z" fill="#2D0F0F"/>
<path opacity="0.65" d="M106.177 140.073C128.459 139.49 146.297 130.426 146.02 119.829C145.742 109.232 127.454 101.114 105.172 101.698C82.8895 102.281 65.0511 111.345 65.3286 121.942C65.6061 132.539 83.8943 140.657 106.177 140.073Z" fill="#2B1010"/>
<path opacity="0.69" d="M106.153 139.198C127.414 138.642 144.435 129.993 144.17 119.882C143.905 109.771 126.455 102.026 105.195 102.582C83.934 103.139 66.9134 111.787 67.1781 121.899C67.4429 132.01 84.8927 139.755 106.153 139.198Z" fill="#291111"/>
<path opacity="0.73" d="M106.13 138.316C126.37 137.786 142.573 129.553 142.321 119.927C142.069 110.302 125.457 102.929 105.217 103.459C84.9767 103.989 68.7732 112.222 69.0252 121.847C69.2772 131.472 85.8894 138.846 106.13 138.316Z" fill="#271212"/>
<path opacity="0.77" d="M106.11 137.433C125.329 136.93 140.715 129.113 140.475 119.973C140.236 110.833 124.462 103.832 105.243 104.336C86.0247 104.839 70.6388 112.656 70.8781 121.796C71.1174 130.935 86.8913 137.936 106.11 137.433Z" fill="#251212"/>
<path opacity="0.81" d="M106.082 136.553C124.279 136.077 138.847 128.675 138.62 120.02C138.394 111.365 123.458 104.736 105.261 105.212C87.0638 105.689 72.4957 113.091 72.7223 121.746C72.9489 130.4 87.8844 137.03 106.082 136.553Z" fill="#231313"/>
<path opacity="0.85" d="M106.061 135.679C123.237 135.229 136.988 128.242 136.775 120.073C136.561 111.904 122.463 105.647 105.286 106.097C88.1095 106.546 74.3585 113.533 74.5723 121.702C74.7862 129.871 88.8841 136.128 106.061 135.679Z" fill="#211414"/>
<path opacity="0.88" d="M106.038 134.804C122.193 134.381 135.127 127.809 134.925 120.126C134.724 112.443 121.465 106.558 105.31 106.981C89.1545 107.404 76.2212 113.975 76.4224 121.658C76.6235 129.341 89.883 135.227 106.038 134.804Z" fill="#1F1515"/>
<path opacity="0.92" d="M106.014 133.921C121.149 133.525 133.265 127.369 133.077 120.172C132.888 112.974 120.466 107.461 105.332 107.858C90.1972 108.254 78.081 114.41 78.2694 121.607C78.4579 128.804 90.8797 134.317 106.014 133.921Z" fill="#1D1616"/>
<path opacity="0.96" d="M105.986 133.041C120.099 132.672 131.398 126.931 131.222 120.218C131.046 113.506 119.463 108.365 105.35 108.734C91.2364 109.104 79.9379 114.845 80.1136 121.557C80.2894 128.269 91.8728 133.411 105.986 133.041Z" fill="#1B1717"/>
<path d="M105.966 132.166C119.058 131.824 129.538 126.498 129.375 120.272C129.212 114.045 118.467 109.276 105.375 109.619C92.2838 109.961 81.8031 115.287 81.9661 121.513C82.1291 127.74 92.8742 132.509 105.966 132.166Z" fill="#191818"/>
</g>
<path d="M215.809 63.0215C196.965 75.7136 178.514 76.9281 170.59 93.6633L147.078 96.4395L120.265 99.6074H120.253C110.572 100.005 100.324 112.364 98.9735 128.354C98.092 138.806 93.7084 145.305 88.9015 147.173C88.4306 147.355 87.9614 147.493 87.4842 147.585C87.4588 147.592 87.4382 147.598 87.4128 147.598C80.5417 148.892 73.4677 140.785 74.8914 121.384C77.4249 86.8503 101.507 89.0637 126.217 72.4141C150.932 55.7709 126.217 34.2475 126.217 34.2475L215.811 26.553C215.811 26.553 239.422 47.1156 215.811 63.0215H215.809Z" fill="url(#paint3_linear_1442_49451)"/>
<path d="M152.78 91.7083L107.072 95.5275C106.403 95.583 105.856 95.082 105.856 94.4114C105.856 93.7423 106.403 93.1478 107.072 93.0923L152.78 89.2731C153.449 89.2176 153.996 89.7186 153.996 90.3892C153.996 91.0583 153.449 91.6528 152.78 91.7083Z" fill="#DADADA"/>
<path d="M137.166 106.092L91.4572 109.912C90.7882 109.967 90.2412 109.466 90.2412 108.795C90.2412 108.126 90.7882 107.532 91.4572 107.476L137.166 103.657C137.835 103.602 138.382 104.103 138.382 104.773C138.382 105.442 137.835 106.037 137.166 106.092Z" fill="#DADADA"/>
<path d="M137.166 115.656L91.4572 119.475C90.7882 119.53 90.2412 119.029 90.2412 118.359C90.2412 117.69 90.7882 117.095 91.4572 117.04L137.166 113.22C137.835 113.165 138.382 113.666 138.382 114.336C138.382 115.006 137.835 115.6 137.166 115.656Z" fill="#DADADA"/>
<path d="M135.832 125.82L90.1237 129.64C89.4547 129.695 88.9077 129.194 88.9077 128.524C88.9077 127.855 89.4547 127.26 90.1237 127.205L135.832 123.385C136.501 123.33 137.048 123.831 137.048 124.501C137.048 125.17 136.501 125.765 135.832 125.82Z" fill="#DADADA"/>
<g opacity="0.18" filter="url(#filter4_f_1442_49451)">
<path opacity="0.04" d="M381.201 293.054C419.821 292.043 450.738 276.334 450.257 257.967C449.777 239.601 418.079 225.531 379.46 226.543C340.84 227.554 309.923 243.263 310.404 261.63C310.885 279.997 342.582 294.066 381.201 293.054Z" fill="#4A0101"/>
<path opacity="0.08" d="M381.181 292.172C418.779 291.187 448.88 275.894 448.412 258.013C447.943 240.132 417.084 226.435 379.485 227.419C341.886 228.404 311.786 243.697 312.254 261.578C312.722 279.459 343.582 293.156 381.181 292.172Z" fill="#480202"/>
<path opacity="0.12" d="M381.158 291.292C417.735 290.334 447.018 275.456 446.562 258.06C446.107 240.664 416.086 227.338 379.508 228.296C342.931 229.254 313.648 244.132 314.104 261.528C314.559 278.924 344.58 292.25 381.158 291.292Z" fill="#460303"/>
<path opacity="0.15" d="M381.127 290.41C416.683 289.478 445.148 275.015 444.705 258.105C444.262 241.195 415.079 228.241 379.523 229.172C343.967 230.104 315.502 244.567 315.945 261.477C316.388 278.387 345.571 291.341 381.127 290.41Z" fill="#440404"/>
<path opacity="0.19" d="M381.108 289.527C415.644 288.622 443.291 274.575 442.861 258.15C442.431 241.726 414.086 229.145 379.551 230.049C345.016 230.953 317.368 245.001 317.798 261.425C318.228 277.85 346.573 290.431 381.108 289.527Z" fill="#420505"/>
<path opacity="0.23" d="M381.083 288.66C414.597 287.782 441.427 274.15 441.009 258.211C440.592 242.273 413.085 230.064 379.572 230.941C346.058 231.819 319.227 245.451 319.645 261.39C320.062 277.328 347.569 289.537 381.083 288.66Z" fill="#400606"/>
<path opacity="0.27" d="M381.062 287.761C413.555 286.91 439.568 273.694 439.164 258.241C438.759 242.788 412.09 230.951 379.597 231.802C347.103 232.653 321.09 245.87 321.495 261.322C321.899 276.775 348.568 288.612 381.062 287.761Z" fill="#3E0606"/>
<path opacity="0.31" d="M381.045 286.897C412.517 286.073 437.712 273.271 437.32 258.304C436.929 243.336 411.098 231.87 379.626 232.694C348.154 233.519 322.959 246.321 323.351 261.288C323.743 276.256 349.573 287.722 381.045 286.897Z" fill="#3C0707"/>
<path opacity="0.35" d="M381.014 286.015C411.464 285.217 435.842 272.831 435.463 258.349C435.083 243.867 410.091 232.774 379.641 233.571C349.19 234.368 324.813 246.755 325.192 261.237C325.571 275.719 350.564 286.812 381.014 286.015Z" fill="#3A0808"/>
<path opacity="0.38" d="M380.996 285.124C410.426 284.354 433.986 272.383 433.62 258.387C433.253 244.39 409.099 233.669 379.669 234.44C350.239 235.211 326.678 247.181 327.045 261.178C327.411 275.174 351.566 285.895 380.996 285.124Z" fill="#380909"/>
<path opacity="0.42" d="M380.976 284.249C409.384 283.505 432.127 271.95 431.773 258.44C431.419 244.93 408.103 234.58 379.695 235.324C351.286 236.068 328.544 247.624 328.897 261.134C329.251 274.644 352.567 284.993 380.976 284.249Z" fill="#360A0A"/>
<path opacity="0.46" d="M380.952 283.378C408.34 282.66 430.265 271.52 429.924 258.494C429.583 245.469 407.105 235.491 379.717 236.209C352.329 236.926 330.403 248.066 330.744 261.092C331.086 274.117 353.564 284.095 380.952 283.378Z" fill="#340B0B"/>
<path opacity="0.5" d="M380.927 282.503C407.293 281.812 428.401 271.087 428.072 258.548C427.744 246.008 406.104 236.403 379.738 237.093C353.371 237.784 332.263 248.509 332.592 261.048C332.92 273.588 354.56 283.193 380.927 282.503Z" fill="#330C0C"/>
<path opacity="0.54" d="M380.903 281.612C406.248 280.948 426.539 270.639 426.224 258.585C425.908 246.531 405.105 237.298 379.76 237.962C354.414 238.626 334.123 248.935 334.439 260.989C334.754 273.043 355.557 282.276 380.903 281.612Z" fill="#310D0D" fill-opacity="0.5"/>
<path opacity="0.58" d="M380.88 280.737C405.204 280.1 424.678 270.206 424.375 258.638C424.072 247.071 404.108 238.209 379.783 238.846C355.459 239.483 335.986 249.377 336.289 260.945C336.592 272.513 356.556 281.374 380.88 280.737Z" fill="#2F0E0E"/>
<path opacity="0.62" d="M380.858 279.865C404.16 279.255 422.816 269.776 422.526 258.693C422.235 247.61 403.11 239.12 379.807 239.731C356.504 240.341 337.849 249.82 338.139 260.903C338.429 271.986 357.555 280.476 380.858 279.865Z" fill="#2D0F0F"/>
<path opacity="0.65" d="M380.837 278.975C403.119 278.391 420.957 269.328 420.68 258.731C420.402 248.134 402.114 240.016 379.832 240.6C357.55 241.183 339.711 250.247 339.989 260.844C340.266 271.441 358.554 279.559 380.837 278.975Z" fill="#2B1010"/>
<path opacity="0.69" d="M380.814 278.1C402.074 277.543 419.095 268.895 418.83 258.784C418.566 248.673 401.116 240.927 379.855 241.484C358.594 242.041 341.574 250.689 341.838 260.8C342.103 270.911 359.553 278.657 380.814 278.1Z" fill="#291111"/>
<path opacity="0.73" d="M380.79 277.217C401.03 276.687 417.233 268.455 416.981 258.829C416.729 249.204 400.117 241.831 379.877 242.361C359.637 242.891 343.433 251.123 343.685 260.749C343.937 270.374 360.55 277.747 380.79 277.217Z" fill="#271212"/>
<path opacity="0.77" d="M380.77 276.335C399.989 275.831 415.375 268.014 415.135 258.875C414.896 249.735 399.122 242.734 379.904 243.237C360.685 243.74 345.299 251.558 345.538 260.697C345.778 269.837 361.551 276.838 380.77 276.335Z" fill="#251212"/>
<path opacity="0.81" d="M380.742 275.455C398.939 274.979 413.507 267.576 413.281 258.922C413.054 250.267 398.118 243.637 379.921 244.114C361.724 244.59 347.156 251.993 347.382 260.647C347.609 269.302 362.545 275.932 380.742 275.455Z" fill="#231313"/>
<path opacity="0.85" d="M380.721 274.58C397.898 274.13 411.649 267.144 411.435 258.975C411.221 250.806 397.123 244.548 379.946 244.998C362.77 245.448 349.019 252.435 349.233 260.604C349.446 268.773 363.544 275.03 380.721 274.58Z" fill="#211414"/>
<path opacity="0.88" d="M380.698 273.705C396.854 273.282 409.787 266.711 409.586 259.028C409.384 251.345 396.125 245.46 379.97 245.883C363.815 246.306 350.881 252.877 351.083 260.56C351.284 268.243 364.543 274.128 380.698 273.705Z" fill="#1F1515"/>
<path opacity="0.92" d="M380.674 272.815C395.809 272.418 407.925 266.263 407.737 259.065C407.548 251.868 395.127 246.355 379.992 246.751C364.857 247.148 352.741 253.304 352.93 260.501C353.118 267.698 365.54 273.211 380.674 272.815Z" fill="#1D1616"/>
<path opacity="0.96" d="M380.652 271.943C394.765 271.573 406.064 265.832 405.888 259.12C405.712 252.408 394.129 247.266 380.016 247.636C365.902 248.005 354.604 253.746 354.78 260.459C354.955 267.171 366.539 272.313 380.652 271.943Z" fill="#1B1717"/>
<path d="M380.632 271.068C393.724 270.725 404.204 265.4 404.041 259.173C403.878 252.947 393.133 248.177 380.042 248.52C366.95 248.863 356.469 254.189 356.632 260.415C356.795 266.641 367.54 271.411 380.632 271.068Z" fill="#191818"/>
</g>
<g opacity="0.18" filter="url(#filter5_f_1442_49451)">
<path opacity="0.04" d="M208.358 218.22C246.977 217.209 277.895 201.5 277.414 183.133C276.933 164.766 245.236 150.697 206.616 151.708C167.997 152.72 137.079 168.429 137.56 186.796C138.041 205.162 169.738 219.232 208.358 218.22Z" fill="#4A0101"/>
<path opacity="0.08" d="M208.337 217.338C245.936 216.353 276.036 201.059 275.568 183.179C275.1 165.298 244.24 151.6 206.641 152.585C169.042 153.57 138.942 168.863 139.41 186.744C139.878 204.625 170.738 218.322 208.337 217.338Z" fill="#480202"/>
<path opacity="0.12" d="M208.314 216.458C244.891 215.5 274.174 200.621 273.718 183.225C273.263 165.829 243.242 152.504 206.664 153.462C170.087 154.42 140.804 169.298 141.26 186.694C141.715 204.09 171.736 217.416 208.314 216.458Z" fill="#460303"/>
<path opacity="0.15" d="M208.283 215.575C243.839 214.644 272.304 200.181 271.861 183.271C271.418 166.361 242.236 153.407 206.68 154.338C171.124 155.269 142.659 169.733 143.102 186.643C143.544 203.553 172.727 216.507 208.283 215.575Z" fill="#440404"/>
<path opacity="0.19" d="M208.264 214.693C242.8 213.788 270.448 199.741 270.018 183.316C269.588 166.892 241.243 154.31 206.707 155.215C172.172 156.119 144.524 170.167 144.954 186.591C145.384 203.016 173.729 215.597 208.264 214.693Z" fill="#420505"/>
<path opacity="0.23" d="M208.239 213.826C241.753 212.948 268.583 199.316 268.166 183.377C267.748 167.439 240.242 155.229 206.728 156.107C173.214 156.985 146.384 170.617 146.801 186.556C147.218 202.494 174.725 214.703 208.239 213.826Z" fill="#400606"/>
<path opacity="0.27" d="M208.218 212.927C240.711 212.076 266.724 198.86 266.32 183.407C265.915 167.954 239.246 156.117 206.753 156.968C174.259 157.819 148.246 171.036 148.651 186.488C149.056 201.941 175.725 213.778 208.218 212.927Z" fill="#3E0606"/>
<path opacity="0.31" d="M208.201 212.063C239.673 211.239 264.869 198.437 264.477 183.47C264.085 168.502 238.254 157.036 206.782 157.86C175.31 158.685 150.115 171.486 150.507 186.454C150.899 201.422 176.73 212.888 208.201 212.063Z" fill="#3C0707"/>
<path opacity="0.35" d="M208.17 211.181C238.621 210.383 262.998 197.997 262.619 183.515C262.24 169.033 237.247 157.94 206.797 158.737C176.347 159.534 151.969 171.921 152.348 186.403C152.727 200.885 177.72 211.978 208.17 211.181Z" fill="#3A0808"/>
<path opacity="0.38" d="M208.152 210.29C237.582 209.519 261.142 197.549 260.776 183.552C260.409 169.556 236.255 158.835 206.825 159.606C177.395 160.376 153.835 172.347 154.201 186.343C154.568 200.34 178.722 211.061 208.152 210.29Z" fill="#380909"/>
<path opacity="0.42" d="M208.132 209.415C236.54 208.671 259.283 197.116 258.929 183.606C258.576 170.095 235.259 159.746 206.851 160.49C178.443 161.234 155.7 172.79 156.054 186.3C156.407 199.81 179.724 210.159 208.132 209.415Z" fill="#360A0A"/>
<path opacity="0.46" d="M208.105 208.543C235.493 207.826 257.419 196.686 257.078 183.66C256.737 170.635 234.258 160.657 206.87 161.375C179.482 162.092 157.557 173.232 157.898 186.258C158.239 199.283 180.718 209.261 208.105 208.543Z" fill="#340B0B"/>
<path opacity="0.5" d="M208.083 207.661C234.449 206.97 255.557 196.245 255.229 183.706C254.9 171.166 233.26 161.561 206.894 162.251C180.527 162.942 159.419 173.667 159.748 186.206C160.076 198.746 181.716 208.351 208.083 207.661Z" fill="#330C0C"/>
<path opacity="0.54" d="M208.059 206.778C233.405 206.114 253.695 195.805 253.38 183.751C253.064 171.697 232.262 162.464 206.916 163.128C181.57 163.792 161.279 174.101 161.595 186.155C161.911 198.208 182.713 207.442 208.059 206.778Z" fill="#310D0D"/>
<path opacity="0.58" d="M208.036 205.903C232.361 205.266 251.834 195.372 251.531 183.804C251.228 172.236 231.264 163.375 206.939 164.012C182.615 164.649 163.142 174.543 163.445 186.111C163.748 197.679 183.712 206.54 208.036 205.903Z" fill="#2F0E0E"/>
<path opacity="0.62" d="M208.011 205.031C231.314 204.421 249.969 194.942 249.679 183.859C249.389 172.776 230.263 164.286 206.96 164.897C183.657 165.507 165.002 174.986 165.292 186.069C165.582 197.152 184.708 205.642 208.011 205.031Z" fill="#2D0F0F"/>
<path opacity="0.65" d="M207.99 204.141C230.272 203.557 248.111 194.494 247.833 183.897C247.556 173.3 229.267 165.182 206.985 165.765C184.703 166.349 166.865 175.413 167.142 186.01C167.42 196.607 185.708 204.724 207.99 204.141Z" fill="#2B1010"/>
<path opacity="0.69" d="M207.967 203.266C229.228 202.709 246.249 194.061 245.984 183.95C245.719 173.838 228.269 166.093 207.009 166.65C185.748 167.207 168.727 175.855 168.992 185.966C169.257 196.077 186.707 203.823 207.967 203.266Z" fill="#291111"/>
<path opacity="0.73" d="M207.941 202.383C228.181 201.853 244.384 193.621 244.132 183.995C243.88 174.37 227.268 166.996 207.028 167.526C186.788 168.057 170.584 176.289 170.836 185.915C171.088 195.54 187.7 202.913 207.941 202.383Z" fill="#271212"/>
<path opacity="0.77" d="M207.926 201.501C227.145 200.997 242.531 193.18 242.292 184.041C242.052 174.901 226.278 167.9 207.06 168.403C187.841 168.906 172.455 176.724 172.695 185.863C172.934 195.003 188.708 202.004 207.926 201.501Z" fill="#251212"/>
<path opacity="0.81" d="M207.898 200.621C226.095 200.144 240.663 192.742 240.437 184.087C240.21 175.433 225.275 168.803 207.077 169.28C188.88 169.756 174.312 177.159 174.539 185.813C174.765 194.468 189.701 201.098 207.898 200.621Z" fill="#231313"/>
<path opacity="0.85" d="M207.877 199.746C225.054 199.296 238.805 192.31 238.591 184.141C238.377 175.972 224.279 169.714 207.103 170.164C189.926 170.614 176.175 177.601 176.389 185.77C176.603 193.938 190.7 200.196 207.877 199.746Z" fill="#211414"/>
<path opacity="0.88" d="M207.855 198.871C224.01 198.448 236.943 191.877 236.742 184.194C236.541 176.511 223.281 170.625 207.126 171.049C190.971 171.472 178.038 178.043 178.239 185.726C178.44 193.409 191.699 199.294 207.855 198.871Z" fill="#1F1515"/>
<path opacity="0.92" d="M207.831 197.989C222.965 197.592 235.082 191.436 234.893 184.239C234.705 177.042 222.283 171.529 207.148 171.925C192.014 172.322 179.897 178.477 180.086 185.674C180.274 192.872 192.696 198.385 207.831 197.989Z" fill="#1D1616"/>
<path opacity="0.96" d="M207.808 197.109C221.921 196.739 233.22 190.998 233.044 184.286C232.868 177.574 221.285 172.432 207.172 172.802C193.059 173.171 181.76 178.912 181.936 185.625C182.112 192.337 193.695 197.479 207.808 197.109Z" fill="#1B1717"/>
<path d="M207.782 196.234C220.874 195.891 231.355 190.566 231.192 184.339C231.029 178.113 220.284 173.343 207.192 173.686C194.1 174.029 183.619 179.355 183.782 185.581C183.946 191.807 194.691 196.577 207.782 196.234Z" fill="#191818"/>
</g>
<path d="M346.635 217.745C346.308 217.85 345.982 217.98 345.668 218.124L345.649 218.131C336.504 222.318 331.456 241.568 313.789 251.293C312.815 251.829 311.823 252.286 310.803 252.671H310.797C288.976 260.914 257.748 234.944 245.038 210.422C238.467 197.743 235.757 183.98 232.1 172.745C228.357 161.242 223.621 152.392 212.721 150.079C211.604 149.844 210.534 149.739 209.514 149.758L235.282 145.904L292.178 137.399L295.392 136.916C296.365 136.897 297.385 136.993 298.455 137.223C319.043 141.593 316.619 170.354 329.337 194.876C333.432 202.78 339.539 210.84 346.638 217.745H346.635Z" fill="url(#paint4_linear_1442_49451)"/>
<path d="M235.271 145.908L209.503 149.762C208.327 149.775 207.211 149.944 206.153 150.265H206.134C192.732 154.197 187.749 179.796 174.978 184.271C172.732 185.068 170.236 185.198 167.408 184.44C150.08 179.784 145.417 157.398 139.813 132.778C139.779 132.654 139.754 132.523 139.721 132.393C138.486 126.978 137.2 121.457 135.724 115.997C132.498 104.082 126.502 99.3662 120.263 99.6072L147.075 96.4394L170.588 93.6631L208.432 89.1951C214.97 87.9806 221.514 92.206 224.885 104.663C228.785 119.073 231.279 133.927 235.271 145.908Z" fill="url(#paint5_linear_1442_49451)"/>
<path d="M295.385 136.921L292.171 137.405C293.191 137.097 294.255 136.934 295.385 136.921Z" fill="url(#paint6_linear_1442_49451)"/>
<path d="M346.952 217.654L346.637 217.759H346.63V217.753C346.735 217.719 346.847 217.688 346.952 217.654Z" fill="url(#paint7_linear_1442_49451)"/>
<path d="M447.084 251.194L368.28 269.359C363.297 261.533 363.812 248.019 362.584 236.712C362.297 234.111 361.924 231.63 361.369 229.363C360.044 223.915 357.679 219.696 353.068 218.029C350.795 217.207 348.804 217.127 346.995 217.638L349.111 216.966L427.293 201.641V201.648C428.88 201.315 430.605 201.445 432.55 202.15C446.776 207.291 438.605 237.867 447.084 251.194Z" fill="url(#paint8_linear_1442_49451)"/>
<path d="M139.729 132.389L139.612 132.422L88.9077 147.172C93.7146 145.304 98.0982 138.805 98.9797 128.354C100.332 112.364 110.58 100.005 120.259 99.6067H120.272C126.508 99.3657 132.504 104.081 135.732 115.996C137.208 121.457 138.496 126.976 139.729 132.392V132.389Z" fill="url(#paint9_linear_1442_49451)"/>
<path d="M139.814 132.784L139.604 132.431L139.722 132.397C139.755 132.528 139.781 132.66 139.814 132.784Z" fill="url(#paint10_linear_1442_49451)"/>
<path d="M150.509 45.2446L212.171 39.765L214.44 46.5685L152.933 52.427L150.509 45.2446Z" fill="#DADADA"/>
<path d="M197.433 60.7215L151.725 64.5407C151.056 64.5962 150.509 64.0952 150.509 63.4246C150.509 62.7555 151.056 62.161 151.725 62.1055L197.433 58.2863C198.102 58.2308 198.649 58.7318 198.649 59.4024C198.649 60.0715 198.102 60.666 197.433 60.7215Z" fill="#DADADA"/>
<path d="M192.07 68.8705L146.362 72.6897C145.692 72.7452 145.146 72.2442 145.146 71.5736C145.146 70.9046 145.692 70.31 146.362 70.2546L192.07 66.4354C192.739 66.3799 193.286 66.8808 193.286 67.5515C193.286 68.2205 192.739 68.815 192.07 68.8705Z" fill="#DADADA"/>
<path d="M178.411 78.1369L132.703 81.9561C132.034 82.0116 131.487 81.5106 131.487 80.84C131.487 80.1709 132.034 79.5764 132.703 79.5209L178.411 75.7017C179.08 75.6462 179.627 76.1472 179.627 76.8178C179.627 77.4869 179.08 78.0814 178.411 78.1369Z" fill="#DADADA"/>
<path d="M197.832 128L152.124 131.819C151.455 131.875 150.908 131.374 150.908 130.703C150.908 130.034 151.455 129.44 152.124 129.384L197.832 125.565C198.501 125.51 199.048 126.011 199.048 126.681C199.048 127.35 198.501 127.945 197.832 128Z" fill="#DADADA"/>
<path d="M297.131 156.108L251.827 163.439C251.164 163.546 250.622 163.085 250.622 162.416C250.622 161.747 251.164 161.111 251.827 161.003L297.131 153.672C297.794 153.565 298.336 154.026 298.336 154.695C298.336 155.364 297.794 156 297.131 156.108Z" fill="#DADADA"/>
<path d="M399.848 217.671L370.546 224.051C370.118 224.144 369.766 223.672 369.766 223.003C369.766 222.334 370.116 221.709 370.546 221.616L399.848 215.236C400.277 215.143 400.628 215.615 400.628 216.284C400.628 216.953 400.278 217.578 399.848 217.671Z" fill="#DADADA"/>
<path d="M401.406 225.086L372.103 231.466C371.675 231.559 371.323 231.087 371.323 230.418C371.323 229.749 371.673 229.124 372.103 229.03L401.406 222.651C401.834 222.557 402.186 223.03 402.186 223.699C402.186 224.368 401.836 224.992 401.406 225.086Z" fill="#DADADA"/>
<path d="M402.955 232.508L373.652 238.888C373.224 238.982 372.872 238.509 372.872 237.84C372.872 237.171 373.222 236.546 373.652 236.453L402.955 230.073C403.383 229.98 403.735 230.452 403.735 231.121C403.735 231.79 403.385 232.415 402.955 232.508Z" fill="#DADADA"/>
<path d="M404.513 239.931L375.21 246.31C374.782 246.404 374.43 245.932 374.43 245.263C374.43 244.594 374.78 243.969 375.21 243.875L404.513 237.496C404.941 237.402 405.293 237.875 405.293 238.544C405.293 239.213 404.942 239.837 404.513 239.931Z" fill="#DADADA"/>
<path d="M406.073 247.353L376.77 253.733C376.342 253.827 375.99 253.354 375.99 252.685C375.99 252.016 376.34 251.391 376.77 251.298L406.073 244.918C406.501 244.825 406.853 245.297 406.853 245.966C406.853 246.635 406.502 247.26 406.073 247.353Z" fill="#DADADA"/>
<path d="M299.383 164.569L254.078 171.9C253.416 172.008 252.874 171.547 252.874 170.878C252.874 170.209 253.416 169.573 254.078 169.465L299.383 162.134C300.045 162.026 300.588 162.488 300.588 163.157C300.588 163.826 300.045 164.462 299.383 164.569Z" fill="#DADADA"/>
<path d="M301.637 173.023L256.333 180.354C255.67 180.462 255.128 180 255.128 179.331C255.128 178.662 255.67 178.027 256.333 177.919L301.637 170.588C302.3 170.48 302.842 170.941 302.842 171.61C302.842 172.28 302.3 172.915 301.637 173.023Z" fill="#DADADA"/>
<path d="M200.347 136.712L154.639 140.531C153.97 140.587 153.423 140.086 153.423 139.415C153.423 138.746 153.97 138.151 154.639 138.096L200.347 134.277C201.016 134.221 201.563 134.722 201.563 135.393C201.563 136.062 201.016 136.656 200.347 136.712Z" fill="#DADADA"/>
<path d="M202.849 145.423L157.14 149.243C156.471 149.298 155.924 148.797 155.924 148.127C155.924 147.458 156.471 146.863 157.14 146.808L202.849 142.988C203.518 142.933 204.065 143.434 204.065 144.104C204.065 144.773 203.518 145.368 202.849 145.423Z" fill="#DADADA"/>
<path d="M205.347 154.135L159.638 157.954C158.969 158.01 158.422 157.509 158.422 156.838C158.422 156.169 158.969 155.575 159.638 155.519L205.347 151.7C206.016 151.645 206.563 152.146 206.563 152.816C206.563 153.485 206.016 154.08 205.347 154.135Z" fill="#DADADA"/>
<path d="M209.294 162.855L163.585 166.674C162.916 166.729 162.369 166.228 162.369 165.558C162.369 164.889 162.916 164.294 163.585 164.239L209.294 160.419C209.963 160.364 210.51 160.865 210.51 161.536C210.51 162.205 209.963 162.799 209.294 162.855Z" fill="#DADADA"/>
<path d="M235.937 132.064C229.451 140.301 219 145.292 206.583 144.88C183.755 144.115 162.92 125.381 160.039 103.043C157.165 80.6963 173.344 63.1969 196.172 63.9547C197.922 64.0134 199.66 64.1767 201.377 64.4447C214.597 66.463 226.7 74.3478 234.413 85.1516C238.783 91.2717 241.749 98.3336 242.708 105.793C244.021 115.984 241.368 125.161 235.935 132.066L235.937 132.064Z" fill="#83CFFF"/>
<path d="M240.253 128.681C233.768 136.918 223.317 141.909 210.9 141.496C188.072 140.732 167.237 121.998 164.356 99.6594C161.482 77.3131 177.661 59.8137 200.489 60.5716C202.239 60.6302 203.976 60.7935 205.693 61.0615C218.914 63.0799 231.017 70.9646 238.73 81.7684C243.099 87.8885 246.065 94.9504 247.025 102.41C248.337 112.6 245.685 121.777 240.252 128.682L240.253 128.681Z" fill="#2D99FF"/>
<path d="M240.256 128.673L205.698 101.023L238.734 81.7605C243.104 87.8806 246.07 94.9425 247.029 102.402C248.342 112.593 245.689 121.77 240.256 128.674V128.673Z" fill="#FF8F6D"/>
<path d="M238.734 81.7704L205.698 101.033V61.0635C218.918 63.0818 231.021 70.9666 238.734 81.7704Z" fill="#2CD9C5"/>
<path d="M212.853 171.566L167.145 175.385C166.476 175.441 165.929 174.94 165.929 174.269C165.929 173.6 166.476 173.006 167.145 172.95L212.853 169.131C213.522 169.076 214.069 169.577 214.069 170.247C214.069 170.916 213.522 171.511 212.853 171.566Z" fill="#DADADA"/>
<path d="M232.093 172.747L174.981 184.269C187.75 179.795 192.734 154.195 206.137 150.263H206.156L209.506 149.76C210.525 149.741 211.596 149.846 212.713 150.081C223.614 152.392 228.35 161.244 232.092 172.747H232.093Z" fill="url(#paint11_linear_1442_49451)"/>
<path d="M341.35 221.353C320.776 210.707 313.065 182.519 313.065 182.519L255.128 194.218C255.128 194.218 264.918 224.368 296.746 244.409L349.738 225.573L341.35 221.353Z" stroke="#D8D8D8" stroke-width="3" stroke-miterlimit="10"/>
<path d="M362.583 236.71L310.795 252.674C311.814 252.289 312.807 251.832 313.78 251.296C331.448 241.571 336.497 222.32 345.64 218.134L345.659 218.127L346.626 217.755H346.633L346.947 217.65L346.993 217.637C348.802 217.129 350.794 217.206 353.066 218.029C357.678 219.695 360.042 223.915 361.367 229.362C361.922 231.63 362.295 234.111 362.582 236.711L362.583 236.71Z" fill="url(#paint12_linear_1442_49451)"/>
<path d="M368.077 269.485C365.09 264.279 363.998 254.827 362.94 245.687C361.719 235.132 360.457 224.219 356.285 220.198C354.414 218.395 352.332 217.583 350.102 217.786C344.104 218.332 338.015 225.912 333.958 231.566C333.518 232.178 333.038 232.88 332.482 233.694C329.243 238.428 324.348 245.585 317.114 250.307C312.395 253.388 307.372 254.93 302.088 254.93C297.614 254.93 292.955 253.825 288.132 251.612C275.252 245.701 264.18 237.006 255.224 225.768C246.625 214.977 240.242 202.201 236.255 187.793C228.293 159.024 221.843 150.622 207.497 150.33C207.443 150.33 207.391 150.329 207.337 150.329C200.58 150.329 195.134 159.017 189.868 167.421C184.35 176.224 178.662 185.299 171.179 185.299C170.383 185.299 169.57 185.196 168.731 184.98C152.761 180.863 147.818 163.533 142.093 143.47L141.718 142.152C140.379 137.469 139.278 133.005 138.212 128.688C134.701 114.455 131.926 103.212 124.216 100.415C120.746 99.1562 117.182 99.4828 113.91 101.362C106.997 105.329 101.68 115.776 98.9341 130.779C97.9052 136.398 96.0043 140.922 93.4344 143.86C91.1165 146.509 88.2803 147.814 85.4487 147.532C82.427 147.231 79.6621 145.201 77.6629 141.819C75.4814 138.127 74.3811 133.131 74.4842 127.375C74.6919 115.766 76.9352 107.234 81.5455 100.524C85.7325 94.4297 91.9869 89.6097 101.821 84.896C103.354 84.1619 104.848 83.4532 106.3 82.7635C121.575 75.5161 132.611 70.2791 136.334 59.6402C138.423 53.6692 135.525 47.14 132.725 42.7148C129.676 37.8964 126.086 34.4638 126.051 34.4289L126.379 34.0848C126.415 34.1197 130.049 37.5936 133.128 42.4611C137.223 48.9348 138.488 54.9297 136.784 59.7972C135.03 64.8059 131.619 68.9362 126.047 72.7969C120.909 76.358 114.233 79.5258 106.504 83.1931C105.052 83.8828 103.559 84.59 102.027 85.3257C85.2157 93.3833 75.3974 102.847 74.9598 127.385C74.8583 133.053 75.9348 137.962 78.0719 141.578C79.9918 144.827 82.6283 146.774 85.4963 147.061C90.0131 147.511 96.1232 143.497 98.4648 130.697C101.236 115.554 106.636 104.989 113.672 100.953C117.069 99.0039 120.771 98.6646 124.376 99.9711C132.326 102.854 135.127 114.206 138.674 128.577C139.737 132.89 140.838 137.348 142.174 142.024L142.55 143.341C148.235 163.265 153.143 180.473 168.848 184.522C177.232 186.683 183.45 176.764 189.463 167.169C192.147 162.886 194.923 158.456 197.842 155.212C201.144 151.542 204.301 149.794 207.505 149.855C215.266 150.012 220.434 152.534 224.791 158.29C228.979 163.823 232.545 172.609 236.711 187.666C244.852 217.086 263.184 239.641 288.327 251.179C312.387 262.219 325.691 242.771 332.084 233.424C332.642 232.608 333.124 231.904 333.566 231.287C337.678 225.557 343.863 217.874 350.054 217.311C352.431 217.095 354.636 217.95 356.611 219.854C360.906 223.994 362.179 234.994 363.409 245.631C364.46 254.724 365.548 264.126 368.486 269.248L368.074 269.484L368.077 269.485Z" fill="url(#paint13_linear_1442_49451)"/>
<path d="M260.067 205.111L316.792 192.449" stroke="#D8D8D8" stroke-width="3" stroke-miterlimit="10"/>
<path d="M263.885 192.449C263.885 192.449 276.638 224.732 305.753 241.207" stroke="#D8D8D8" stroke-width="3" stroke-miterlimit="10"/>
<path d="M286.851 187.808C286.851 187.808 303.456 223.603 326.825 233.714" stroke="#D8D8D8" stroke-width="3" stroke-miterlimit="10"/>
<path d="M314.568 187.011L289.214 192.443" stroke="#D8D8D8" stroke-width="3" stroke-miterlimit="10"/>
<path d="M302.437 189.613C302.437 189.613 315.085 217.147 336.695 226.284" stroke="#D8D8D8" stroke-width="3" stroke-miterlimit="10"/>
<path d="M268.107 217.753L322.537 203.122" stroke="#D8D8D8" stroke-width="3" stroke-miterlimit="10"/>
<path d="M281.108 232.347L332.336 214.974" stroke="#D8D8D8" stroke-width="3" stroke-miterlimit="10"/>
<path d="M433.01 221.262C430.894 217.682 427.263 215.077 423.07 214.403C422.521 214.317 421.973 214.259 421.404 214.24C414.068 213.991 408.25 219.786 408.413 227.186C408.576 234.58 414.65 240.778 421.986 241.033C425.976 241.17 429.516 239.518 431.894 236.787C433.879 234.507 435.056 231.463 434.978 228.094C434.926 225.625 434.214 223.287 433.012 221.262H433.01ZM421.848 234.574C418.046 234.444 414.899 231.23 414.813 227.401C414.736 223.574 417.746 220.569 421.548 220.699C421.835 220.712 422.124 220.739 422.41 220.785C424.579 221.13 426.46 222.483 427.557 224.338C428.177 225.383 428.549 226.597 428.576 227.872C428.616 229.622 428.008 231.197 426.976 232.38C425.748 233.791 423.913 234.647 421.849 234.574H421.848Z" fill="#D0AEFF"/>
<path d="M434.974 228.09C435.052 231.461 433.877 234.505 431.891 236.783L426.973 232.374C428.005 231.191 428.612 229.617 428.572 227.866C428.547 226.593 428.174 225.377 427.553 224.332L433.007 221.256C434.208 223.281 434.92 225.619 434.973 228.088L434.974 228.09Z" fill="#FF8F6D"/>
<path d="M433.012 221.262L427.559 224.338C426.461 222.483 424.58 221.131 422.412 220.785L423.072 214.404C427.265 215.076 430.897 217.682 433.012 221.262Z" fill="url(#paint14_linear_1442_49451)"/>
<path d="M374.189 188.775C373.497 189.65 372.739 190.473 371.916 191.231C367.624 195.215 361.628 197.508 354.719 197.279C339.572 196.77 325.753 184.346 323.837 169.525C323.015 163.097 324.562 157.27 327.828 152.777C329.343 150.681 331.23 148.877 333.426 147.427C333.426 147.427 333.43 147.425 333.439 147.421C337.383 144.827 342.302 143.41 347.809 143.594C348.971 143.633 350.12 143.744 351.263 143.92C360.035 145.26 368.062 150.492 373.176 157.657C375.456 160.852 377.161 164.437 378.094 168.226C378.35 169.252 378.545 170.291 378.682 171.348C379.551 178.109 377.795 184.197 374.189 188.776V188.775Z" fill="#FF8F6D"/>
<path d="M377.049 186.532C375.613 188.354 373.888 189.943 371.916 191.229C367.978 193.808 363.066 195.213 357.579 195.037C342.439 194.528 328.619 182.098 326.705 167.282C326.203 163.39 326.575 159.718 327.666 156.433C328.828 152.932 330.808 149.869 333.427 147.425C333.427 147.425 333.432 147.423 333.44 147.419C337.738 143.428 343.747 141.121 350.676 141.351C351.839 141.391 352.988 141.502 354.131 141.678C362.897 143.018 370.924 148.242 376.044 155.415C378.037 158.204 379.591 161.288 380.571 164.554C381.021 166.036 381.347 167.558 381.544 169.107C382.419 175.868 380.656 181.956 377.051 186.535L377.049 186.532Z" fill="#FF8F6D"/>
<path opacity="0.2" d="M380.574 164.554C379.887 165.848 379.058 167.075 378.099 168.224C373.122 174.208 364.754 178.134 355.271 178.134C340.425 178.134 328.314 168.505 327.669 156.434C327.65 156.101 327.644 155.762 327.644 155.421C327.644 154.527 327.709 153.644 327.832 152.775C329.348 150.679 331.234 148.875 333.43 147.425C333.43 147.425 333.434 147.423 333.443 147.419C337.741 143.428 343.75 141.121 350.679 141.351C351.841 141.391 352.991 141.502 354.134 141.678C362.9 143.018 370.926 148.242 376.047 155.415C378.04 158.204 379.594 161.288 380.574 164.554Z" fill="white"/>
<path d="M353.624 161.524C353.624 166.312 351.108 168.689 348.172 168.689C345.236 168.689 342.894 166.417 342.859 161.838C342.859 157.294 345.34 154.743 348.346 154.743C351.527 154.743 353.624 157.189 353.624 161.524ZM345.306 161.733C345.236 164.635 346.319 166.837 348.242 166.837C350.269 166.837 351.178 164.67 351.178 161.664C351.178 158.902 350.374 156.595 348.242 156.595C346.32 156.595 345.306 158.867 345.306 161.733ZM347.963 178.232L361.315 154.743H363.273L349.921 178.232H347.963ZM368.41 170.926C368.41 175.715 365.894 178.093 362.992 178.093C360.091 178.093 357.715 175.821 357.68 171.277C357.68 166.698 360.161 164.147 363.167 164.147C366.347 164.147 368.41 166.593 368.41 170.928V170.926ZM360.091 171.136C360.056 174.037 361.174 176.239 363.062 176.239C365.09 176.239 365.998 174.072 365.998 171.066C365.998 168.304 365.194 165.997 363.062 165.997C361.139 165.997 360.091 168.269 360.091 171.136Z" fill="white"/>
<g opacity="0.6">
<path d="M317.037 53.0564L288.641 43.3379C288.229 43.1968 287.966 42.745 288.058 42.336C288.15 41.9254 288.562 41.705 288.974 41.8477L317.37 51.5661C317.782 51.7072 318.045 52.1591 317.954 52.5681C317.862 52.9787 317.449 53.1991 317.037 53.0564Z" fill="white"/>
<path d="M316.145 57.0646L287.749 47.3461C287.337 47.205 287.074 46.7532 287.166 46.3442C287.258 45.9335 287.67 45.7132 288.082 45.8558L316.478 55.5743C316.89 55.7154 317.154 56.1672 317.062 56.5763C316.97 56.9869 316.557 57.2073 316.145 57.0646Z" fill="white"/>
<path d="M315.247 61.0726L286.851 51.3542C286.439 51.2131 286.176 50.7612 286.268 50.3522C286.36 49.9416 286.772 49.7212 287.184 49.8639L315.58 59.5824C315.992 59.7235 316.256 60.1753 316.164 60.5843C316.072 60.9949 315.659 61.2153 315.247 61.0726Z" fill="white"/>
<path d="M314.35 65.0808L285.954 55.3624C285.542 55.2213 285.278 54.7694 285.37 54.3604C285.462 53.9498 285.875 53.7294 286.287 53.8721L314.683 63.5906C315.095 63.7317 315.358 64.1835 315.266 64.5925C315.174 65.0031 314.762 65.2235 314.35 65.0808Z" fill="white"/>
<path d="M305.003 66.205L285.056 59.3783C284.644 59.2372 284.38 58.7854 284.472 58.3764C284.564 57.9658 284.977 57.7454 285.389 57.8881L305.336 64.7148C305.748 64.8559 306.012 65.3077 305.92 65.7167C305.828 66.1274 305.415 66.3477 305.003 66.205Z" fill="white"/>
</g>
<path d="M299.01 33.9268L294.258 32.3968L296.264 21.3885L301.015 22.9186L299.01 33.9268Z" fill="white"/>
<path d="M306.677 36.4102L301.925 34.8786L304.825 18.9663L309.576 20.4979L306.677 36.4102Z" fill="white"/>
<path d="M314.339 38.8785L309.586 37.3484L313.344 16.7319L318.095 18.2635L314.339 38.8785Z" fill="white"/>
<path d="M322.004 41.3481L317.253 39.8165L319.677 26.5061L324.43 28.0377L322.004 41.3481Z" fill="white"/>
<g opacity="0.6">
<path d="M348.573 32.906L330.756 26.8403C330.387 26.7135 330.152 26.3108 330.235 25.943C330.317 25.5768 330.687 25.3786 331.055 25.5054L348.871 31.5711C349.241 31.698 349.475 32.1007 349.393 32.4685C349.31 32.8347 348.941 33.0329 348.573 32.906Z" fill="white"/>
<path d="M347.773 36.4923L329.956 30.4266C329.587 30.2998 329.352 29.8971 329.434 29.5293C329.517 29.1631 329.886 28.9649 330.254 29.0917L348.071 35.1574C348.44 35.2843 348.675 35.687 348.592 36.0548C348.51 36.421 348.141 36.6192 347.773 36.4923Z" fill="white"/>
<path d="M346.972 40.0863L329.156 34.0206C328.786 33.8938 328.552 33.4911 328.634 33.1233C328.717 32.7571 329.086 32.5589 329.454 32.6857L347.27 38.7514C347.64 38.8783 347.874 39.2809 347.792 39.6488C347.71 40.015 347.34 40.2132 346.972 40.0863Z" fill="white"/>
<path d="M346.175 43.6647L328.358 37.599C327.989 37.4722 327.754 37.0695 327.837 36.7017C327.919 36.3354 328.289 36.1373 328.656 36.2641L346.473 42.3298C346.843 42.4566 347.077 42.8593 346.995 43.2271C346.912 43.5934 346.543 43.7915 346.175 43.6647Z" fill="white"/>
<path d="M337.807 44.6637L327.55 41.1853C327.18 41.0585 326.946 40.6558 327.028 40.288C327.111 39.9217 327.48 39.7236 327.848 39.8504L338.105 43.3287C338.475 43.4556 338.709 43.8583 338.627 44.2261C338.545 44.5923 338.175 44.7905 337.807 44.6637Z" fill="white"/>
</g>
<path d="M330.687 53.0864C323.827 53.0864 318.267 58.6468 318.267 65.5074C318.267 72.3679 323.827 77.9283 330.687 77.9283C337.547 77.9283 343.107 72.3679 343.107 65.5074C343.107 58.6468 337.547 53.0864 330.687 53.0864ZM330.687 72.666C326.733 72.666 323.529 69.4617 323.529 65.5074C323.529 61.5531 326.733 58.3488 330.687 58.3488C334.641 58.3488 337.845 61.5531 337.845 65.5074C337.845 69.4617 334.641 72.666 330.687 72.666Z" fill="url(#paint15_linear_1442_49451)"/>
<path d="M151.363 204.492L201.699 189.599C204.499 188.771 207.484 190.106 208.734 192.746L229.312 236.243C230.793 239.373 229.217 243.096 225.938 244.211L177.24 260.762C173.528 262.024 169.465 260.259 167.853 256.687L147.799 212.275C146.382 209.136 148.062 205.469 151.363 204.492Z" fill="#D4FFFF"/>
<path d="M180.281 239.694L173.486 241.919L166.549 227.473L173.344 225.249L180.281 239.694Z" fill="#2CD9C5"/>
<path d="M191.242 236.106L184.447 238.33L174.419 217.449L181.213 215.224L191.242 236.106Z" fill="#2CD9C5"/>
<path d="M202.203 232.519L195.408 234.744L182.416 207.69L189.211 205.466L202.203 232.519Z" fill="#2CD9C5"/>
<path d="M213.168 228.924L206.373 231.149L197.985 213.683L204.78 211.458L213.168 228.924Z" fill="#2CD9C5"/>
<defs>
<filter id="filter0_f_1442_49451" x="164.444" y="45.9812" width="249.865" height="176.615" filterUnits="userSpaceOnUse" color-interpolation-filters="sRGB">
<feFlood flood-opacity="0" result="BackgroundImageFix"/>
<feBlend mode="normal" in="SourceGraphic" in2="BackgroundImageFix" result="shape"/>
<feGaussianBlur stdDeviation="27.5" result="effect1_foregroundBlur_1442_49451"/>
</filter>
<filter id="filter1_f_1442_49451" x="123.139" y="223.146" width="130.859" height="88.5109" filterUnits="userSpaceOnUse" color-interpolation-filters="sRGB">
<feFlood flood-opacity="0" result="BackgroundImageFix"/>
<feBlend mode="normal" in="SourceGraphic" in2="BackgroundImageFix" result="shape"/>
<feGaussianBlur stdDeviation="12.5" result="effect1_foregroundBlur_1442_49451"/>
</filter>
<filter id="filter2_f_1442_49451" x="271.19" y="144.539" width="150.859" height="108.511" filterUnits="userSpaceOnUse" color-interpolation-filters="sRGB">
<feFlood flood-opacity="0" result="BackgroundImageFix"/>
<feBlend mode="normal" in="SourceGraphic" in2="BackgroundImageFix" result="shape"/>
<feGaussianBlur stdDeviation="17.5" result="effect1_foregroundBlur_1442_49451"/>
</filter>
<filter id="filter3_f_1442_49451" x="0.738281" y="52.5895" width="209.865" height="136.615" filterUnits="userSpaceOnUse" color-interpolation-filters="sRGB">
<feFlood flood-opacity="0" result="BackgroundImageFix"/>
<feBlend mode="normal" in="SourceGraphic" in2="BackgroundImageFix" result="shape"/>
<feGaussianBlur stdDeviation="17.5" result="effect1_foregroundBlur_1442_49451"/>
</filter>
<filter id="filter4_f_1442_49451" x="290.398" y="206.491" width="179.865" height="106.615" filterUnits="userSpaceOnUse" color-interpolation-filters="sRGB">
<feFlood flood-opacity="0" result="BackgroundImageFix"/>
<feBlend mode="normal" in="SourceGraphic" in2="BackgroundImageFix" result="shape"/>
<feGaussianBlur stdDeviation="10" result="effect1_foregroundBlur_1442_49451"/>
</filter>
<filter id="filter5_f_1442_49451" x="92.5547" y="106.657" width="229.865" height="156.615" filterUnits="userSpaceOnUse" color-interpolation-filters="sRGB">
<feFlood flood-opacity="0" result="BackgroundImageFix"/>
<feBlend mode="normal" in="SourceGraphic" in2="BackgroundImageFix" result="shape"/>
<feGaussianBlur stdDeviation="22.5" result="effect1_foregroundBlur_1442_49451"/>
</filter>
<linearGradient id="paint0_linear_1442_49451" x1="323.293" y1="46.913" x2="312.764" y2="25.582" gradientUnits="userSpaceOnUse">
<stop stop-color="#8F8F8F"/>
<stop offset="0.3" stop-color="white"/>
<stop offset="0.8" stop-color="#515151"/>
<stop offset="1" stop-color="#727272"/>
</linearGradient>
<linearGradient id="paint1_linear_1442_49451" x1="271.273" y1="104.539" x2="322.386" y2="103.487" gradientUnits="userSpaceOnUse">
<stop stop-color="#EEEEEE"/>
<stop offset="1" stop-color="#727272"/>
</linearGradient>
<linearGradient id="paint2_linear_1442_49451" x1="290.267" y1="137.426" x2="290.161" y2="115.005" gradientUnits="userSpaceOnUse">
<stop stop-color="white"/>
<stop offset="1" stop-color="#EEEEEE"/>
</linearGradient>
<linearGradient id="paint3_linear_1442_49451" x1="145.849" y1="29.6971" x2="151.709" y2="101.976" gradientUnits="userSpaceOnUse">
<stop stop-color="#F1F1F1"/>
<stop offset="1" stop-color="#FDFDFD"/>
</linearGradient>
<linearGradient id="paint4_linear_1442_49451" x1="244.402" y1="125.93" x2="322.544" y2="247.822" gradientUnits="userSpaceOnUse">
<stop stop-color="#F1F1F1"/>
<stop offset="1" stop-color="#FDFDFD"/>
</linearGradient>
<linearGradient id="paint5_linear_1442_49451" x1="167.628" y1="83.8741" x2="187.947" y2="158.887" gradientUnits="userSpaceOnUse">
<stop stop-color="#F1F1F1"/>
<stop offset="1" stop-color="#FDFDFD"/>
</linearGradient>
<linearGradient id="paint6_linear_1442_49451" x1="292.171" y1="137.162" x2="295.385" y2="137.162" gradientUnits="userSpaceOnUse">
<stop stop-color="#EDEDED"/>
<stop offset="1" stop-color="white"/>
</linearGradient>
<linearGradient id="paint7_linear_1442_49451" x1="346.63" y1="217.707" x2="346.952" y2="217.707" gradientUnits="userSpaceOnUse">
<stop stop-color="#EDEDED"/>
<stop offset="1" stop-color="white"/>
</linearGradient>
<linearGradient id="paint8_linear_1442_49451" x1="390.796" y1="194.28" x2="401.735" y2="264.605" gradientUnits="userSpaceOnUse">
<stop stop-color="#F1F1F1"/>
<stop offset="1" stop-color="#FDFDFD"/>
</linearGradient>
<linearGradient id="paint9_linear_1442_49451" x1="88.9077" y1="123.385" x2="139.729" y2="123.385" gradientUnits="userSpaceOnUse">
<stop stop-color="#EDEDED"/>
<stop offset="1" stop-color="#D0D0D0"/>
</linearGradient>
<linearGradient id="paint10_linear_1442_49451" x1="139.604" y1="132.59" x2="139.814" y2="132.59" gradientUnits="userSpaceOnUse">
<stop stop-color="#EDEDED"/>
<stop offset="1" stop-color="white"/>
</linearGradient>
<linearGradient id="paint11_linear_1442_49451" x1="174.981" y1="167.014" x2="232.093" y2="167.014" gradientUnits="userSpaceOnUse">
<stop stop-color="#EDEDED"/>
<stop offset="1" stop-color="#D0D0D0"/>
</linearGradient>
<linearGradient id="paint12_linear_1442_49451" x1="310.795" y1="234.996" x2="362.583" y2="234.996" gradientUnits="userSpaceOnUse">
<stop stop-color="#EDEDED"/>
<stop offset="1" stop-color="#D0D0D0"/>
</linearGradient>
<linearGradient id="paint13_linear_1442_49451" x1="74.481" y1="151.784" x2="368.489" y2="151.784" gradientUnits="userSpaceOnUse">
<stop stop-color="#EDEDED"/>
<stop offset="1" stop-color="#D0D0D0"/>
</linearGradient>
<linearGradient id="paint14_linear_1442_49451" x1="422.412" y1="219.371" x2="433.012" y2="219.371" gradientUnits="userSpaceOnUse">
<stop stop-color="#303030"/>
<stop offset="1" stop-color="#727272"/>
</linearGradient>
<linearGradient id="paint15_linear_1442_49451" x1="318.267" y1="65.5074" x2="343.107" y2="65.5074" gradientUnits="userSpaceOnUse">
<stop offset="0.405734" stop-color="#A4F7CC"/>
<stop offset="0.431775" stop-color="#FF8F6D"/>
</linearGradient>
</defs>
</svg>
