<svg width="213" height="11" viewBox="0 0 213 11" fill="none" xmlns="http://www.w3.org/2000/svg">
<g id="Element 14" clip-path="url(#clip0_1442_50864)">
<path id="Vector" d="M196.111 1.25267C191.491 1.0219 186.791 0.791127 182.091 0.560358C180.578 0.483435 178.985 0.483435 177.471 0.406512C174.126 0.329589 170.78 0.252666 167.435 0.175743C165.603 0.0988194 163.691 0.0988194 161.859 0.0218964C161.302 0.0218964 160.744 0.0218964 160.266 0.0218964C159.071 0.0218964 157.876 0.0218964 156.602 0.0218964C151.106 0.0218964 145.609 0.0218964 140.113 0.0218964C138.839 0.0218964 137.485 0.0218964 136.21 0.0988194C132.944 0.175743 129.758 0.175743 126.492 0.252666C122.828 0.329589 119.164 0.329589 115.5 0.406512C109.605 0.560358 103.631 0.714204 97.7368 0.86805C94.3116 0.944973 90.8864 1.0219 87.4613 1.09882C81.5668 1.32959 75.6723 1.56036 69.7778 1.79113C66.512 1.94497 63.3258 2.0219 60.0599 2.17574C53.9265 2.56036 47.793 2.86805 41.6596 3.17574C38.3937 3.32959 35.1279 3.48343 31.862 3.7142C25.8082 4.17574 19.6748 4.7142 13.621 5.25267C12.3465 5.32959 10.9924 5.48343 9.63826 5.56036C7.0893 5.79113 4.46068 6.17574 1.83207 6.48344C1.67276 6.48344 1.51345 6.56036 1.35414 6.56036C1.03552 6.56036 0.796551 6.7142 0.557585 6.94497C0.15931 7.32959 0 7.79113 0 8.25267C0 8.7142 0.15931 9.17574 0.557585 9.48343C0.876206 9.79113 1.43379 10.0219 1.83207 10.0219C5.01827 9.7142 8.12482 9.32959 11.311 9.0219C14.2583 8.79113 17.2055 8.56036 20.1527 8.32959C23.3389 8.09882 26.5251 7.79113 29.791 7.56036C31.0655 7.48344 32.34 7.32959 33.6941 7.25267C38.7124 7.0219 43.651 6.7142 48.6692 6.48344C51.7758 6.32959 54.8823 6.17574 57.9889 6.0219C59.2634 5.94497 60.5378 5.86805 61.8123 5.79113C66.7509 5.56036 71.6896 5.40651 76.6282 5.17574C79.6551 5.09882 82.6023 4.94497 85.6292 4.86805C86.6647 4.86805 87.6206 4.79113 88.6561 4.79113C93.993 4.63728 99.3299 4.56036 104.667 4.40651C107.614 4.32959 110.641 4.25267 113.588 4.17574C114.624 4.17574 115.739 4.09882 116.774 4.09882C122.271 4.0219 127.767 4.0219 133.343 3.94497C136.768 3.94497 140.193 3.86805 143.618 3.86805C149.433 3.86805 155.327 3.86805 161.142 3.94497C162.257 3.94497 163.452 4.0219 164.567 4.0219C167.833 4.09882 171.019 4.17574 174.285 4.32959C176.675 4.40651 179.144 4.48344 181.534 4.56036C183.286 4.63728 184.959 4.7142 186.711 4.79113C191.73 5.0219 196.828 5.32959 201.846 5.63728C203.12 5.7142 204.395 5.79113 205.669 5.86805C207.024 5.94497 208.457 6.0219 209.811 6.17574C210.05 6.17574 210.21 6.25267 210.449 6.32959C211.006 6.40651 211.484 6.40651 211.962 6.09882C212.44 5.86805 212.759 5.40651 212.918 4.94497C213.237 3.94497 212.599 2.86805 211.484 2.56036C210.528 2.32959 209.572 2.25267 208.696 2.09882C208.059 2.0219 207.422 1.94497 206.785 1.94497C205.51 1.79113 204.236 1.79113 203.041 1.63728C200.81 1.56036 198.421 1.40651 196.111 1.25267Z" fill="#2CD9C5"/>
</g>
<defs>
<clipPath id="clip0_1442_50864">
<rect width="213" height="10" fill="white" transform="translate(0 0.0218964)"/>
</clipPath>
</defs>
</svg>
