<svg width="1in" height="0.5in" viewBox="0 0 155 26" fill="none" xmlns="http://www.w3.org/2000/svg">
<path d="M102.917 0.349415C105.025 0.42817 112.497 0.986607 117.286 0.986607C128.379 0.993766 139.466 1.25867 150.493 4.09386C152.215 4.53776 155.155 4.64516 154.994 12.7427C154.827 21.1695 152.794 26.0309 149.785 25.6514C142.496 24.7207 135.191 22.6086 127.912 23.9116C117.265 25.8161 106.677 24.4199 96.062 24.6132C86.5305 24.7922 77.0045 24.1336 67.4731 24.3841C58.521 24.6204 49.5527 26.2528 40.606 25.9664C32.8875 25.723 25.1959 23.4534 17.4828 22.5298C15.6645 22.315 13.46 23.7613 11.47 23.5823C9.82334 23.4391 7.07709 23.3174 5.45187 22.5728C4.74921 22.2506 4.02509 21.8497 3.3278 22.136C0.136363 23.4391 -0.662833 20.4893 0.517196 11.2606C0.774657 9.2273 0.538656 6.56394 1.32713 5.18214C1.35931 5.12486 1.42367 5.01031 1.45585 4.93871C3.85346 -0.617129 6.20279 2.03908 8.61112 1.96032C20.4114 1.59518 32.2117 1.78848 44.012 1.767C51.2531 1.75984 58.4942 2.28249 65.7352 1.34459C67.7145 1.08684 69.7098 -0.0730071 71.7104 0.67875L71.6783 0.671583C73.7755 0.435317 75.8781 -0.0586897 77.9754 0.00574658C85.8976 0.263492 94.1846 -0.259148 101.78 0.64296C102.069 0.700237 102.477 0.335096 102.917 0.349415Z" fill="#ff6c40"/>
</svg>
