<svg width="272" height="281" viewBox="0 0 272 281" fill="none" xmlns="http://www.w3.org/2000/svg">
<path d="M99.5254 124.618L112.597 117.076L99.5254 109.533L86.4625 117.076L73.3906 124.618L86.4625 132.17L99.5254 139.712L112.597 132.17L99.5254 124.618Z" fill="#F7D2FF"/>
<path d="M99.5273 105.83V50.5007L112.599 42.9492V98.2788L99.5273 105.83Z" fill="#826AF9"/>
<path d="M99.5239 50.5007L86.4609 42.9492V98.2788L99.5239 105.83V50.5007Z" fill="#D0AEFF"/>
<path d="M112.596 42.9488L99.5239 35.4062L86.4609 42.9488L99.5239 50.5002L112.596 42.9488Z" fill="#F7D2FF"/>
<path d="M112.595 108.345L99.5234 100.803V105.831L112.595 113.374V108.345Z" fill="#95D359"/>
<path d="M86.4609 113.373V73.1284L99.5239 65.5859V105.831L86.4609 113.373Z" fill="#C13D1A"/>
<path d="M86.4625 73.1284L73.3906 65.5859V105.831L86.4625 113.373V73.1284Z" fill="#DB5126"/>
<path d="M99.5254 65.5855L86.4625 58.043L73.3906 65.5855L86.4625 73.128L99.5254 65.5855Z" fill="#EF602E"/>
<path d="M86.4609 113.373V73.1284L99.5239 65.5859V105.831L86.4609 113.373Z" fill="#D0AEFF"/>
<path d="M86.4625 73.1284L73.3906 65.5859V105.831L86.4625 113.373V73.1284Z" fill="#9E86FF"/>
<path d="M99.5254 65.5855L86.4625 58.043L73.3906 65.5855L86.4625 73.128L99.5254 65.5855Z" fill="#F7D2FF"/>
<path d="M99.5273 120.915V98.2788L112.599 90.7363V113.373L99.5273 120.915Z" fill="#826AF9"/>
<path d="M99.5278 98.2788L86.4648 90.7363V113.373L99.5278 120.915V98.2788Z" fill="#D0AEFF"/>
<path d="M112.6 90.7359L99.5278 83.1934L86.4648 90.7359L99.5278 98.2784L112.6 90.7359Z" fill="#F7D2FF"/>
<path d="M270.975 150.314L270.587 148.797L266.184 149.925L266.572 151.442L270.975 150.314Z" fill="#2CD9C5"/>
<path d="M268.753 152.525L268.364 151.008L263.961 152.136L264.35 153.653L268.753 152.525Z" fill="#2CD9C5"/>
<path d="M266.507 154.718L266.118 153.201L261.715 154.33L262.104 155.846L266.507 154.718Z" fill="#2CD9C5"/>
<path d="M264.237 156.888L263.848 155.371L259.445 156.499L259.834 158.016L264.237 156.888Z" fill="#2CD9C5"/>
<path d="M154.41 261.791L55.7134 204.806C52.9219 203.195 53.2708 200.377 56.4918 198.516L123.694 159.73C126.915 157.869 131.792 157.663 134.583 159.282L233.28 216.267C236.071 217.878 235.722 220.696 232.501 222.557L165.299 261.343C162.087 263.195 157.211 263.401 154.41 261.791Z" fill="#D4ECFF"/>
<path d="M236.95 104.168L136.625 46.2885C135.336 45.5458 134.146 45.4295 133.189 45.8232V45.8142L133.028 45.8948C133.019 45.9037 133.001 45.9037 132.992 45.9127L129.726 47.4516L133.269 49.2142C133.269 49.2768 133.26 49.3395 133.26 49.411L133.287 131.815C133.287 135.94 135.837 140.753 138.987 142.569L236.637 198.901L237.191 203.5L240.761 201.8C241.933 201.111 242.676 199.554 242.676 197.326L242.649 114.923C242.649 110.798 240.09 105.984 236.95 104.168Z" fill="#173D7A"/>
<path d="M236.95 104.168L136.625 46.2885C135.336 45.5458 134.146 45.4295 133.189 45.8232V45.8142L133.028 45.8948C133.019 45.9037 133.001 45.9037 132.992 45.9127L129.726 47.4516L133.269 49.2142C133.269 49.2768 133.26 49.3395 133.26 49.411L133.278 103.721L178.936 139.796L240.931 108.597C239.902 106.682 238.498 105.063 236.95 104.168Z" fill="#396CAA"/>
<path d="M238.622 105.465L228.789 109.598L236.215 115.316L242.416 112.676C241.87 109.974 240.447 107.245 238.622 105.465Z" fill="#274F89"/>
<path d="M233.684 203.063L133.359 145.183C130.21 143.367 127.66 138.554 127.66 134.429L127.633 52.025C127.633 47.9003 130.183 46.0304 133.332 47.8466L233.657 105.717C236.807 107.534 239.357 112.347 239.357 116.472L239.384 198.876C239.375 203 236.825 204.87 233.684 203.063Z" fill="#D4ECFF"/>
<path d="M230.35 196.934L136.645 142.902C133.764 141.237 131.429 136.835 131.429 133.06L131.402 57.6525C131.402 53.8767 133.738 52.1678 136.61 53.8231L230.305 107.846C233.186 109.511 235.521 113.913 235.521 117.688L235.548 193.095C235.557 196.88 233.222 198.589 230.35 196.934Z" fill="white"/>
<path d="M230.35 196.934L136.645 142.902C133.764 141.237 131.429 136.835 131.429 133.06L131.402 57.6525C131.402 53.8767 133.738 52.1678 136.61 53.8231L230.305 107.846C233.186 109.511 235.521 113.913 235.521 117.688L235.548 193.095C235.557 196.88 233.222 198.589 230.35 196.934Z" fill="white"/>
<path d="M235.178 205.62L221.686 203.839L134.593 153.556C131.802 151.946 126.926 152.142 123.705 154.003L61.9958 189.622L53.8359 188.549V193.174H53.8449C53.7912 194.248 54.3996 195.277 55.7149 196.038L154.412 253.022C157.203 254.633 162.079 254.436 165.3 252.575L232.503 213.789C234.319 212.742 235.223 211.391 235.169 210.129V205.62H235.178Z" fill="#173D7A"/>
<path d="M169.747 173.849L163.556 170.279H95.53L61.9958 189.632L53.8359 188.558V193.184H53.8449C53.7912 194.258 54.3996 195.287 55.7149 196.047L154.412 253.032C155.888 253.882 157.946 254.222 160.03 254.088L169.747 173.849Z" fill="#396CAA"/>
<path d="M57.4595 189.023L53.8359 188.549V193.175H53.8449C53.7912 194.248 54.3996 195.277 55.7149 196.038L57.4506 197.04V189.023H57.4595Z" fill="#5793CE"/>
<path d="M155.414 253.48C158.062 254.482 161.847 254.267 164.665 252.907V242.582H155.414V253.48Z" fill="#274F89"/>
<path d="M154.41 248.396L55.7134 191.411C52.9219 189.801 53.2708 186.982 56.4918 185.121L123.694 146.335C126.915 144.474 131.792 144.268 134.583 145.888L233.28 202.873C236.071 204.483 235.722 207.302 232.501 209.163L165.299 247.949C162.087 249.801 157.211 250.007 154.41 248.396Z" fill="#D4ECFF"/>
<path d="M232.512 207.463L165.309 246.25C162.088 248.111 157.212 248.316 154.421 246.706L55.7239 189.721C54.8113 189.193 54.2387 188.531 53.9881 187.824C53.5497 189.148 54.1045 190.482 55.7239 191.412L154.421 248.397C157.212 250.007 162.088 249.811 165.309 247.95L232.512 209.163C234.677 207.911 235.545 206.229 235.026 204.77C234.713 205.728 233.872 206.676 232.512 207.463Z" fill="white"/>
<path d="M97.6948 172.543L93.2301 169.967C92.8722 169.761 92.917 169.394 93.3285 169.161L98.5984 166.119C99.01 165.878 99.6363 165.851 99.9942 166.066L104.459 168.642C104.817 168.848 104.772 169.215 104.36 169.448L99.0905 172.49C98.679 172.731 98.0527 172.758 97.6948 172.543Z" fill="#173D7A"/>
<path d="M104.593 176.526L100.129 173.949C99.7707 173.743 99.8154 173.376 100.227 173.144L105.497 170.102C105.908 169.86 106.535 169.833 106.893 170.048L111.357 172.625C111.715 172.831 111.67 173.197 111.259 173.43L105.989 176.472C105.577 176.714 104.951 176.74 104.593 176.526Z" fill="#173D7A"/>
<path d="M111.492 180.506L107.027 177.929C106.669 177.724 106.714 177.357 107.125 177.124L112.395 174.082C112.807 173.841 113.433 173.814 113.791 174.028L118.256 176.605C118.614 176.811 118.569 177.178 118.157 177.41L112.887 180.453C112.476 180.694 111.85 180.721 111.492 180.506Z" fill="#173D7A"/>
<path d="M121.027 177.222L116.562 174.645C116.204 174.44 116.249 174.073 116.661 173.84L121.089 171.281C121.501 171.04 122.127 171.013 122.485 171.228L126.95 173.804C127.308 174.01 127.263 174.377 126.851 174.61L122.423 177.169C122.011 177.401 121.385 177.428 121.027 177.222Z" fill="#173D7A"/>
<path d="M127.921 181.205L123.457 178.628C123.099 178.422 123.144 178.055 123.555 177.823L127.984 175.264C128.396 175.022 129.022 174.995 129.38 175.21L133.844 177.787C134.202 177.993 134.158 178.359 133.746 178.592L129.317 181.151C128.914 181.384 128.288 181.41 127.921 181.205Z" fill="#173D7A"/>
<path d="M134.816 185.185L130.351 182.608C129.993 182.403 130.038 182.036 130.45 181.803L134.878 179.244C135.29 179.003 135.916 178.976 136.274 179.191L140.739 181.767C141.097 181.973 141.052 182.34 140.64 182.573L136.212 185.131C135.8 185.364 135.174 185.391 134.816 185.185Z" fill="#173D7A"/>
<path d="M141.714 189.17L137.25 186.593C136.892 186.387 136.936 186.02 137.348 185.787L141.777 183.229C142.188 182.987 142.815 182.96 143.173 183.175L147.637 185.752C147.995 185.957 147.951 186.324 147.539 186.557L143.11 189.116C142.699 189.348 142.072 189.375 141.714 189.17Z" fill="#173D7A"/>
<path d="M148.613 193.15L144.148 190.573C143.79 190.367 143.835 190.001 144.246 189.768L148.675 187.209C149.087 186.967 149.713 186.941 150.071 187.155L154.536 189.732C154.894 189.938 154.849 190.305 154.437 190.537L150.009 193.096C149.597 193.329 148.971 193.356 148.613 193.15Z" fill="#173D7A"/>
<path d="M155.511 197.13L151.047 194.554C150.689 194.348 150.733 193.981 151.145 193.748L155.574 191.19C155.985 190.948 156.612 190.921 156.97 191.136L161.434 193.713C161.792 193.918 161.747 194.285 161.336 194.518L156.907 197.077C156.495 197.309 155.869 197.336 155.511 197.13Z" fill="#173D7A"/>
<path d="M162.402 201.113L157.937 198.536C157.579 198.33 157.624 197.963 158.036 197.731L162.464 195.172C162.876 194.93 163.502 194.904 163.86 195.118L168.325 197.695C168.683 197.901 168.638 198.268 168.226 198.5L163.798 201.059C163.386 201.292 162.76 201.319 162.402 201.113Z" fill="#173D7A"/>
<path d="M169.3 205.093L164.836 202.517C164.478 202.311 164.522 201.944 164.934 201.711L169.363 199.152C169.774 198.911 170.401 198.884 170.759 199.099L175.223 201.676C175.581 201.881 175.536 202.248 175.125 202.481L170.696 205.04C170.284 205.272 169.658 205.299 169.3 205.093Z" fill="#173D7A"/>
<path d="M176.195 209.076L171.73 206.499C171.372 206.293 171.417 205.926 171.829 205.694L176.257 203.135C176.669 202.893 177.295 202.866 177.653 203.081L182.118 205.658C182.476 205.864 182.431 206.231 182.019 206.463L177.591 209.022C177.179 209.255 176.553 209.282 176.195 209.076Z" fill="#173D7A"/>
<path d="M183.097 213.056L178.632 210.479C178.275 210.274 178.319 209.907 178.731 209.674L183.16 207.115C183.571 206.874 184.198 206.847 184.556 207.062L189.02 209.638C189.378 209.844 189.333 210.211 188.922 210.444L184.493 213.003C184.081 213.235 183.455 213.262 183.097 213.056Z" fill="#173D7A"/>
<path d="M131.183 175.336L126.718 172.759C126.36 172.553 126.405 172.186 126.817 171.954L131.246 169.395C131.657 169.153 132.284 169.126 132.641 169.341L137.106 171.918C137.464 172.123 137.419 172.49 137.008 172.723L132.579 175.282C132.167 175.514 131.541 175.541 131.183 175.336Z" fill="#396CAA"/>
<path d="M124.187 171.3L119.722 168.724C119.364 168.518 119.409 168.151 119.821 167.918L124.25 165.359C124.661 165.118 125.287 165.091 125.645 165.306L130.11 167.883C130.468 168.088 130.423 168.455 130.012 168.688L125.583 171.247C125.171 171.479 124.545 171.506 124.187 171.3Z" fill="#396CAA"/>
<path d="M117.18 167.249L107.562 161.692C107.204 161.487 107.249 161.12 107.661 160.887L112.089 158.328C112.501 158.087 113.127 158.06 113.485 158.275L123.103 163.831C123.461 164.037 123.417 164.403 123.005 164.636L118.576 167.195C118.165 167.428 117.538 167.454 117.18 167.249Z" fill="#173D7A"/>
<path d="M122.075 162.327L114.273 157.817C113.915 157.612 113.96 157.245 114.372 157.012L118.8 154.453C119.212 154.212 119.838 154.185 120.196 154.4L127.998 158.909C128.356 159.115 128.311 159.482 127.9 159.714L123.471 162.273C123.059 162.506 122.433 162.533 122.075 162.327Z" fill="#173D7A"/>
<path d="M138.082 179.316L133.617 176.739C133.259 176.533 133.304 176.167 133.715 175.934L138.144 173.375C138.556 173.133 139.182 173.107 139.54 173.321L144.005 175.898C144.362 176.104 144.318 176.471 143.906 176.703L139.477 179.262C139.066 179.495 138.439 179.522 138.082 179.316Z" fill="#396CAA"/>
<path d="M144.984 183.298L140.519 180.722C140.161 180.516 140.206 180.149 140.618 179.916L145.046 177.357C145.458 177.116 146.084 177.089 146.442 177.304L150.907 179.881C151.265 180.086 151.22 180.453 150.808 180.686L146.38 183.245C145.968 183.477 145.342 183.504 144.984 183.298Z" fill="#173D7A"/>
<path d="M151.878 187.279L147.414 184.702C147.056 184.496 147.101 184.129 147.512 183.897L151.941 181.338C152.353 181.096 152.979 181.07 153.337 181.284L157.801 183.861C158.159 184.067 158.115 184.434 157.703 184.666L153.274 187.225C152.863 187.458 152.236 187.485 151.878 187.279Z" fill="#173D7A"/>
<path d="M158.769 191.261L154.304 188.685C153.946 188.479 153.991 188.112 154.403 187.879L158.832 185.32C159.243 185.079 159.87 185.052 160.227 185.267L164.692 187.844C165.05 188.049 165.005 188.416 164.594 188.649L160.165 191.208C159.762 191.44 159.136 191.467 158.769 191.261Z" fill="#173D7A"/>
<path d="M165.667 195.244L161.203 192.667C160.845 192.461 160.89 192.094 161.301 191.862L165.73 189.303C166.142 189.061 166.768 189.034 167.126 189.249L171.59 191.826C171.948 192.032 171.904 192.399 171.492 192.631L167.063 195.19C166.652 195.423 166.025 195.45 165.667 195.244Z" fill="#173D7A"/>
<path d="M172.566 199.224L168.101 196.647C167.743 196.442 167.788 196.075 168.2 195.842L172.628 193.283C173.04 193.042 173.666 193.015 174.024 193.23L178.489 195.806C178.847 196.012 178.802 196.379 178.39 196.612L173.962 199.171C173.55 199.412 172.924 199.43 172.566 199.224Z" fill="#173D7A"/>
<path d="M179.464 203.207L175 200.63C174.642 200.424 174.686 200.057 175.098 199.825L179.527 197.266C179.938 197.024 180.565 196.997 180.923 197.212L185.387 199.789C185.745 199.995 185.701 200.361 185.289 200.594L180.86 203.153C180.449 203.395 179.822 203.412 179.464 203.207Z" fill="#173D7A"/>
<path d="M186.363 207.187L181.898 204.61C181.54 204.405 181.585 204.038 181.996 203.805L186.425 201.246C186.837 201.005 187.463 200.978 187.821 201.192L192.286 203.769C192.644 203.975 192.599 204.342 192.187 204.575L187.759 207.133C187.347 207.375 186.721 207.393 186.363 207.187Z" fill="#173D7A"/>
<path d="M193.253 211.17L188.789 208.593C188.431 208.387 188.476 208.02 188.887 207.787L193.316 205.229C193.728 204.987 194.354 204.96 194.712 205.175L199.176 207.752C199.534 207.957 199.49 208.324 199.078 208.557L194.649 211.116C194.238 211.357 193.611 211.375 193.253 211.17Z" fill="#173D7A"/>
<path d="M205.517 218.248L195.773 212.62C195.415 212.414 195.46 212.047 195.872 211.815L200.3 209.256C200.712 209.014 201.338 208.988 201.696 209.202L211.44 214.83C211.798 215.036 211.753 215.403 211.341 215.635L206.912 218.194C206.501 218.436 205.874 218.463 205.517 218.248Z" fill="#173D7A"/>
<path d="M218.937 210.498L210.714 205.747C210.357 205.541 210.401 205.174 210.813 204.942L215.242 202.383C215.653 202.141 216.28 202.114 216.638 202.329L224.86 207.08C225.218 207.286 225.173 207.653 224.762 207.885L220.333 210.444C219.921 210.677 219.295 210.704 218.937 210.498Z" fill="#173D7A"/>
<path d="M150.164 178.539L145.699 175.962C145.341 175.756 145.386 175.389 145.797 175.157L150.226 172.598C150.638 172.356 151.264 172.329 151.622 172.544L156.087 175.121C156.444 175.327 156.4 175.693 155.988 175.926L151.559 178.485C151.148 178.718 150.521 178.744 150.164 178.539Z" fill="#173D7A"/>
<path d="M143.093 174.459L138.629 171.882C138.271 171.676 138.315 171.309 138.727 171.077L143.156 168.518C143.567 168.276 144.194 168.249 144.552 168.464L149.016 171.041C149.374 171.247 149.329 171.613 148.918 171.846L144.489 174.405C144.077 174.638 143.451 174.664 143.093 174.459Z" fill="#173D7A"/>
<path d="M136.023 170.379L131.558 167.802C131.2 167.596 131.245 167.229 131.657 166.996L136.086 164.438C136.497 164.196 137.123 164.169 137.481 164.384L141.946 166.961C142.304 167.166 142.259 167.533 141.848 167.766L137.419 170.325C137.007 170.557 136.381 170.584 136.023 170.379Z" fill="#396CAA"/>
<path d="M128.956 166.298L124.492 163.722C124.134 163.516 124.179 163.149 124.59 162.916L129.019 160.357C129.431 160.116 130.057 160.089 130.415 160.304L134.88 162.881C135.237 163.086 135.193 163.453 134.781 163.686L130.352 166.245C129.941 166.477 129.314 166.504 128.956 166.298Z" fill="#173D7A"/>
<path d="M157.062 182.519L152.597 179.942C152.239 179.737 152.284 179.37 152.696 179.137L157.125 176.578C157.536 176.337 158.162 176.31 158.52 176.525L162.985 179.101C163.343 179.307 163.298 179.674 162.887 179.907L158.458 182.465C158.046 182.698 157.42 182.725 157.062 182.519Z" fill="#173D7A"/>
<path d="M163.949 186.502L159.484 183.925C159.126 183.719 159.171 183.352 159.582 183.12L164.011 180.561C164.423 180.319 165.049 180.292 165.407 180.507L169.872 183.084C170.23 183.29 170.185 183.656 169.773 183.889L165.344 186.448C164.942 186.681 164.316 186.707 163.949 186.502Z" fill="#173D7A"/>
<path d="M170.847 190.482L166.382 187.905C166.025 187.699 166.069 187.333 166.481 187.1L170.91 184.541C171.321 184.3 171.948 184.273 172.306 184.487L176.77 187.064C177.128 187.27 177.083 187.637 176.672 187.869L172.243 190.428C171.831 190.661 171.205 190.688 170.847 190.482Z" fill="#173D7A"/>
<path d="M177.746 194.464L173.281 191.888C172.923 191.682 172.968 191.315 173.379 191.082L177.808 188.524C178.22 188.282 178.846 188.255 179.204 188.47L183.669 191.047C184.026 191.252 183.982 191.619 183.57 191.852L179.141 194.411C178.73 194.643 178.103 194.67 177.746 194.464Z" fill="#173D7A"/>
<path d="M184.644 198.447L180.179 195.87C179.821 195.664 179.866 195.297 180.278 195.065L184.707 192.506C185.118 192.264 185.744 192.238 186.102 192.452L190.567 195.029C190.925 195.235 190.88 195.602 190.469 195.834L186.04 198.393C185.628 198.626 185.002 198.653 184.644 198.447Z" fill="#173D7A"/>
<path d="M191.542 202.427L187.078 199.851C186.72 199.645 186.765 199.278 187.176 199.045L191.605 196.486C192.017 196.245 192.643 196.218 193.001 196.433L197.465 199.01C197.823 199.215 197.779 199.582 197.367 199.815L192.938 202.374C192.527 202.606 191.9 202.633 191.542 202.427Z" fill="#173D7A"/>
<path d="M198.433 206.41L193.968 203.833C193.611 203.627 193.655 203.26 194.067 203.028L198.496 200.469C198.907 200.227 199.534 200.2 199.891 200.415L204.356 202.992C204.714 203.198 204.669 203.565 204.258 203.797L199.829 206.356C199.417 206.589 198.791 206.616 198.433 206.41Z" fill="#173D7A"/>
<path d="M205.332 210.39L200.867 207.813C200.509 207.608 200.554 207.241 200.965 207.008L205.394 204.449C205.806 204.208 206.432 204.181 206.79 204.396L211.255 206.972C211.612 207.178 211.568 207.545 211.156 207.778L206.727 210.337C206.316 210.569 205.689 210.596 205.332 210.39Z" fill="#173D7A"/>
<path d="M212.23 214.373L207.765 211.796C207.407 211.59 207.452 211.223 207.864 210.991L212.293 208.432C212.704 208.19 213.33 208.163 213.688 208.378L218.153 210.955C218.511 211.161 218.466 211.527 218.055 211.76L213.626 214.319C213.214 214.552 212.588 214.578 212.23 214.373Z" fill="#173D7A"/>
<path d="M146.527 168.687L142.062 166.11C141.704 165.905 141.749 165.538 142.161 165.305L146.589 162.746C147.001 162.505 147.627 162.478 147.985 162.692L152.45 165.269C152.808 165.475 152.763 165.842 152.351 166.075L147.923 168.633C147.511 168.875 146.885 168.902 146.527 168.687Z" fill="#173D7A"/>
<path d="M139.667 164.734L135.203 162.157C134.845 161.951 134.89 161.585 135.301 161.352L139.73 158.793C140.142 158.551 140.768 158.525 141.126 158.739L145.59 161.316C145.948 161.522 145.904 161.889 145.492 162.121L141.063 164.68C140.652 164.913 140.025 164.94 139.667 164.734Z" fill="#173D7A"/>
<path d="M132.8 160.769L128.336 158.192C127.978 157.987 128.022 157.62 128.434 157.387L132.863 154.828C133.274 154.587 133.901 154.56 134.259 154.775L138.723 157.351C139.081 157.557 139.036 157.924 138.625 158.157L134.196 160.715C133.784 160.948 133.158 160.975 132.8 160.769Z" fill="#173D7A"/>
<path d="M125.941 156.806L121.476 154.229C121.118 154.024 121.163 153.657 121.575 153.424L126.004 150.865C126.415 150.624 127.041 150.597 127.399 150.812L131.864 153.388C132.222 153.594 132.177 153.961 131.766 154.194L127.337 156.753C126.925 156.985 126.299 157.012 125.941 156.806Z" fill="#173D7A"/>
<path d="M132.999 152.735L128.535 150.158C128.177 149.952 128.222 149.585 128.633 149.353L130.092 148.512C130.503 148.27 131.129 148.243 131.487 148.458L135.952 151.035C136.31 151.241 136.265 151.608 135.854 151.84L134.395 152.681C133.984 152.914 133.357 152.941 132.999 152.735Z" fill="#173D7A"/>
<path d="M141.956 157.905L137.492 155.328C137.134 155.122 137.179 154.755 137.59 154.523L139.049 153.682C139.46 153.44 140.087 153.413 140.444 153.628L144.909 156.205C145.267 156.411 145.222 156.777 144.811 157.01L143.352 157.851C142.941 158.084 142.314 158.111 141.956 157.905Z" fill="#173D7A"/>
<path d="M148.792 161.852L144.328 159.275C143.97 159.069 144.015 158.703 144.426 158.47L145.885 157.629C146.296 157.387 146.922 157.361 147.28 157.575L151.745 160.152C152.103 160.358 152.058 160.725 151.647 160.957L150.188 161.798C149.777 162.031 149.15 162.058 148.792 161.852Z" fill="#173D7A"/>
<path d="M155.617 165.79L151.152 163.213C150.794 163.007 150.839 162.64 151.25 162.408L152.709 161.566C153.12 161.325 153.747 161.298 154.105 161.513L158.569 164.09C158.927 164.295 158.882 164.662 158.471 164.895L157.012 165.736C156.601 165.977 155.975 166.004 155.617 165.79Z" fill="#173D7A"/>
<path d="M162.453 169.735L157.988 167.158C157.63 166.952 157.675 166.585 158.086 166.353L159.545 165.512C159.956 165.27 160.583 165.243 160.941 165.458L165.405 168.035C165.763 168.241 165.718 168.608 165.307 168.84L163.848 169.681C163.437 169.923 162.81 169.95 162.453 169.735Z" fill="#173D7A"/>
<path d="M200.605 191.762L196.14 189.185C195.782 188.98 195.827 188.613 196.239 188.38L197.697 187.539C198.109 187.298 198.735 187.271 199.093 187.485L203.558 190.062C203.915 190.268 203.871 190.635 203.459 190.867L202.001 191.709C201.589 191.941 200.963 191.968 200.605 191.762Z" fill="#173D7A"/>
<path d="M207.441 195.708L202.976 193.131C202.618 192.925 202.663 192.558 203.075 192.325L204.533 191.484C204.945 191.243 205.571 191.216 205.929 191.431L210.393 194.008C210.751 194.213 210.707 194.58 210.295 194.813L208.837 195.654C208.425 195.886 207.799 195.913 207.441 195.708Z" fill="#173D7A"/>
<path d="M214.269 199.653L209.804 197.076C209.446 196.87 209.491 196.503 209.903 196.271L211.361 195.43C211.773 195.188 212.399 195.161 212.757 195.376L217.222 197.953C217.579 198.159 217.535 198.525 217.123 198.758L215.665 199.599C215.253 199.832 214.627 199.859 214.269 199.653Z" fill="#173D7A"/>
<path d="M221.105 203.6L216.64 201.023C216.282 200.818 216.327 200.451 216.739 200.218L218.197 199.377C218.609 199.135 219.235 199.109 219.593 199.323L224.058 201.9C224.415 202.106 224.371 202.473 223.959 202.705L222.501 203.546C222.089 203.779 221.463 203.806 221.105 203.6Z" fill="#173D7A"/>
<path d="M153.425 172.67L148.961 170.093C148.603 169.887 148.647 169.52 149.059 169.287L153.488 166.729C153.899 166.487 154.526 166.46 154.884 166.675L159.348 169.252C159.706 169.457 159.661 169.824 159.25 170.057L154.821 172.616C154.409 172.857 153.783 172.884 153.425 172.67Z" fill="#173D7A"/>
<path d="M160.324 176.652L155.859 174.075C155.501 173.869 155.546 173.503 155.957 173.27L160.386 170.711C160.798 170.469 161.424 170.443 161.782 170.657L166.247 173.234C166.605 173.44 166.56 173.807 166.148 174.039L161.719 176.598C161.308 176.84 160.682 176.867 160.324 176.652Z" fill="#173D7A"/>
<path d="M167.214 180.632L162.75 178.056C162.392 177.85 162.436 177.483 162.848 177.25L167.277 174.691C167.688 174.45 168.315 174.423 168.673 174.638L173.137 177.215C173.495 177.42 173.451 177.787 173.039 178.02L168.61 180.579C168.199 180.82 167.572 180.847 167.214 180.632Z" fill="#173D7A"/>
<path d="M174.113 184.615L169.648 182.038C169.29 181.832 169.335 181.465 169.746 181.233L174.175 178.674C174.587 178.432 175.213 178.405 175.571 178.62L180.036 181.197C180.394 181.403 180.349 181.77 179.937 182.002L175.509 184.561C175.097 184.803 174.471 184.83 174.113 184.615Z" fill="#173D7A"/>
<path d="M181.011 188.605L176.547 186.028C176.189 185.823 176.233 185.456 176.645 185.223L181.074 182.664C181.485 182.423 182.112 182.396 182.47 182.61L186.934 185.187C187.292 185.393 187.247 185.76 186.836 185.992L182.407 188.551C181.995 188.784 181.369 188.811 181.011 188.605Z" fill="#173D7A"/>
<path d="M187.91 192.586L183.445 190.009C183.087 189.803 183.132 189.436 183.543 189.204L187.972 186.645C188.384 186.403 189.01 186.376 189.368 186.591L193.833 189.168C194.191 189.373 194.146 189.74 193.734 189.973L189.305 192.532C188.894 192.765 188.268 192.791 187.91 192.586Z" fill="#173D7A"/>
<path d="M194.808 196.568L190.343 193.991C189.986 193.785 190.03 193.419 190.442 193.186L194.871 190.627C195.282 190.385 195.909 190.359 196.266 190.573L200.731 193.15C201.089 193.356 201.044 193.723 200.633 193.955L196.204 196.514C195.792 196.747 195.166 196.774 194.808 196.568Z" fill="#173D7A"/>
<path d="M201.695 200.548L197.23 197.972C196.872 197.766 196.917 197.399 197.329 197.166L201.757 194.608C202.169 194.366 202.795 194.339 203.153 194.554L207.618 197.131C207.976 197.336 207.931 197.703 207.519 197.936L203.091 200.495C202.679 200.727 202.053 200.754 201.695 200.548Z" fill="#173D7A"/>
<path d="M208.593 204.531L204.129 201.954C203.771 201.748 203.815 201.381 204.227 201.149L208.656 198.59C209.067 198.348 209.694 198.321 210.052 198.536L214.516 201.113C214.874 201.319 214.829 201.686 214.418 201.918L209.989 204.477C209.577 204.71 208.951 204.737 208.593 204.531Z" fill="#173D7A"/>
<path d="M114 173.162L100.847 165.565C100.489 165.36 100.534 164.993 100.946 164.76L105.375 162.201C105.786 161.96 106.412 161.933 106.77 162.148L119.923 169.744C120.281 169.95 120.236 170.316 119.824 170.549L115.395 173.108C114.984 173.349 114.358 173.376 114 173.162Z" fill="#173D7A"/>
<path d="M198.718 222.076L185.566 214.479C185.208 214.274 185.253 213.907 185.664 213.674L190.093 211.115C190.505 210.874 191.131 210.847 191.489 211.062L204.642 218.658C204.999 218.864 204.955 219.23 204.543 219.463L200.114 222.022C199.703 222.264 199.076 222.29 198.718 222.076Z" fill="#173D7A"/>
<path d="M171.144 214.953L166.679 212.377C166.321 212.171 166.366 211.804 166.778 211.571L172.048 208.529C172.459 208.288 173.086 208.261 173.443 208.476L177.908 211.052C178.266 211.258 178.221 211.625 177.81 211.858L172.54 214.9C172.128 215.132 171.502 215.159 171.144 214.953Z" fill="#173D7A"/>
<path d="M121.065 186.036L113.925 181.912C113.568 181.706 113.612 181.339 114.024 181.107L119.294 178.065C119.705 177.823 120.332 177.796 120.69 178.011L127.829 182.136C128.187 182.341 128.143 182.708 127.731 182.941L122.461 185.983C122.049 186.215 121.423 186.242 121.065 186.036Z" fill="#173D7A"/>
<path d="M164.495 211.117L157.355 206.992C156.997 206.786 157.042 206.419 157.454 206.187L162.723 203.145C163.135 202.903 163.761 202.876 164.119 203.091L171.259 207.216C171.617 207.421 171.572 207.788 171.161 208.021L165.891 211.063C165.479 211.296 164.853 211.322 164.495 211.117Z" fill="#173D7A"/>
<path d="M131.015 191.781L123.875 187.656C123.517 187.45 123.561 187.083 123.973 186.851L129.243 183.809C129.655 183.567 130.281 183.54 130.639 183.755L137.779 187.88C138.137 188.085 138.092 188.452 137.68 188.685L132.41 191.727C131.999 191.96 131.372 191.986 131.015 191.781Z" fill="#173D7A"/>
<path d="M130.683 183.781L161.73 201.711C162.115 201.935 162.115 202.293 161.73 202.517L156.353 205.621C155.968 205.845 155.342 205.845 154.957 205.621L123.91 187.691L130.683 183.781Z" fill="#173D7A"/>
<path d="M190.414 222.175L195.389 225.047C195.684 225.217 195.648 225.512 195.308 225.709L193.152 226.953C192.812 227.149 192.302 227.167 192.007 226.997L187.032 224.125C186.737 223.955 186.773 223.66 187.113 223.463L189.269 222.22C189.609 222.023 190.119 222.005 190.414 222.175Z" fill="#173D7A"/>
<path d="M183.465 218.157L188.439 221.029C188.735 221.199 188.699 221.495 188.359 221.691L186.203 222.935C185.863 223.132 185.353 223.15 185.057 222.98L180.083 220.108C179.788 219.938 179.823 219.642 180.163 219.446L182.32 218.202C182.66 218.005 183.17 217.987 183.465 218.157Z" fill="#173D7A"/>
<path d="M176.562 214.175L181.537 217.047C181.832 217.217 181.797 217.512 181.457 217.709L179.3 218.953C178.96 219.149 178.45 219.167 178.155 218.997L173.18 216.125C172.885 215.955 172.921 215.66 173.261 215.463L175.417 214.22C175.757 214.023 176.267 214.005 176.562 214.175Z" fill="#173D7A"/>
<path d="M187.273 215.957L192.248 218.829C192.543 218.999 192.508 219.294 192.168 219.491L190.011 220.735C189.671 220.932 189.161 220.949 188.866 220.779L183.891 217.907C183.596 217.737 183.632 217.442 183.972 217.245L186.128 216.002C186.459 215.814 186.978 215.787 187.273 215.957Z" fill="#173D7A"/>
<path d="M194.666 117.914L190.398 115.444C190.004 115.212 189.673 114.594 189.664 114.066C189.655 113.539 189.968 113.288 190.362 113.521L194.63 115.99C195.024 116.223 195.355 116.84 195.364 117.368C195.373 117.896 195.059 118.146 194.666 117.914Z" fill="#D4ECFF"/>
<path d="M204.841 123.792L198.542 120.159C198.149 119.927 197.818 119.309 197.809 118.781C197.8 118.253 198.113 118.003 198.507 118.236L204.806 121.868C205.199 122.101 205.53 122.718 205.539 123.246C205.557 123.774 205.235 124.015 204.841 123.792Z" fill="#D4ECFF"/>
<path d="M192.556 140.693L188.289 138.224C187.895 137.991 187.564 137.374 187.555 136.846C187.546 136.318 187.859 136.067 188.253 136.3L192.521 138.769C192.914 139.002 193.245 139.619 193.254 140.147C193.263 140.675 192.95 140.926 192.556 140.693Z" fill="#D4ECFF"/>
<path d="M201.619 145.927L195.32 142.294C194.926 142.061 194.595 141.444 194.586 140.916C194.577 140.388 194.89 140.138 195.284 140.37L201.583 144.003C201.977 144.236 202.308 144.853 202.317 145.381C202.334 145.909 202.012 146.159 201.619 145.927Z" fill="#D4ECFF"/>
<path d="M182.955 115.157L180.289 113.618C179.895 113.386 179.564 112.768 179.555 112.24C179.546 111.712 179.859 111.462 180.253 111.695L182.919 113.233C183.313 113.466 183.644 114.083 183.653 114.611C183.671 115.139 183.349 115.381 182.955 115.157Z" fill="#D4ECFF"/>
<path d="M192.064 124.418L183.914 119.712C183.52 119.479 183.189 118.862 183.18 118.334C183.171 117.806 183.484 117.556 183.878 117.788L192.029 122.495C192.422 122.727 192.753 123.345 192.762 123.872C192.78 124.4 192.467 124.642 192.064 124.418Z" fill="#D4ECFF"/>
<path d="M186.717 129.321L184.05 127.782C183.657 127.55 183.326 126.932 183.317 126.404C183.308 125.877 183.621 125.626 184.014 125.859L186.681 127.398C187.074 127.63 187.405 128.248 187.414 128.775C187.432 129.303 187.11 129.554 186.717 129.321Z" fill="#D4ECFF"/>
<path d="M204.77 155.742L197.648 151.626C197.254 151.394 196.923 150.776 196.914 150.248C196.905 149.72 197.218 149.47 197.612 149.703L204.734 153.818C205.128 154.051 205.459 154.668 205.468 155.196C205.486 155.733 205.163 155.975 204.77 155.742Z" fill="#D4ECFF"/>
<path d="M185.892 136.844L184.183 135.851C183.789 135.618 183.458 135.001 183.449 134.473C183.44 133.945 183.754 133.694 184.147 133.927L185.856 134.92C186.25 135.153 186.581 135.77 186.59 136.298C186.599 136.826 186.286 137.076 185.892 136.844Z" fill="#D4ECFF"/>
<path d="M186.438 145.158L184.308 143.933C183.914 143.7 183.583 143.083 183.574 142.555C183.565 142.027 183.879 141.776 184.272 142.009L186.402 143.235C186.795 143.467 187.126 144.085 187.135 144.613C187.144 145.141 186.831 145.391 186.438 145.158Z" fill="#D4ECFF"/>
<path d="M194.711 149.935L189.101 146.696C188.707 146.464 188.376 145.846 188.367 145.318C188.358 144.791 188.672 144.54 189.065 144.773L194.675 148.012C195.069 148.244 195.4 148.862 195.409 149.389C195.418 149.917 195.105 150.168 194.711 149.935Z" fill="#D4ECFF"/>
<path d="M188.406 150.302L184.371 147.976C183.977 147.743 183.646 147.126 183.637 146.598C183.628 146.07 183.941 145.819 184.335 146.052L188.37 148.378C188.764 148.611 189.095 149.228 189.104 149.756C189.122 150.284 188.799 150.526 188.406 150.302Z" fill="#D4ECFF"/>
<path d="M210.89 159.294L208.304 157.8C207.911 157.567 207.579 156.95 207.57 156.422C207.562 155.894 207.875 155.644 208.268 155.876L210.854 157.37C211.248 157.603 211.579 158.22 211.588 158.748C211.597 159.276 211.284 159.527 210.89 159.294Z" fill="#D4ECFF"/>
<path d="M196.637 135.054L189.515 130.939C189.121 130.706 188.79 130.089 188.781 129.561C188.772 129.033 189.086 128.782 189.479 129.015L196.601 133.131C196.995 133.363 197.326 133.981 197.335 134.508C197.353 135.036 197.04 135.278 196.637 135.054Z" fill="#D4ECFF"/>
<path d="M196.407 130.914L183.988 123.747C183.594 123.514 183.263 122.897 183.254 122.369C183.245 121.841 183.558 121.591 183.952 121.823L196.371 128.99C196.764 129.223 197.095 129.84 197.104 130.368C197.113 130.896 196.8 131.146 196.407 130.914Z" fill="#D4ECFF"/>
<path d="M191.243 135.933L184.121 131.817C183.727 131.585 183.396 130.967 183.387 130.44C183.378 129.912 183.691 129.661 184.085 129.894L191.207 134.009C191.6 134.242 191.931 134.859 191.94 135.387C191.949 135.915 191.636 136.166 191.243 135.933Z" fill="#D4ECFF"/>
<path d="M202.05 138.177L199.464 136.683C199.071 136.45 198.74 135.833 198.731 135.305C198.722 134.777 199.035 134.526 199.429 134.759L202.014 136.253C202.408 136.486 202.739 137.103 202.748 137.631C202.757 138.159 202.444 138.401 202.05 138.177Z" fill="#D4ECFF"/>
<path d="M224.054 134.877L208.718 126.028C208.325 125.796 207.994 125.178 207.985 124.65C207.976 124.123 208.289 123.872 208.682 124.105L224.018 132.953C224.412 133.186 224.743 133.803 224.752 134.331C224.761 134.868 224.447 135.11 224.054 134.877Z" fill="#D4ECFF"/>
<path d="M192.808 144.845L184.246 139.898C183.852 139.665 183.521 139.048 183.512 138.52C183.503 137.992 183.816 137.741 184.21 137.974L192.772 142.922C193.166 143.154 193.497 143.772 193.506 144.3C193.524 144.827 193.211 145.069 192.808 144.845Z" fill="#D4ECFF"/>
<path d="M186.517 113.216L180.218 109.583C179.825 109.35 179.494 108.733 179.485 108.205C179.476 107.677 179.789 107.427 180.182 107.659L186.481 111.292C186.875 111.525 187.206 112.142 187.215 112.67C187.233 113.198 186.92 113.439 186.517 113.216Z" fill="#D4ECFF"/>
<path d="M188.17 154.157L180.878 149.942C180.485 149.71 180.154 149.092 180.145 148.565C180.136 148.037 180.449 147.786 180.843 148.019L188.135 152.233C188.528 152.466 188.859 153.083 188.868 153.611C188.877 154.148 188.564 154.389 188.17 154.157Z" fill="#D4ECFF"/>
<path d="M1.68468 160.501L39.254 138.625C46.6981 134.331 53.7127 133.651 59.0184 136.711C64.3152 139.771 67.2409 146.195 67.2409 154.784V157.54C66.9725 157.719 66.6952 157.898 66.4088 158.068V154.784C66.4088 146.499 63.6352 140.334 58.5979 137.426C53.5607 134.519 46.8413 135.198 39.6656 139.341L2.09626 161.217C1.89942 161.333 1.6489 161.262 1.53258 161.065C1.41627 160.868 1.48785 160.618 1.68468 160.501Z" fill="#60F1C8"/>
<path d="M118.849 134.445V49.7778C118.849 32.8318 130.794 12.1458 145.467 3.67282C152.652 -0.478685 159.434 -1.13184 164.56 1.82075C169.678 4.77333 172.506 10.9738 172.506 19.2768V25.1819C172.228 25.4593 171.951 25.7367 171.673 26.014V19.2857C171.673 11.2959 168.998 5.34595 164.149 2.54547C159.291 -0.255007 152.813 0.39814 145.888 4.39754C131.438 12.7364 119.681 33.1002 119.681 49.7868V134.454C119.681 148.501 111.414 165.125 100.203 175.128C100.203 174.761 100.203 174.386 100.203 174.019C110.967 164.114 118.849 148.054 118.849 134.445Z" fill="#60F1C8"/>
<path d="M172.495 27.7774C173.855 26.489 180.199 20.888 189.459 19.4744C199.945 17.8728 204.276 30.1305 204.276 30.1305C204.276 30.1305 205.492 36.5009 205.448 40.2677C205.403 44.0345 205.134 57.7237 205.134 57.7237L171.905 38.5767V38.5677C171.77 38.4962 171.672 38.362 171.672 38.2009V28.4932C171.94 28.2158 172.218 28.0548 172.495 27.7774Z" fill="#2CD9C5"/>
<path d="M196.058 19.9842L164.555 1.82135L164.68 2.27766C159.822 -0.853862 152.485 -1.19386 142.67 5.9997C123.174 20.2974 120.839 40.196 119.837 43.927C118.844 47.6579 119.255 71.2875 119.255 71.2875C119.255 71.2875 119.193 128.272 119.121 134.902C119.058 141.532 117.126 148.967 113.404 156.993C109.682 165.019 100.117 174.762 100.117 174.762V186.358C101.647 198.902 106.971 201.818 114.898 202.534C121.295 203.107 128.113 198.49 133.562 193.453C133.365 193.659 133.231 193.793 133.231 193.793V205.388C134.761 217.932 140.084 220.858 148.012 221.565C155.939 222.281 164.51 215.016 170.326 208.869C176.133 202.722 181.036 193.337 183.756 184.872C186.476 176.408 185.572 165.466 185.572 165.466C185.572 165.466 185.635 103.175 185.706 90.8909C185.769 78.6064 186.163 80.7537 190.189 68.4065C194.215 56.0594 204.898 47.4164 204.898 47.4164L230.523 39.7844L196.058 19.9842Z" fill="#D4FFFF"/>
<path d="M141.218 220.543C140.788 219.953 135.17 216.195 133.747 209.565C132.951 205.879 133.031 200.269 133.031 200.269C133.031 200.269 133.058 197.155 133.13 194.319C133.192 194.265 133.255 194.212 133.317 194.158C133.317 193.791 133.317 193.415 133.317 193.048C133.264 193.093 133.21 193.138 133.165 193.183C133.183 192.547 133.21 191.939 133.237 191.429C133.398 188.485 131.224 182.204 131.224 182.204C131.224 182.204 128.137 173.785 118.939 173.463C110.779 173.177 102.181 179.046 100.356 180.37V176.568C100.231 176.648 100.105 176.729 99.9801 176.809C99.9891 176.299 99.998 175.78 100.016 175.27C100.079 175.217 100.141 175.163 100.204 175.109C100.204 174.743 100.204 174.367 100.204 174C100.15 174.045 100.096 174.089 100.052 174.134C100.07 173.499 100.096 172.89 100.123 172.38C100.284 169.437 98.1101 163.156 98.1101 163.156C98.1101 163.156 95.0234 154.737 85.8256 154.414C77.6658 154.128 69.0675 159.997 67.2422 161.322V157.519C66.9738 157.698 66.6965 157.877 66.4102 158.047V164.704C66.4102 172.765 69.0943 178.822 73.9706 181.829L73.9884 181.856L74.1584 181.954C74.2032 181.981 74.2479 182.017 74.2927 182.043C74.3195 182.061 74.3553 182.07 74.3821 182.088L108.095 201.495C108.086 201.486 108.068 201.459 108.051 201.45L141.218 220.543Z" fill="#2CD9C5"/>
<path d="M92.1378 155.759C92.1378 155.759 91.8873 155.625 91.4399 155.446C91.3057 155.384 91.1715 155.303 91.0284 155.24L59.0152 136.711C59.0152 136.711 53.1369 133.624 46.0238 136.228C38.9108 138.831 1.63672 161.19 1.63672 161.19L34.9383 180.373H34.9472C34.9741 180.391 35.0098 180.391 35.0367 180.4L68.0608 199.422C68.0608 199.422 86.7426 187.844 99.6624 180.382L100.494 179.908C105.782 176.866 109.979 174.602 111.294 174.253C119.266 172.142 124.804 174.718 126.254 175.506L92.1378 155.759Z" fill="#D4FFFF"/>
<path d="M126.246 175.496L126.631 175.72C126.631 175.72 126.488 175.63 126.246 175.496Z" fill="#D4FFFF"/>
<path d="M205.612 46.8243C206.972 45.5359 213.316 39.9349 222.576 38.5213C233.062 36.9197 237.393 49.1774 237.393 49.1774C237.393 49.1774 238.61 55.5478 238.565 59.3146C238.52 63.0814 238.252 76.7706 238.252 76.7706L205.022 57.6236V57.6146C204.887 57.543 204.789 57.4088 204.789 57.2478V47.54C205.057 47.2627 205.335 47.0927 205.612 46.8243Z" fill="#2CD9C5"/>
<path d="M147.694 222.056C151.363 222.056 155.416 220.83 159.612 218.406C174.187 209.995 186.033 189.461 186.033 172.641V87.9731C186.033 71.2865 197.79 50.9316 212.24 42.5838C219.165 38.5934 225.643 37.9313 230.501 40.7318C235.359 43.5322 238.026 49.4821 238.026 57.472V76.3954C238.026 76.628 238.213 76.8069 238.437 76.8069C238.67 76.8069 238.849 76.619 238.849 76.3954V57.472C238.849 49.169 236.03 42.9686 230.904 40.016C225.777 37.0544 219.004 37.7165 211.81 41.8681C197.137 50.3411 185.192 71.027 185.192 87.9731V172.641C185.192 189.202 173.525 209.414 159.183 217.69C152.311 221.653 145.878 222.307 141.056 219.524C136.233 216.741 133.585 210.845 133.585 202.909V192.978C133.585 184.388 130.668 177.964 125.362 174.904C120.056 171.844 113.042 172.524 105.598 176.819L68.0284 198.695C67.8316 198.811 67.76 199.062 67.8763 199.259C67.9927 199.455 68.2432 199.527 68.44 199.411L106.009 177.535C113.185 173.392 119.913 172.712 124.942 175.62C129.979 178.528 132.753 184.692 132.753 192.978V202.909C132.753 211.149 135.553 217.305 140.635 220.24C142.756 221.457 145.127 222.056 147.694 222.056Z" fill="#2CD9C5"/>
<path d="M155.759 123.169L148.781 119.146C148.13 118.775 147.601 117.764 147.579 116.899C147.568 116.033 148.073 115.629 148.725 116L155.703 120.023C156.355 120.393 156.883 121.405 156.905 122.27C156.917 123.146 156.4 123.551 155.759 123.169Z" fill="#2CD9C5"/>
<path d="M145.248 116.288L134.966 110.355C134.315 109.984 133.786 108.973 133.764 108.107C133.753 107.242 134.258 106.838 134.91 107.208L145.192 113.142C145.844 113.512 146.372 114.524 146.394 115.389C146.405 116.265 145.889 116.67 145.248 116.288Z" fill="#2CD9C5"/>
<path d="M140.582 100.313L136.222 97.7957C135.57 97.4249 135.042 96.4136 135.02 95.5483C135.009 94.6831 135.514 94.2786 136.166 94.6494L140.526 97.1664C141.178 97.5372 141.706 98.5486 141.728 99.4138C141.751 100.279 141.234 100.684 140.582 100.313Z" fill="#2CD9C5"/>
<path d="M142.84 129.633L131.199 122.914C130.547 122.543 130.019 121.532 129.996 120.666C129.985 119.801 130.491 119.397 131.142 119.768L142.784 126.487C143.436 126.858 143.964 127.869 143.986 128.735C144.009 129.611 143.492 130.004 142.84 129.633Z" fill="#2CD9C5"/>
<path d="M142.84 149.728L131.199 143.008C130.547 142.637 130.019 141.626 129.996 140.761C129.985 139.895 130.491 139.491 131.142 139.862L142.784 146.581C143.436 146.952 143.964 147.964 143.986 148.829C144.009 149.705 143.492 150.099 142.84 149.728Z" fill="#2CD9C5"/>
<path d="M162.882 127.044L160.084 125.426C159.433 125.055 158.904 124.043 158.882 123.178C158.871 122.313 159.376 121.908 160.028 122.279L162.826 123.897C163.478 124.268 164.006 125.279 164.028 126.145C164.04 127.021 163.523 127.426 162.882 127.044Z" fill="#2CD9C5"/>
<path d="M162.301 141.241L158.829 139.24C158.177 138.87 157.649 137.858 157.626 136.993C157.615 136.128 158.121 135.723 158.772 136.094L162.244 138.094C162.896 138.465 163.424 139.476 163.447 140.342C163.458 141.207 162.941 141.611 162.301 141.241Z" fill="#2CD9C5"/>
<path d="M162.301 161.335L158.829 159.335C158.177 158.964 157.649 157.953 157.626 157.088C157.615 156.222 158.121 155.818 158.772 156.189L162.244 158.189C162.896 158.56 163.424 159.571 163.447 160.436C163.458 161.301 162.941 161.706 162.301 161.335Z" fill="#2CD9C5"/>
<path d="M155.427 136.998L146.269 131.705C145.618 131.334 145.09 130.323 145.067 129.458C145.056 128.593 145.561 128.188 146.213 128.559L155.371 133.851C156.023 134.222 156.551 135.233 156.574 136.099C156.596 136.964 156.079 137.368 155.427 136.998Z" fill="#2CD9C5"/>
<path d="M155.427 157.092L146.269 151.8C145.618 151.429 145.09 150.417 145.067 149.552C145.056 148.687 145.561 148.282 146.213 148.653L155.371 153.946C156.023 154.317 156.551 155.328 156.574 156.193C156.596 157.058 156.079 157.463 155.427 157.092Z" fill="#2CD9C5"/>
<path d="M162.901 148.062L156.317 144.264C155.665 143.893 155.137 142.882 155.114 142.017C155.103 141.152 155.609 140.747 156.26 141.118L162.845 144.916C163.497 145.287 164.025 146.298 164.048 147.163C164.059 148.04 163.553 148.433 162.901 148.062Z" fill="#2CD9C5"/>
<path d="M155.399 109.539L143.758 102.819C143.106 102.449 142.578 101.437 142.555 100.572C142.544 99.7068 143.05 99.3022 143.701 99.6731L155.343 106.393C155.994 106.764 156.523 107.775 156.545 108.64C156.556 109.505 156.039 109.91 155.399 109.539Z" fill="#2CD9C5"/>
<path d="M162.784 106.993L142.502 95.284C141.85 94.9132 141.322 93.9018 141.299 93.0366C141.288 92.1714 141.794 91.7668 142.446 92.1377L162.728 103.846C163.38 104.217 163.908 105.229 163.93 106.094C163.953 106.97 163.436 107.375 162.784 106.993Z" fill="#2CD9C5"/>
<path d="M162.934 120.842L151.293 114.123C150.641 113.752 150.113 112.74 150.091 111.875C150.079 111.01 150.585 110.605 151.237 110.976L162.878 117.696C163.53 118.067 164.058 119.078 164.08 119.943C164.092 120.808 163.575 121.213 162.934 120.842Z" fill="#2CD9C5"/>
<path d="M163.054 114.049L158.829 111.611C158.177 111.24 157.649 110.229 157.626 109.363C157.615 108.498 158.121 108.094 158.772 108.464L162.997 110.903C163.649 111.274 164.177 112.285 164.2 113.15C164.222 114.027 163.705 114.42 163.054 114.049Z" fill="#2CD9C5"/>
<path d="M162.771 133.505L148.781 125.426C148.13 125.055 147.601 124.043 147.579 123.178C147.568 122.313 148.073 121.908 148.725 122.279L162.715 130.359C163.367 130.729 163.895 131.741 163.917 132.606C163.928 133.482 163.423 133.876 162.771 133.505Z" fill="#2CD9C5"/>
<path d="M163.204 154.909L151.293 148.032C150.641 147.661 150.113 146.65 150.091 145.784C150.079 144.919 150.585 144.515 151.237 144.885L163.148 151.762C163.8 152.133 164.328 153.145 164.35 154.01C164.361 154.875 163.856 155.28 163.204 154.909Z" fill="#2CD9C5"/>
<path d="M148.224 179.684L141.246 175.662C140.594 175.291 140.066 174.28 140.044 173.414C140.032 172.549 140.538 172.145 141.19 172.515L148.168 176.538C148.819 176.909 149.348 177.92 149.37 178.785C149.381 179.651 148.864 180.055 148.224 179.684Z" fill="#2CD9C5"/>
<path d="M162.831 187.811L152.549 181.877C151.897 181.507 151.369 180.495 151.347 179.63C151.335 178.765 151.841 178.36 152.493 178.731L162.774 184.664C163.426 185.035 163.954 186.046 163.977 186.912C163.988 187.777 163.471 188.181 162.831 187.811Z" fill="#2CD9C5"/>
<path d="M138.07 160.596L133.71 158.079C133.059 157.708 132.531 156.697 132.508 155.832C132.497 154.967 133.003 154.562 133.654 154.933L138.014 157.45C138.666 157.821 139.194 158.832 139.217 159.697C139.228 160.574 138.711 160.978 138.07 160.596Z" fill="#2CD9C5"/>
<path d="M136.508 172.256L133.71 170.638C133.059 170.267 132.531 169.256 132.508 168.391C132.497 167.525 133.003 167.121 133.654 167.492L136.452 169.11C137.104 169.481 137.632 170.492 137.655 171.357C137.666 172.222 137.149 172.627 136.508 172.256Z" fill="#2CD9C5"/>
<path d="M154.143 169.822L142.502 163.103C141.85 162.732 141.322 161.72 141.299 160.855C141.288 159.99 141.794 159.585 142.446 159.956L154.087 166.676C154.739 167.047 155.267 168.058 155.289 168.923C155.3 169.8 154.795 170.193 154.143 169.822Z" fill="#2CD9C5"/>
<path d="M162.784 168.532L142.502 156.823C141.85 156.452 141.322 155.441 141.299 154.576C141.288 153.71 141.794 153.306 142.446 153.677L162.728 165.385C163.38 165.756 163.908 166.768 163.93 167.633C163.953 168.498 163.436 168.903 162.784 168.532Z" fill="#2CD9C5"/>
<path d="M162.934 182.381L151.293 175.662C150.641 175.291 150.113 174.28 150.091 173.414C150.079 172.549 150.585 172.145 151.237 172.515L162.878 179.235C163.53 179.606 164.058 180.617 164.08 181.482C164.092 182.359 163.586 182.752 162.934 182.381Z" fill="#2CD9C5"/>
<path d="M163.054 175.147L158.829 172.708C158.177 172.337 157.649 171.326 157.626 170.461C157.615 169.596 158.121 169.191 158.772 169.562L162.997 172C163.649 172.371 164.177 173.382 164.2 174.248C164.211 175.113 163.694 175.517 163.054 175.147Z" fill="#2CD9C5"/>
<path d="M131.852 73.3463C130.83 72.7563 130.028 72.1096 129.445 71.4063C128.862 70.7029 128.544 70.0096 128.492 69.3262C128.486 69.2696 128.483 69.1879 128.483 69.0812C128.483 68.7946 128.518 68.5046 128.587 68.2112C128.657 67.9179 128.74 67.6696 128.838 67.4662L129.67 68.4063C129.502 68.9163 129.427 69.3096 129.445 69.5863C129.485 69.8629 129.716 70.2063 130.138 70.6163C130.559 71.0196 131.136 71.4363 131.87 71.8663C132.614 72.2897 133.192 72.5664 133.602 72.6964C134.017 72.8231 134.332 72.8247 134.546 72.7014C134.765 72.5814 134.95 72.3314 135.1 71.9514L136 72.5915C135.891 72.9081 135.836 73.1831 135.836 73.4165C135.836 73.6298 135.882 73.8131 135.974 73.9665C136.073 74.1231 136.217 74.2565 136.408 74.3665L136.477 75.1565L136.408 75.8565C136.084 75.6698 135.798 75.3948 135.55 75.0314C135.308 74.6714 135.16 74.3031 135.108 73.9264C134.751 74.2064 134.312 74.2931 133.792 74.1864C133.278 74.0764 132.632 73.7964 131.852 73.3463ZM131.393 67.9213L132.121 69.1813L131.393 69.6113L130.657 68.3363L131.393 67.9213ZM132.917 68.8014L133.645 70.0614L132.917 70.4914L132.181 69.2163L132.917 68.8014ZM136.314 74.3124L136.963 74.6875C137.616 75.0642 138.228 75.3408 138.799 75.5175C139.371 75.6875 139.974 75.7692 140.609 75.7626C140.453 75.5992 140.248 75.3709 139.994 75.0776C139.486 74.4842 139.045 74.0792 138.669 73.8625C138.45 73.7359 138.254 73.6925 138.081 73.7325C137.913 73.7692 137.783 73.8475 137.691 73.9675L136.963 72.9375C137.402 72.1975 137.982 72.0358 138.704 72.4525C138.946 72.5925 139.18 72.7742 139.405 72.9975C139.631 73.2209 139.96 73.5842 140.393 74.0876C140.728 74.4809 141.011 74.7976 141.241 75.0376C141.478 75.2809 141.738 75.5176 142.021 75.7476L142.064 77.1126C141.908 77.076 141.602 77.0693 141.146 77.0926C141.112 77.0993 141.08 77.1043 141.051 77.1076C141.022 77.1043 140.996 77.1026 140.973 77.1026C140.402 77.1192 139.905 77.1026 139.484 77.0526C139.062 77.0025 138.632 76.9009 138.193 76.7475C137.754 76.5875 137.258 76.3475 136.704 76.0275L136.314 75.8024L136.314 74.3124ZM138.02 70.4375C138.199 70.3408 138.375 70.2392 138.548 70.1325L138.817 69.9775L139.613 71.3576C139.55 71.4009 139.351 71.5192 139.016 71.7125C139.016 71.7125 138.949 71.7509 138.817 71.8275L138.02 70.4375ZM142.882 79.535C142.94 79.1284 142.969 78.465 142.969 77.545C142.969 76.625 142.943 75.6467 142.891 74.61C142.845 73.57 142.79 72.8284 142.726 72.385L143.809 72.7201C143.861 73.1367 143.907 73.8401 143.947 74.8301C143.988 75.8201 144.008 76.7817 144.008 77.7151C144.008 78.8684 143.974 79.7151 143.904 80.2551L142.882 79.535ZM146.711 81.8555C146.209 81.5655 145.79 81.2372 145.455 80.8705C145.12 80.4971 144.86 80.1671 144.676 79.8805L145.143 79.1005C145.351 79.3405 145.565 79.5671 145.784 79.7805C146.004 79.9938 146.272 80.1922 146.59 80.3755C146.901 80.5489 147.155 80.6555 147.352 80.6955C147.554 80.7322 147.686 80.7222 147.75 80.6655C147.756 80.6555 147.759 80.6305 147.759 80.5905C147.759 80.4505 147.704 80.2355 147.594 79.9455C147.49 79.6522 147.303 79.2705 147.031 78.8005C146.766 78.3272 146.408 77.7838 145.957 77.1705L146.581 76.2205C147.25 77.1539 147.779 78.0555 148.166 78.9256C148.558 79.7989 148.755 80.5289 148.755 81.1156C148.755 81.3956 148.708 81.6256 148.616 81.8056C148.477 82.0989 148.232 82.2439 147.88 82.2406C147.528 82.2305 147.138 82.1022 146.711 81.8555ZM151.781 84.7327C151.596 84.626 151.425 84.4877 151.27 84.3177C151.235 84.9244 150.998 85.3644 150.559 85.6377C150.121 85.9177 149.541 86.0193 148.819 85.9426L148.291 84.3776C148.672 84.4176 149.021 84.4093 149.338 84.3526C149.656 84.3026 149.904 84.2126 150.083 84.0827C150.268 83.956 150.36 83.8093 150.36 83.6427C150.36 83.3693 150.207 82.5377 149.901 81.1476L149.858 80.9226L150.828 81.0427C150.891 81.286 150.966 81.626 151.053 82.0627C151.128 82.3794 151.22 82.6294 151.33 82.8127C151.446 82.9927 151.596 83.136 151.78 83.2427L151.858 83.2877L151.928 84.0777L151.858 84.7777L151.781 84.7327ZM151.73 83.9637L151.8 83.2537L152.57 83.6987C153.142 84.0288 153.546 84.2054 153.783 84.2288C154.019 84.2521 154.138 84.1471 154.138 83.9138C154.138 83.7671 154.077 83.4621 153.956 82.9988C153.835 82.5288 153.739 82.1838 153.67 81.9638L154.579 81.9088C154.695 82.2622 154.81 82.6988 154.926 83.2188C155.041 83.7322 155.099 84.1622 155.099 84.5088C155.099 85.2022 154.903 85.6188 154.51 85.7588C154.123 85.9021 153.543 85.7504 152.77 85.3038L151.8 84.7437L151.73 83.9637ZM151.878 86.2887C151.878 86.2887 151.97 86.2354 152.155 86.1287L152.562 85.8737C152.562 85.8737 152.718 86.1438 153.029 86.6838L153.263 87.0888L152.562 87.4737L151.878 86.2887ZM153.384 87.6288C153.384 87.6288 153.52 87.8638 153.791 88.3338L153.999 88.6938L153.384 89.0388L152.778 87.9888L153.384 87.6288ZM154.198 86.8188C154.256 86.9255 154.429 87.2288 154.718 87.7288C154.718 87.7288 154.776 87.8288 154.891 88.0288L154.199 88.4188L153.506 87.2288L154.198 86.8188ZM156.536 89.1386C156.917 89.1786 157.267 89.1703 157.584 89.1136C157.902 89.0636 158.15 88.9737 158.329 88.8437C158.514 88.717 158.606 88.5703 158.606 88.4037C158.606 88.1303 158.453 87.2987 158.147 85.9087L158.104 85.6837L159.073 85.8037C159.212 86.3437 159.322 86.9004 159.403 87.4737C159.483 88.0404 159.524 88.527 159.524 88.9337C159.524 89.587 159.302 90.062 158.857 90.3587C158.413 90.662 157.815 90.777 157.065 90.7036L156.536 89.1386ZM160.163 91.2024C160.954 91.4591 161.568 91.5841 162.007 91.5775C162.446 91.5775 162.735 91.4342 162.873 91.1475C162.238 90.7675 161.724 90.3975 161.332 90.0375C160.939 89.6708 160.665 89.2491 160.509 88.7724C160.405 88.4524 160.353 88.1358 160.353 87.8224C160.353 87.4291 160.425 87.0808 160.569 86.7774C160.714 86.4674 160.913 86.2625 161.167 86.1625C161.421 86.0558 161.698 86.0891 161.998 86.2625C162.299 86.4358 162.576 86.7258 162.83 87.1325C163.084 87.5392 163.294 88.0109 163.462 88.5475C163.635 89.0875 163.751 89.6342 163.808 90.1875L164.172 90.3976L164.241 91.1876L164.172 91.8876L163.782 91.6625C163.638 92.3192 163.286 92.7392 162.726 92.9225C162.172 93.1092 161.45 93.0425 160.561 92.7224L160.163 91.2024ZM161.306 88.3925C161.386 88.5658 161.563 88.7575 161.834 88.9675C162.105 89.1708 162.457 89.4008 162.89 89.6575C162.81 89.1708 162.68 88.7292 162.501 88.3325C162.322 87.9292 162.12 87.6625 161.894 87.5325C161.779 87.4658 161.669 87.4525 161.565 87.4925C161.467 87.5291 161.389 87.6041 161.332 87.7175C161.274 87.8308 161.245 87.9541 161.245 88.0875C161.245 88.2008 161.265 88.3025 161.306 88.3925ZM164.062 90.334L164.123 90.369C164.642 90.669 165.029 90.8623 165.283 90.949C165.537 91.029 165.704 91.029 165.785 90.949C165.866 90.869 165.907 90.709 165.907 90.469C165.907 90.2757 165.878 89.9424 165.82 89.469L166.712 89.784C166.793 90.3174 166.833 90.8907 166.833 91.504C166.856 91.6307 166.92 91.7674 167.024 91.9141C167.128 92.0607 167.278 92.1907 167.474 92.3041L167.526 92.3341L167.595 93.1241L167.526 93.8241L167.474 93.7941C167.243 93.6607 167.03 93.4741 166.833 93.234C166.637 92.994 166.469 92.7307 166.331 92.444C166.164 92.594 165.909 92.624 165.569 92.534C165.228 92.444 164.746 92.219 164.123 91.859L164.062 91.824L164.062 90.334ZM164.746 86.259L165.473 87.519L164.746 87.949L164.01 86.674L164.746 86.259ZM166.27 87.139L166.998 88.3991L166.27 88.829L165.534 87.554L166.27 87.139ZM167.436 92.2823L167.731 92.4523C168.222 92.7357 168.629 92.9273 168.952 93.0274C169.275 93.1207 169.489 93.1207 169.593 93.0274C169.547 92.6807 169.376 92.2024 169.082 91.5924C168.787 90.9824 168.354 90.2457 167.783 89.3823L167.904 88.1523L171.117 88.4474L171.463 89.8374L168.96 89.6224C169.151 89.919 169.367 90.3007 169.61 90.7674C169.858 91.2307 170.078 91.7207 170.268 92.2374C170.464 92.7574 170.563 93.2074 170.563 93.5874C170.563 93.7007 170.548 93.8224 170.519 93.9524C170.404 94.4257 170.098 94.6524 169.601 94.6324C169.105 94.6057 168.481 94.3757 167.731 93.9423L167.436 93.7723L167.436 92.2823ZM174.141 97.6437C173.506 97.277 173.047 96.802 172.764 96.2187C172.487 95.6386 172.349 94.9186 172.349 94.0586C172.343 93.2353 172.32 92.392 172.279 91.5286C172.245 90.662 172.193 89.9353 172.123 89.3486L173.197 89.6987C173.255 90.2187 173.301 90.9053 173.336 91.7587C173.37 92.6053 173.388 93.382 173.388 94.0887L173.388 94.4687C173.382 94.8053 173.397 95.0703 173.431 95.2637C173.466 95.457 173.535 95.6203 173.639 95.7537C173.749 95.8904 173.916 96.0237 174.141 96.1537L174.185 96.1787L174.254 96.9687L174.185 97.6687L174.141 97.6437ZM174.101 96.1302L174.23 96.2052C174.918 96.6019 175.463 96.8802 175.867 97.0402C176.277 97.1969 176.58 97.2319 176.777 97.1453C176.615 97.0653 176.497 97.0036 176.421 96.9603C176.006 96.7202 175.636 96.4236 175.313 96.0702C174.995 95.7202 174.767 95.3452 174.629 94.9452C174.525 94.6252 174.473 94.3085 174.473 93.9952C174.473 93.6152 174.542 93.2852 174.681 93.0052C174.819 92.7252 175.013 92.5435 175.261 92.4602C175.509 92.3702 175.783 92.4119 176.084 92.5852C176.424 92.7819 176.73 93.1153 177.002 93.5853C177.273 94.0486 177.484 94.577 177.634 95.1703C177.79 95.767 177.868 96.3486 177.868 96.9153C177.868 97.8353 177.567 98.372 176.967 98.5253C176.372 98.6819 175.454 98.4019 174.213 97.6852L174.101 97.6202L174.101 96.1302ZM175.391 90.3252C175.564 90.2186 175.74 90.1169 175.919 90.0202C176.19 90.4769 176.456 90.9369 176.716 91.4003C176.543 91.5069 176.366 91.6086 176.187 91.7052L175.919 91.8602L175.122 90.4802L175.391 90.3252ZM175.4 94.5702C175.486 94.7469 175.642 94.9402 175.867 95.1502C176.092 95.3536 176.346 95.5369 176.629 95.7003C176.704 95.7436 176.817 95.8019 176.967 95.8753C176.892 95.4053 176.765 94.9753 176.586 94.5853C176.407 94.1886 176.208 93.9269 175.988 93.8002C175.809 93.6969 175.656 93.7019 175.529 93.8152C175.402 93.9219 175.339 94.0752 175.339 94.2752C175.339 94.3819 175.359 94.4802 175.4 94.5702Z" fill="#01B5A0"/>
<path d="M192.582 274.519L202.862 268.578L213.152 274.519L202.862 280.46L192.582 274.519Z" fill="#D4ECFF"/>
<path d="M214.41 261.742L224.699 255.801L234.98 261.742L224.699 267.683L214.41 261.742Z" fill="#D4ECFF"/>
<path d="M236.18 249.27L246.469 243.338L256.749 249.27L246.469 255.211L236.18 249.27Z" fill="#D4ECFF"/>
<path d="M224.699 261.743V230.07L214.41 224.129V255.802L224.699 261.743Z" fill="#C13D1A"/>
<path d="M224.699 230.07L234.98 224.129V255.802L224.699 261.743V230.07Z" fill="#FF8F6D"/>
<path d="M224.699 261.743V230.07L214.41 224.129V255.802L224.699 261.743Z" fill="#FF8F6D"/>
<path d="M202.858 274.52V256.707L192.578 250.766V268.58L202.858 274.52Z" fill="#FF8F6D"/>
<path d="M202.855 256.707L213.145 250.766V268.58L202.855 274.52V256.707Z" fill="#FF8F6D"/>
<path d="M192.578 250.765L202.858 244.824L213.148 250.765L202.858 256.706L192.578 250.765Z" fill="#FAD8BA"/>
<path d="M246.469 249.272V205.726L236.18 199.785V243.34L246.469 249.272Z" fill="#FF8F6D"/>
<path d="M246.469 205.726L256.749 199.785V243.34L246.469 249.272V205.726Z" fill="#FF8F6D"/>
<path d="M236.18 199.785L246.469 193.844L256.749 199.785L246.469 205.726L236.18 199.785Z" fill="#FAD8BA"/>
<path d="M214.41 224.129L224.699 218.197L234.98 224.129L224.699 230.07L214.41 224.129Z" fill="#FAD8BA"/>
<path d="M43.2559 215.096C43.2559 215.096 40.0796 213.494 38.1291 215.883C36.1787 218.263 33.3871 223.9 33.3066 227.702C33.2171 231.505 36.3129 231.245 38.156 230.351C39.9991 229.447 45.3764 221.654 45.6985 220.124C46.0206 218.594 45.3138 216.527 44.7948 216.125C44.2759 215.713 43.2559 215.096 43.2559 215.096Z" fill="#5793CE"/>
<path d="M43.9418 214.325L44.0849 217.618C44.1118 218.316 43.7628 218.987 43.1544 219.327C42.5997 219.64 41.7944 219.881 40.7029 219.711C38.314 219.327 38.0992 218.647 37.9292 215.354C37.7592 212.061 43.9418 214.325 43.9418 214.325Z" fill="#D4ECFF"/>
<path d="M31.6309 208.77C31.6309 208.77 28.4546 207.168 26.5041 209.557C24.5537 211.937 21.7621 217.574 21.6816 221.376C21.5921 225.179 24.6879 224.919 26.531 224.025C28.3741 223.121 33.7514 215.328 34.0735 213.798C34.3956 212.268 33.6887 210.201 33.1698 209.799C32.6509 209.387 31.6309 208.77 31.6309 208.77Z" fill="#5793CE"/>
<path d="M32.3168 207.999L32.4599 211.292C32.4868 211.989 32.1378 212.66 31.5294 213C30.9747 213.314 30.1694 213.555 29.0779 213.385C26.689 213 26.4742 212.32 26.3042 209.028C26.1342 205.735 32.3168 207.999 32.3168 207.999Z" fill="#D4ECFF"/>
<path d="M60.6559 147.607C59.7165 132.316 44.0947 149.852 44.0947 149.852L33.4027 160.329L23.7755 170.905C21.8966 172.972 21.0198 175.763 21.3866 178.528L25.2787 208.179C25.4666 209.646 26.7281 210.72 28.2044 210.711C28.6249 210.711 29.0991 210.666 29.6449 210.586C33.1164 210.049 32.8659 206.739 32.8659 206.739L32.1501 179.002L52.3708 166.816C52.3619 166.825 61.5954 162.897 60.6559 147.607Z" fill="#2D99FF"/>
<path d="M72.2771 153.431C71.3376 138.14 55.7158 155.676 55.7158 155.676L45.0238 166.154L35.3966 176.729C33.5177 178.796 32.6409 181.588 33.0077 184.352L36.8998 214.003C37.0877 215.471 38.3492 216.544 39.8255 216.535C40.246 216.535 40.7202 216.491 41.266 216.41C44.7375 215.873 44.487 212.563 44.487 212.563L43.7712 184.827L63.9919 172.64C63.983 172.658 73.2165 168.722 72.2771 153.431Z" fill="#2D99FF"/>
<path d="M63.0355 104.348C74.8816 109.26 74.64 116.257 74.64 116.257C74.64 116.257 72.3227 141.918 73.1101 159.06C73.4411 166.227 35.0397 166.773 40.7659 147.653C47.521 125.115 44.989 106.871 48.1473 104.116C51.3147 101.369 59.9666 103.078 63.0355 104.348Z" fill="#83CFFF"/>
<path d="M66.8481 110.557C66.2307 112.964 63.0813 114.225 59.8156 113.384C56.5498 112.543 54.4025 109.913 55.0199 107.506C55.6372 105.099 58.7866 103.837 62.0524 104.679C65.3181 105.52 67.4654 108.15 66.8481 110.557Z" fill="#FFC2B0"/>
<path d="M61.8115 114.206C61.1137 114.206 60.3979 114.116 59.6731 113.928C57.9732 113.49 56.5058 112.586 55.5216 111.387C54.5017 110.135 54.1259 108.703 54.4748 107.361C55.1727 104.659 58.6353 103.201 62.1963 104.122C63.8962 104.561 65.3636 105.464 66.3478 106.663C67.3678 107.916 67.7435 109.347 67.3946 110.689C66.8399 112.846 64.5225 114.206 61.8115 114.206ZM60.0221 104.981C57.8211 104.981 55.9869 106.001 55.5574 107.647C55.3069 108.632 55.6022 109.705 56.3895 110.672C57.2216 111.692 58.4832 112.461 59.9505 112.837C62.9031 113.597 65.7573 112.515 66.2941 110.412C66.5446 109.428 66.2493 108.354 65.462 107.388C64.6299 106.368 63.3684 105.599 61.901 105.223C61.2658 105.062 60.6305 104.981 60.0221 104.981Z" fill="white"/>
<path d="M58.2866 103.819C58.2866 103.819 58.385 104.293 58.1882 108.051C58.1256 109.232 62.2502 110.332 63.3239 109.268C64.3886 108.203 63.9681 107.094 64.2186 103.076C64.4691 99.05 58.2866 103.819 58.2866 103.819Z" fill="#FFC2B0"/>
<path d="M64.2179 103.066C64.2179 103.066 63.1979 106.788 58.1875 108.22L58.268 104.838L64.2179 103.066Z" fill="#EA9C92"/>
<path d="M67.3936 93.6006C68.6552 98.4769 65.7205 103.452 60.8532 104.704C55.977 105.966 51.0023 103.031 49.7497 98.1637C48.4881 93.2875 51.4228 88.3128 56.2901 87.0602C61.1574 85.7987 66.132 88.7334 67.3936 93.6006Z" fill="#FFC2B0"/>
<path d="M60.6553 96.2236C60.6553 96.2236 55.6359 98.371 52.1644 98.3978C48.6929 98.4246 49.4534 95.5079 49.4534 95.5079L59.7695 94.0137L60.6553 96.2236Z" fill="#EA9C92"/>
<path d="M51.1286 96.7862C51.1286 96.7862 55.5038 94.9342 59.3332 95.7036C60.2369 95.8826 61.0689 96.3657 61.6505 97.0815C61.8384 97.3141 62.08 97.5289 62.3484 97.5915C63.0284 97.7436 64.1378 94.9252 65.462 94.8626C66.7862 94.8 67.663 95.7305 66.5804 97.4662C65.4978 99.202 65.8646 101.144 66.3657 101.421C66.8667 101.698 72.1545 97.6452 67.4841 88.4027C62.8136 79.1602 50.9675 84.1349 49.1244 86.0138C49.1244 86.0138 47.1829 87.7048 45.5992 86.2017C45.6171 86.2017 43.8455 99.4615 51.1286 96.7862Z" fill="#FAD4BB"/>
<path d="M67.9898 135.008V141.942C67.9898 142.739 67.6587 143.499 67.0682 144.027L52.8242 157.018L54.4437 159.497L73.2597 145.852C74.1365 145.217 74.7002 144.233 74.8165 143.159L76.087 131.062L67.9898 135.008Z" fill="#FFC2B0"/>
<path d="M73.6404 112.793C73.6404 112.793 77.9619 119.289 79.5724 136.405C79.5724 136.405 72.1909 138.794 68.0036 137.434C63.8163 136.074 73.6404 112.793 73.6404 112.793Z" fill="#83CFFF"/>
<path d="M67.2042 121.006C67.2042 121.006 65.5132 130.06 65.4148 134.319C65.388 135.491 66.1037 136.547 67.2042 136.941V121.006Z" fill="#2D99FF"/>
<path d="M63.5055 166.037L60.3561 165.626L40.028 153.887C39.3748 153.511 38.2386 153.556 37.487 153.994L23.082 162.306L21.1762 162.056V163.953C21.1673 164.203 21.3015 164.445 21.6146 164.624L44.6448 177.919C45.2979 178.295 46.4342 178.25 47.1858 177.812L62.8881 168.757C63.3086 168.516 63.5234 168.203 63.5144 167.898V166.037H63.5055Z" fill="#83CFFF"/>
<path d="M48.2353 158.621L46.7948 157.789H30.9225L23.0937 162.307L21.1879 162.057V163.954C21.179 164.204 21.3132 164.446 21.6263 164.625L44.6564 177.92C44.9964 178.117 45.4796 178.198 45.9717 178.162L48.2353 158.621Z" fill="#83CFFF"/>
<path d="M22.029 162.164L21.1879 162.057V163.953C21.179 164.204 21.3132 164.446 21.6263 164.625L22.029 164.857V162.164Z" fill="#83CFFF"/>
<path d="M44.8867 178.017C45.5041 178.25 46.3899 178.196 47.043 177.883V174.662H44.8867V178.017Z" fill="white"/>
<path d="M44.6555 176.023L21.6254 162.727C20.9722 162.352 21.0528 161.698 21.8043 161.26L37.4888 152.205C38.2404 151.767 39.3767 151.722 40.0298 152.098L63.0599 165.394C63.7131 165.769 63.6326 166.423 62.881 166.861L47.2055 175.916C46.4449 176.345 45.3086 176.399 44.6555 176.023Z" fill="white"/>
<path d="M44.2696 174L25.1136 162.941C24.5678 162.628 24.6394 162.082 25.2657 161.724L33.6671 157C34.2934 156.642 35.2418 156.597 35.7787 156.911L54.9346 167.969C55.4804 168.282 55.4088 168.828 54.7825 169.186L46.3811 173.91C45.7548 174.277 44.8064 174.313 44.2696 174Z" fill="#D4ECFF"/>
<path d="M38.3809 151.767L38.1393 153.36C37.9335 154.711 37.9693 156.089 38.2467 157.431L38.533 158.835C38.694 159.623 39.3203 160.24 40.1077 160.383C40.725 160.5 41.3156 160.061 41.3782 159.435L41.754 156.035C41.754 156.035 42.6218 157.171 43.0424 157.171C43.4629 157.171 42.5771 153.771 41.6198 151.839C40.6803 149.915 38.3809 151.767 38.3809 151.767Z" fill="#FFC2B0"/>
<path d="M46.1938 126.509L43.7243 131.403C43.1428 132.557 42.7938 133.818 42.7133 135.116L41.6396 151.847L38.3918 151.767L36.9155 132.977C36.8708 132.396 36.8976 131.814 36.996 131.242L38.6781 121.713L46.1938 126.509Z" fill="#FFC2B0"/>
<path d="M43.8788 177.291L41.9462 174.768L21.636 163.011C20.9829 162.636 20.455 161.625 20.455 160.757L20.4729 144.133L19.3008 142.612L20.4013 141.977C20.6071 141.842 20.8934 141.842 21.1976 142.021L44.2188 155.344C44.8719 155.719 45.3998 156.73 45.3998 157.598L45.3819 175.708C45.3819 176.2 45.2119 176.54 44.9525 176.674L43.8788 177.291Z" fill="#2D99FF"/>
<path d="M29.8305 167.762L28.39 166.93L20.4717 153.169L20.4807 144.133L19.3086 142.612L20.4091 141.977C20.6149 141.842 20.9012 141.842 21.2054 142.021L44.2266 155.344C44.5666 155.54 44.8797 155.916 45.0945 156.355L29.8305 167.762Z" fill="#2D99FF"/>
<path d="M19.8275 143.284L19.3086 142.604L20.4091 141.969C20.6149 141.835 20.9012 141.835 21.2054 142.013L21.608 142.246L19.8275 143.284Z" fill="#83CFFF"/>
<path d="M44.4324 155.488C44.9424 155.909 45.336 156.696 45.3897 157.43L43.144 158.727L42.0703 156.857L44.4324 155.488Z" fill="#2D99FF"/>
<path d="M43.1264 155.98L20.1052 142.658C19.452 142.282 18.9242 142.676 18.9242 143.552L18.9062 161.662C18.9062 162.53 19.4341 163.541 20.0873 163.916L43.1085 177.239C43.7616 177.615 44.2895 177.221 44.2895 176.344L44.3074 158.235C44.3074 157.367 43.7795 156.356 43.1264 155.98Z" fill="#83CFFF"/>
<path d="M54.4444 159.498L54.0776 160.258C53.6571 161.135 52.9861 161.878 52.154 162.388L49.8635 163.802C49.1566 164.24 48.253 164.276 47.5283 163.855C47.5014 163.837 47.4746 163.828 47.4477 163.81C46.723 163.354 46.6514 162.316 47.2509 161.699L49.6398 159.238C49.6398 159.238 48.2977 160.267 47.9219 159.856C47.6446 159.552 49.2193 158.075 50.4361 158.022C51.644 157.977 52.8161 157.02 52.8161 157.02L54.4444 159.498Z" fill="#FFC2B0"/>
<path d="M48.387 104.088C48.387 104.088 39.6277 113.617 36.0935 122.358C36.0935 122.358 39.0908 127.754 46.4186 129.874C53.7553 131.994 48.387 104.088 48.387 104.088Z" fill="#83CFFF"/>
<path d="M44.7713 129.31L46.1939 115.594L42.8477 128.442C43.4382 128.755 44.0913 129.041 44.7713 129.31Z" fill="#2D99FF"/>
<path d="M54.9429 102.166L52.5898 101.521C52.5898 101.521 53.7172 103.293 55.3545 103.74C56.9919 104.188 57.2513 102.801 57.2513 102.801L54.9429 102.166Z" fill="white"/>
<path d="M67.5133 98.3992C67.5133 99.124 66.9228 99.7145 66.1981 99.7145C65.4733 99.7145 64.8828 99.124 64.8828 98.3992C64.8828 97.6745 65.4733 97.084 66.1981 97.084C66.9317 97.084 67.5133 97.6745 67.5133 98.3992Z" fill="white"/>
<path d="M263.18 103.409L259.234 95.3832L267.26 91.4375L271.206 99.4632L263.18 103.409ZM261.623 96.1974L263.994 101.011L268.808 98.64L266.437 93.8264L261.623 96.1974Z" fill="#FF8F6D"/>
<path d="M93.8221 256.392C85.0538 251.328 70.8367 251.328 62.0684 256.392C53.3001 261.456 53.3001 269.661 62.0684 274.725C70.8367 279.789 85.0538 279.789 93.8221 274.725C102.59 269.661 102.59 261.456 93.8221 256.392ZM85.2417 269.768C81.2155 272.094 74.675 272.094 70.6488 269.768C66.6225 267.442 66.6225 263.666 70.6488 261.34C74.675 259.013 81.2155 259.013 85.2417 261.34C89.2769 263.675 89.2769 267.442 85.2417 269.768Z" fill="#D4ECFF"/>
<path d="M58.7629 253.393L66.7706 253.518C67.3611 252.748 68.2022 252.024 69.3027 251.388C73.7047 248.847 80.6299 248.651 85.4345 250.798L90.1945 246.324L97.5222 246.441C97.1643 246.208 96.7885 245.966 96.3949 245.743C86.2129 239.864 69.6964 239.864 59.5144 245.743C57.6445 246.825 56.1145 248.033 54.9335 249.313L58.7629 253.393Z" fill="#FF8F6D"/>
<path d="M97.5112 234.801V246.432L90.1835 246.325V234.693L97.5112 234.801Z" fill="#F993C1"/>
<path d="M85.4218 239.167V250.798L90.1817 246.325V234.693L85.4218 239.167Z" fill="#FF8F6D"/>
<path d="M66.7694 241.887V253.518L77.3092 244.929L85.4333 250.798V239.167L77.9534 235.543C77.9534 235.543 67.6552 238.692 67.1273 238.827C66.5815 238.961 66.7694 241.887 66.7694 241.887Z" fill="#FF8F6D"/>
<path d="M58.7577 241.762V253.393L66.7654 253.518V241.887L58.7577 241.762Z" fill="#FF8F6D"/>
<path d="M54.9218 237.674V249.305L58.7601 253.394V241.763L54.9218 237.674Z" fill="#F993C1"/>
<path d="M58.7629 241.762L66.7706 241.887C67.3611 241.118 68.2022 240.393 69.3027 239.758C73.7047 237.217 80.6299 237.02 85.4345 239.167L90.1945 234.693L97.5222 234.81C97.1643 234.577 96.7885 234.336 96.3949 234.112C86.2129 228.234 69.6964 228.234 59.5144 234.112C57.6445 235.194 56.1145 236.402 54.9335 237.682L58.7629 241.762Z" fill="#FAD8BA"/>
<path d="M87.8398 240.6V251.292L94.7739 249.627C94.7739 249.627 94.3713 243.373 94.2192 243.203C94.0671 243.033 87.8398 240.6 87.8398 240.6Z" fill="#D0AEFF"/>
<path d="M82.5977 251.291V262.922L83.3492 263.719L88.2344 260.9C88.2344 260.9 87.4739 252.025 87.3844 251.846C87.295 251.667 82.5977 251.291 82.5977 251.291Z" fill="#826AF9"/>
<path d="M92.0252 248.285L87.8379 252.231C91.3274 254.996 90.9158 258.888 86.5943 261.384C85.4132 262.064 84.0443 262.583 82.5859 262.923L86.9164 267.54L83.078 271.145C87.9543 270.582 92.5979 269.213 96.3825 267.03C105.133 261.974 106.359 254.226 100.06 248.41L92.0252 248.285Z" fill="#9E86FF"/>
<path d="M83.0857 259.515V271.147L92.5876 267.478L104.022 256.572L103.977 244.224L91.8808 253.807L83.0857 259.515Z" fill="#9E86FF"/>
<path d="M92.0252 236.654L87.8379 240.6C91.3274 243.365 90.9158 247.257 86.5943 249.753C85.4132 250.433 84.0443 250.952 82.5859 251.292L86.9164 255.909L83.078 259.514C87.9543 258.951 92.5979 257.582 96.3825 255.399C105.133 250.344 106.359 242.595 100.06 236.78L92.0252 236.654Z" fill="#F7D2FF"/>
<path d="M83.0528 267.477L79.2323 263.406C75.6892 263.62 72.0119 262.949 69.292 261.375C66.4825 259.755 65.3283 257.545 65.8204 255.434L56.7301 255.29L53.2317 251.568C50.1718 256.82 52.2565 262.842 59.5037 267.029C64.8273 270.098 71.8777 271.565 78.8476 271.422L83.0528 267.477Z" fill="#60F1C8"/>
<path d="M78.8497 259.802V271.433L51.8828 256.482V244.842L55.8196 246.434L78.8497 259.802Z" fill="#60F1C8"/>
<path d="M83.0529 255.846V267.477L78.8477 271.432V259.8L83.0529 255.846Z" fill="#2CD9C5"/>
<path d="M83.0528 255.846L79.2323 251.775C75.6892 251.989 72.0119 251.318 69.292 249.744C66.4825 248.124 65.3283 245.914 65.8204 243.803L56.7301 243.66L53.2317 239.938C50.1718 245.19 52.2565 251.211 59.5037 255.398C64.8273 258.467 71.8777 259.935 78.8476 259.791L83.0528 255.846Z" fill="#A4F7CC"/>
<path d="M22.5735 68.272C19.3704 68.272 16.7578 65.6594 16.7578 62.4563C16.7578 59.2532 19.3704 56.6406 22.5735 56.6406C25.7766 56.6406 28.3892 59.2532 28.3892 62.4563C28.3892 65.6594 25.7766 68.272 22.5735 68.272ZM22.5735 58.4301C20.3546 58.4301 18.5473 60.2374 18.5473 62.4563C18.5473 64.6752 20.3546 66.4826 22.5735 66.4826C24.7924 66.4826 26.5997 64.6752 26.5997 62.4563C26.5997 60.2374 24.7924 58.4301 22.5735 58.4301Z" fill="#2D99FF"/>
<path d="M8.44617 249.926C8.44617 252.261 6.55831 254.149 4.22309 254.149C1.88786 254.149 0 252.261 0 249.926C0 247.591 1.88786 245.703 4.22309 245.703C6.54936 245.703 8.44617 247.591 8.44617 249.926Z" fill="#D4ECFF"/>
<path d="M224.26 8.37209C224.26 11.1547 222.005 13.4004 219.231 13.4004C216.449 13.4004 214.203 11.1457 214.203 8.37209C214.203 5.5895 216.458 3.34375 219.231 3.34375C222.014 3.34375 224.26 5.59845 224.26 8.37209Z" fill="#A5F3FF"/>
<path d="M197.055 60.4077L173.13 46.5932C172.656 46.3158 172.226 46.3069 171.895 46.4948V46.4769L169.578 47.819C169.578 47.819 170.607 48.1948 171.207 48.4184V65.8387C171.207 67.2523 172.065 68.8986 173.13 69.516L195.999 82.7221V84.762L198.343 83.411L198.334 83.4021C198.728 83.1605 198.988 82.6326 198.988 81.8721V64.085C198.979 62.6714 198.12 61.0161 197.055 60.4077Z" fill="#D0AEFF"/>
<path d="M194.692 84.6895L170.767 70.875C169.703 70.2577 168.844 68.6114 168.844 67.1977V49.4107C168.844 47.997 169.703 47.3438 170.767 47.9523L194.692 61.7668C195.757 62.3841 196.616 64.0304 196.616 65.4441V83.2311C196.616 84.6537 195.757 85.3069 194.692 84.6895Z" fill="#FFBD98"/>
<path d="M178.815 64.7484C178.815 65.7774 178.09 66.1979 177.204 65.6789C176.31 65.16 175.594 63.9163 175.594 62.8874C175.594 61.8585 176.318 61.438 177.204 61.9569C178.099 62.4669 178.815 63.7195 178.815 64.7484Z" fill="white"/>
<path d="M183.709 67.5766C183.709 68.6055 182.985 69.026 182.099 68.5071C181.204 67.9881 180.488 66.7445 180.488 65.7155C180.488 64.6866 181.213 64.2661 182.099 64.785C182.985 65.295 183.709 66.5476 183.709 67.5766Z" fill="white"/>
<path d="M188.592 70.3949C188.592 71.4238 187.867 71.8444 186.982 71.3254C186.087 70.8065 185.371 69.5628 185.371 68.5339C185.371 67.505 186.096 67.0844 186.982 67.6034C187.876 68.1134 188.592 69.366 188.592 70.3949Z" fill="white"/>
<path d="M80.7353 33.2342L57.2668 19.6882C56.8015 19.4197 56.381 19.4108 56.0499 19.5897V19.5718L53.7773 20.8871C53.7773 20.8871 54.7884 21.2539 55.3789 21.4686V38.5578C55.3789 39.9447 56.2199 41.5641 57.2668 42.1636L79.6974 55.1191V57.1233L81.9969 55.7991H81.9879C82.3726 55.5665 82.6232 55.0386 82.6232 54.296V36.8489C82.6232 35.4531 81.7732 33.8337 80.7353 33.2342Z" fill="#2D99FF"/>
<path d="M78.4189 57.0594L54.9503 43.5133C53.9035 42.9139 53.0625 41.2944 53.0625 39.9076V22.4605C53.0625 21.0737 53.9035 20.4295 54.9503 21.029L78.4189 34.5751C79.4657 35.1745 80.3068 36.794 80.3068 38.1808V55.6279C80.3068 57.0147 79.4568 57.6589 78.4189 57.0594Z" fill="#A5F3FF"/>
<path d="M62.8431 37.4932C62.8431 38.5042 62.1363 38.9158 61.2594 38.4058C60.3826 37.9048 59.6758 36.67 59.6758 35.659C59.6758 34.648 60.3826 34.2364 61.2594 34.7464C62.1363 35.2564 62.8431 36.4821 62.8431 37.4932Z" fill="white"/>
<path d="M67.64 40.2569C67.64 41.2679 66.9331 41.6795 66.0563 41.1695C65.1795 40.6684 64.4727 39.4337 64.4727 38.4227C64.4727 37.4116 65.1795 37.0001 66.0563 37.5101C66.9331 38.02 67.64 39.2548 67.64 40.2569Z" fill="white"/>
<path d="M72.4329 43.0303C72.4329 44.0413 71.7261 44.4529 70.8493 43.9429C69.9724 43.4419 69.2656 42.2071 69.2656 41.1961C69.2656 40.1851 69.9724 39.7735 70.8493 40.2835C71.7261 40.7935 72.4329 42.0193 72.4329 43.0303Z" fill="white"/>
</svg>
