<svg width="42" height="42" viewBox="0 0 42 42" fill="none" xmlns="http://www.w3.org/2000/svg">
<g id="vuesax/bulk/box">
<g id="box">
<path id="Vector" opacity="0.4" d="M35.1752 12.145C35.1752 13.09 34.6677 13.9474 33.8627 14.3849L30.8177 16.0299L28.2277 17.4125L22.8552 20.3174C22.2777 20.6324 21.6477 20.79 21.0002 20.79C20.3527 20.79 19.7227 20.6324 19.1452 20.3174L8.1377 14.3849C7.3327 13.9474 6.8252 13.09 6.8252 12.145C6.8252 11.2 7.3327 10.3424 8.1377 9.90492L11.5852 8.04992L14.3327 6.56247L19.1452 3.9725C20.3002 3.3425 21.7002 3.3425 22.8552 3.9725L33.8627 9.90492C34.6677 10.3424 35.1752 11.2 35.1752 12.145Z" fill="#3366FF"/>
<path id="Vector_2" opacity="0.4" d="M17.3248 22.3824L7.08724 17.2549C6.29974 16.8524 5.38975 16.9049 4.63725 17.3599C3.88475 17.8149 3.44727 18.62 3.44727 19.495V29.1724C3.44727 30.8524 4.37474 32.3574 5.87974 33.1099L16.1172 38.22C16.4672 38.395 16.8523 38.4824 17.2373 38.4824C17.6923 38.4824 18.1473 38.36 18.5498 38.0975C19.3023 37.6425 19.7398 36.8374 19.7398 35.9624V26.285C19.7573 24.64 18.8298 23.1349 17.3248 22.3824Z" fill="#3366FF"/>
<path id="Vector_3" opacity="0.4" d="M38.5527 19.5127V29.1901C38.5527 30.8526 37.6252 32.3576 36.1202 33.1101L25.8827 38.2376C25.5327 38.4126 25.1477 38.5001 24.7627 38.5001C24.3077 38.5001 23.8527 38.3777 23.4327 38.1152C22.6977 37.6602 22.2427 36.8551 22.2427 35.9801V26.3201C22.2427 24.6401 23.1702 23.1351 24.6752 22.3826L28.4377 20.5101L31.0627 19.1976L34.9127 17.2726C35.7002 16.8701 36.6102 16.9051 37.3627 17.3776C38.0977 17.8326 38.5527 18.6377 38.5527 19.5127Z" fill="#3366FF"/>
<path id="Vector_4" d="M30.8174 16.03L28.2275 17.4125L11.585 8.04996L14.3325 6.5625L30.3975 15.6275C30.5725 15.7325 30.7124 15.8725 30.8174 16.03Z" fill="#3366FF"/>
<path id="Vector_5" d="M31.0625 19.1975V23.17C31.0625 23.8875 30.4675 24.4825 29.75 24.4825C29.0325 24.4825 28.4375 23.8875 28.4375 23.17V20.51L31.0625 19.1975Z" fill="#3366FF"/>
</g>
</g>
</svg>
