<svg width="42" height="42" viewBox="0 0 42 42" fill="none" xmlns="http://www.w3.org/2000/svg">
<g id="vuesax/bulk/barcode">
<g id="barcode">
<path id="Vector" opacity="0.4" d="M29.75 35.875H12.25C7 35.875 3.5 33.25 3.5 27.125V14.875C3.5 8.75 7 6.125 12.25 6.125H29.75C35 6.125 38.5 8.75 38.5 14.875V27.125C38.5 33.25 35 35.875 29.75 35.875Z" fill="#3366FF"/>
<g id="Group">
<path id="Vector_2" d="M10.5 29.3125C9.7825 29.3125 9.1875 28.7175 9.1875 28V14C9.1875 13.2825 9.7825 12.6875 10.5 12.6875C11.2175 12.6875 11.8125 13.2825 11.8125 14V28C11.8125 28.7175 11.2175 29.3125 10.5 29.3125Z" fill="#3366FF"/>
</g>
<g id="Group_2">
<path id="Vector_3" d="M15.75 22.3125C15.0325 22.3125 14.4375 21.7175 14.4375 21V14C14.4375 13.2825 15.0325 12.6875 15.75 12.6875C16.4675 12.6875 17.0625 13.2825 17.0625 14V21C17.0625 21.7175 16.4675 22.3125 15.75 22.3125Z" fill="#3366FF"/>
</g>
<g id="Group_3">
<path id="Vector_4" d="M15.75 29.3125C15.0325 29.3125 14.4375 28.7175 14.4375 28V26.25C14.4375 25.5325 15.0325 24.9375 15.75 24.9375C16.4675 24.9375 17.0625 25.5325 17.0625 26.25V28C17.0625 28.7175 16.4675 29.3125 15.75 29.3125Z" fill="#3366FF"/>
</g>
<g id="Group_4">
<path id="Vector_5" d="M26.25 17.0625C25.5325 17.0625 24.9375 16.4675 24.9375 15.75V14C24.9375 13.2825 25.5325 12.6875 26.25 12.6875C26.9675 12.6875 27.5625 13.2825 27.5625 14V15.75C27.5625 16.4675 26.9675 17.0625 26.25 17.0625Z" fill="#3366FF"/>
</g>
<g id="Group_5">
<path id="Vector_6" d="M21 29.3125C20.2825 29.3125 19.6875 28.7175 19.6875 28V14C19.6875 13.2825 20.2825 12.6875 21 12.6875C21.7175 12.6875 22.3125 13.2825 22.3125 14V28C22.3125 28.7175 21.7175 29.3125 21 29.3125Z" fill="#3366FF"/>
</g>
<g id="Group_6">
<path id="Vector_7" d="M26.25 29.3125C25.5325 29.3125 24.9375 28.7175 24.9375 28V21C24.9375 20.2825 25.5325 19.6875 26.25 19.6875C26.9675 19.6875 27.5625 20.2825 27.5625 21V28C27.5625 28.7175 26.9675 29.3125 26.25 29.3125Z" fill="#3366FF"/>
</g>
<g id="Group_7">
<path id="Vector_8" d="M31.5 29.3125C30.7825 29.3125 30.1875 28.7175 30.1875 28V14C30.1875 13.2825 30.7825 12.6875 31.5 12.6875C32.2175 12.6875 32.8125 13.2825 32.8125 14V28C32.8125 28.7175 32.2175 29.3125 31.5 29.3125Z" fill="#3366FF"/>
</g>
</g>
</g>
</svg>
