<svg width="42" height="42" viewBox="0 0 42 42" fill="none" xmlns="http://www.w3.org/2000/svg">
<g id="vuesax/bulk/buy-crypto">
<g id="buy-crypto">
<path id="Vector" d="M38.5 14.875C38.5 21.1575 33.4075 26.25 27.125 26.25C26.8275 26.25 26.5125 26.2325 26.215 26.215C25.7775 20.6675 21.3325 16.2225 15.785 15.785C15.7675 15.4875 15.75 15.1725 15.75 14.875C15.75 8.5925 20.8425 3.5 27.125 3.5C33.4075 3.5 38.5 8.5925 38.5 14.875Z" fill="#3366FF"/>
<path id="Vector_2" opacity="0.4" d="M26.25 27.125C26.25 33.4075 21.1575 38.5 14.875 38.5C8.5925 38.5 3.5 33.4075 3.5 27.125C3.5 20.8425 8.5925 15.75 14.875 15.75C15.1725 15.75 15.4875 15.7675 15.785 15.785C21.3325 16.2225 25.7775 20.6675 26.215 26.215C26.2325 26.5125 26.25 26.8275 26.25 27.125Z" fill="#3366FF"/>
<path id="Vector_3" d="M13.335 25.585L14.875 22.75L16.415 25.585L19.25 27.125L16.415 28.665L14.875 31.5L13.335 28.665L10.5 27.125L13.335 25.585Z" fill="#3366FF"/>
</g>
</g>
</svg>
