<svg width="42" height="42" viewBox="0 0 42 42" fill="none" xmlns="http://www.w3.org/2000/svg">
<g id="vuesax/bulk/cloud-connection">
<g id="cloud-connection">
<path id="Vector" opacity="0.4" d="M33.5998 25.865C32.0948 27.2475 30.0998 28.0175 28.0523 28H11.1473C4.02477 27.4925 4.00727 17.1501 11.1473 16.6426H11.2173C6.33478 3.06256 26.9673 -2.34498 29.3298 11.9C35.9273 12.74 38.6048 21.5075 33.5998 25.865Z" fill="#3366FF"/>
<g id="Group">
<path id="Vector_2" d="M32.8125 36.75C32.8125 37.4675 32.2175 38.0625 31.5 38.0625H24.5C24.4125 38.0625 24.3425 38.0625 24.255 38.0275C23.7475 39.3225 22.47 40.25 21 40.25C19.53 40.25 18.2525 39.3225 17.745 38.0275C17.6575 38.0625 17.5875 38.0625 17.5 38.0625H10.5C9.7825 38.0625 9.1875 37.4675 9.1875 36.75C9.1875 36.0325 9.7825 35.4375 10.5 35.4375H17.5C17.5875 35.4375 17.6575 35.4375 17.745 35.4725C18.095 34.5625 18.8125 33.845 19.7225 33.495C19.6875 33.4075 19.6875 33.3375 19.6875 33.25V28H22.3125V33.25C22.3125 33.3375 22.3125 33.4075 22.2775 33.495C23.1875 33.845 23.905 34.5625 24.255 35.4725C24.3425 35.4375 24.4125 35.4375 24.5 35.4375H31.5C32.2175 35.4375 32.8125 36.0325 32.8125 36.75Z" fill="#3366FF"/>
</g>
</g>
</g>
</svg>
