<svg width="42" height="42" viewBox="0 0 42 42" fill="none" xmlns="http://www.w3.org/2000/svg">
<g id="vuesax/bulk/card-pos">
<g id="card-pos">
<path id="Vector" d="M37.1875 38.5H4.8125C4.095 38.5 3.5 37.905 3.5 37.1875C3.5 36.47 4.095 35.875 4.8125 35.875H37.1875C37.905 35.875 38.5 36.47 38.5 37.1875C38.5 37.905 37.905 38.5 37.1875 38.5Z" fill="#2CD9C5"/>
<path id="Vector_2" opacity="0.4" d="M36.0325 23.975L23.38 36.6275C20.895 39.1125 16.8875 39.1125 14.42 36.645L6.35248 28.5775L27.9825 6.94751L36.05 15.015C38.5175 17.4825 38.5175 21.49 36.0325 23.975Z" fill="#2CD9C5"/>
<path id="Vector_3" d="M27.9825 6.9475L6.33499 28.5775L4.74249 26.985C2.27499 24.5175 2.27499 20.51 4.75999 18.025L17.4125 5.3725C19.8975 2.8875 23.905 2.8875 26.3725 5.355L27.9825 6.9475Z" fill="#2CD9C5"/>
<path id="Vector_4" d="M22.5575 30.8L20.195 33.1625C19.705 33.6525 18.9175 33.6525 18.4275 33.1625C17.9375 32.6725 17.9375 31.885 18.4275 31.395L20.79 29.0325C21.28 28.5425 22.0675 28.5425 22.5575 29.0325C23.0475 29.5225 23.0475 30.31 22.5575 30.8Z" fill="#2CD9C5"/>
<path id="Vector_5" d="M30.2225 23.135L25.515 27.8425C25.025 28.3325 24.2375 28.3325 23.7475 27.8425C23.2575 27.3525 23.2575 26.565 23.7475 26.075L28.455 21.3675C28.945 20.8775 29.7325 20.8775 30.2225 21.3675C30.695 21.8575 30.695 22.645 30.2225 23.135Z" fill="#2CD9C5"/>
</g>
</g>
</svg>
