<svg width="32" height="32" viewBox="0 0 33 33" fill="none" xmlns="http://www.w3.org/2000/svg">
<g id="icon/ic_done_all">
<path id="Path" d="M22.6194 8.45165C22.3348 8.22635 21.972 8.12406 21.6117 8.16751C21.2513 8.21095 20.9232 8.39654 20.7004 8.68301L11.1736 20.9317L6.50546 15.2429C6.20732 14.846 5.71678 14.643 5.22537 14.713C4.73397 14.783 4.31965 15.115 4.14421 15.5793C3.96876 16.0436 4.06002 16.5666 4.38234 16.9441L10.0576 23.9939C10.317 24.3137 10.7073 24.4989 11.1191 24.4975C11.557 24.517 11.9775 24.3245 12.2488 23.9803L22.9052 10.3706C23.1246 10.0793 23.2179 9.71203 23.1642 9.35126C23.1105 8.99049 22.9142 8.66639 22.6194 8.45165Z" fill="#2CD9C5"/>
<path id="Path_2" d="M29.4242 8.45165C29.1396 8.22635 28.7768 8.12406 28.4165 8.16751C28.0562 8.21095 27.7281 8.39654 27.5052 8.68301L17.9784 20.9317L17.1482 19.911L15.4334 22.1158L16.9305 23.9803C17.1899 24.3001 17.5802 24.4853 17.992 24.4839C18.4061 24.482 18.7968 24.2916 19.0536 23.9667L29.71 10.357C29.9251 10.0666 30.0159 9.70248 29.9623 9.34505C29.9087 8.98761 29.7151 8.66618 29.4242 8.45165Z" fill="#2CD9C5"/>
<path id="Path_3" d="M11.8541 17.7743L13.6097 15.5695L13.3375 15.2429C13.1204 14.9421 12.7899 14.743 12.4225 14.6916C12.0551 14.6402 11.6826 14.741 11.3913 14.9707C11.109 15.1976 10.9286 15.5276 10.8903 15.8878C10.852 16.2479 10.9588 16.6085 11.1872 16.8897L11.8541 17.7743Z" fill="#2CD9C5"/>
</g>
</svg>
