<svg width="42" height="42" viewBox="0 0 42 42" fill="none" xmlns="http://www.w3.org/2000/svg">
<g id="vuesax/bulk/empty-wallet-time">
<g id="empty-wallet-time">
<path id="Vector" d="M8.75 26.25C7.105 26.25 5.5825 26.8275 4.375 27.79C2.765 29.0675 1.75 31.045 1.75 33.25C1.75 37.1175 4.8825 40.25 8.75 40.25C10.5175 40.25 12.1275 39.585 13.37 38.5C14.8225 37.2225 15.75 35.35 15.75 33.25C15.75 29.3825 12.6175 26.25 8.75 26.25ZM10.5 33.6875C10.5 34.1425 10.255 34.58 9.87 34.8075L7.6825 36.12C7.4725 36.2425 7.245 36.3125 7 36.3125C6.5625 36.3125 6.125 36.085 5.88 35.6825C5.5125 35.0525 5.70499 34.2475 6.33499 33.88L7.89249 32.9525V31.0625C7.89249 30.345 8.48749 29.75 9.20499 29.75C9.92249 29.75 10.5175 30.345 10.5175 31.0625V33.6875H10.5Z" fill="#2CD9C5"/>
<path id="Vector_2" opacity="0.4" d="M34.09 22.6625H37.625V20.1425C37.625 16.52 34.6675 13.5625 31.045 13.5625H10.955C7.33249 13.5625 4.375 16.52 4.375 20.1425V27.79C5.5825 26.8275 7.105 26.25 8.75 26.25C12.6175 26.25 15.75 29.3825 15.75 33.25C15.75 34.5625 15.3825 35.805 14.735 36.855C14.3675 37.485 13.895 38.045 13.3525 38.5H31.045C34.6675 38.5 37.625 35.5425 37.625 31.92V29.8375H34.3C32.41 29.8375 30.6775 28.455 30.52 26.565C30.415 25.4625 30.835 24.43 31.57 23.7125C32.2175 23.0475 33.11 22.6625 34.09 22.6625Z" fill="#2CD9C5"/>
<path id="Vector_3" d="M25.9875 6.91247V13.5625H10.955C7.33249 13.5625 4.375 16.52 4.375 20.1425V13.72C4.375 11.6375 5.65249 9.78242 7.59499 9.04742L21.49 3.79742C23.66 2.99242 25.9875 4.58497 25.9875 6.91247Z" fill="#2CD9C5"/>
<path id="Vector_4" d="M39.48 24.4475V28.0526C39.48 29.0151 38.71 29.8025 37.73 29.8375H34.3C32.41 29.8375 30.6775 28.455 30.52 26.565C30.415 25.4625 30.835 24.43 31.57 23.7125C32.2175 23.0475 33.11 22.6625 34.09 22.6625H37.73C38.71 22.6975 39.48 23.485 39.48 24.4475Z" fill="#2CD9C5"/>
<g id="Group">
<path id="Vector_5" d="M24.5 22.3125H12.25C11.5325 22.3125 10.9375 21.7175 10.9375 21C10.9375 20.2825 11.5325 19.6875 12.25 19.6875H24.5C25.2175 19.6875 25.8125 20.2825 25.8125 21C25.8125 21.7175 25.2175 22.3125 24.5 22.3125Z" fill="#2CD9C5"/>
</g>
</g>
</g>
</svg>
