<svg width="42" height="42" viewBox="0 0 42 42" fill="none" xmlns="http://www.w3.org/2000/svg">
<g id="Frame 1261153234/vuesax/bulk/Property 33">
<g id="vuesax/bulk/save-2">
<g id="save-2">
<path id="Vector" opacity="0.4" d="M22.5575 10.29H8.94247C5.94997 10.29 3.5 12.74 3.5 15.7325V35.6125C3.5 38.15 5.32 39.235 7.5425 37.9925L14.42 34.16C15.155 33.7575 16.345 33.7575 17.0625 34.16L23.94 37.9925C26.1625 39.235 27.9825 38.15 27.9825 35.6125V15.7325C28 12.74 25.55 10.29 22.5575 10.29Z" fill="#2CD9C5"/>
<path id="Vector_2" d="M38.5 8.94247V28.8225C38.5 31.36 36.68 32.4275 34.4575 31.2025L28 27.5975V15.7325C28 12.74 25.55 10.29 22.5575 10.29H14V8.94247C14 5.94997 16.45 3.5 19.4425 3.5H33.0575C36.05 3.5 38.5 5.94997 38.5 8.94247Z" fill="#2CD9C5"/>
</g>
</g>
<path id="Vector_3" d="M18.6737 21.6522L17.2197 21.1345V17.9312H17.2682C17.979 17.9312 18.5767 18.5784 18.5767 19.3549C18.5767 20.0182 19.126 20.5682 19.7884 20.5682C20.4507 20.5682 21 20.0182 21 19.3549C21 17.2356 19.336 15.5045 17.2682 15.5045H17.2197V15.2133C17.2197 14.5501 16.6704 14 16.0081 14C15.3457 14 14.7965 14.5501 14.7965 15.2133V15.5045H14.4249C12.5509 15.5045 11.0162 17.09 11.0162 19.0152C11.0162 20.7139 11.7754 21.7978 13.3263 22.3478L14.7803 22.8655V26.0688H14.7318C14.021 26.0688 13.4233 25.4216 13.4233 24.6451C13.4233 23.9818 12.874 23.4317 12.2116 23.4317C11.5493 23.4317 11 23.9818 11 24.6451C11 26.7644 12.664 28.4955 14.7318 28.4955H14.7803V28.7867C14.7803 29.4499 15.3296 30 15.9919 30C16.6543 30 17.2035 29.4499 17.2035 28.7867V28.4955H17.5751C19.4491 28.4955 20.9838 26.91 20.9838 24.9848C20.9838 23.2861 20.2407 22.2022 18.6737 21.6522ZM14.1341 20.0667C13.6171 19.8888 13.4394 19.7917 13.4394 19.0313C13.4394 18.4328 13.8756 17.9474 14.4249 17.9474H14.7965V20.3094L14.1341 20.0667ZM17.5913 26.0849H17.2197V23.723L17.8821 23.9494C18.399 24.1274 18.5767 24.2245 18.5767 24.9848C18.5606 25.5834 18.1244 26.0849 17.5913 26.0849Z" fill="#2CD9C5"/>
</g>
</svg>
