<svg width="42" height="42" viewBox="0 0 42 42" fill="none" xmlns="http://www.w3.org/2000/svg">
<g id="vuesax/bulk/pause-circle">
<g id="pause-circle">
<path id="Vector" opacity="0.4" d="M20.9475 38.5C30.6125 38.5 38.4475 30.665 38.4475 21C38.4475 11.335 30.6125 3.5 20.9475 3.5C11.2825 3.5 3.44751 11.335 3.44751 21C3.44751 30.665 11.2825 38.5 20.9475 38.5Z" fill="#2CD9C5"/>
<path id="Vector_2" d="M18.76 26.3025V15.6975C18.76 14.8575 18.41 14.525 17.5175 14.525H15.2425C14.35 14.525 14 14.8575 14 15.6975V26.3025C14 27.1425 14.35 27.475 15.2425 27.475H17.5C18.41 27.475 18.76 27.1425 18.76 26.3025Z" fill="#2CD9C5"/>
<path id="Vector_3" d="M27.9999 26.3025V15.6975C27.9999 14.8575 27.6499 14.525 26.7574 14.525H24.4999C23.6074 14.525 23.2574 14.8575 23.2574 15.6975V26.3025C23.2574 27.1425 23.6074 27.475 24.4999 27.475H26.7574C27.6499 27.475 27.9999 27.1425 27.9999 26.3025Z" fill="#2CD9C5"/>
</g>
</g>
</svg>
