<svg width="43" height="42" viewBox="0 0 43 42" fill="none" xmlns="http://www.w3.org/2000/svg">
<g id="vuesax/bulk/people">
<g id="people">
<path id="Vector" opacity="0.4" d="M31.1773 13.5975C31.0548 13.58 30.9323 13.58 30.8098 13.5975C28.0973 13.51 25.9448 11.2875 25.9448 8.5575C25.9448 5.775 28.2023 3.5 31.0023 3.5C33.7848 3.5 36.0598 5.7575 36.0598 8.5575C36.0423 11.2875 33.8898 13.51 31.1773 13.5975Z" fill="#3366FF"/>
<path id="Vector_2" opacity="0.4" d="M36.8823 25.725C34.9223 27.0375 32.1748 27.5275 29.6373 27.195C30.3023 25.76 30.6523 24.1675 30.6698 22.4875C30.6698 20.7375 30.2848 19.075 29.5498 17.6225C32.1398 17.2725 34.8873 17.7625 36.8648 19.075C39.6298 20.895 39.6298 23.8875 36.8823 25.725Z" fill="#3366FF"/>
<path id="Vector_3" opacity="0.4" d="M11.7702 13.5975C11.8927 13.58 12.0152 13.58 12.1377 13.5975C14.8502 13.51 17.0027 11.2875 17.0027 8.5575C17.0027 5.775 14.7452 3.5 11.9452 3.5C9.16269 3.5 6.8877 5.7575 6.8877 8.5575C6.9052 11.2875 9.05769 13.51 11.7702 13.5975Z" fill="#3366FF"/>
<path id="Vector_4" opacity="0.4" d="M11.9625 22.4876C11.9625 24.1851 12.33 25.7951 12.995 27.2476C10.5275 27.5101 7.95496 26.9851 6.06496 25.7426C3.29996 23.9051 3.29996 20.9125 6.06496 19.075C7.93746 17.815 10.58 17.3076 13.065 17.5876C12.3475 19.0576 11.9625 20.7201 11.9625 22.4876Z" fill="#3366FF"/>
<path id="Vector_5" d="M21.7099 27.7725C21.5699 27.755 21.4124 27.755 21.2549 27.7725C18.0349 27.6675 15.4624 25.025 15.4624 21.77C15.4624 18.445 18.1399 15.75 21.4824 15.75C24.8074 15.75 27.5024 18.445 27.5024 21.77C27.5024 25.025 24.9474 27.6675 21.7099 27.7725Z" fill="#3366FF"/>
<path id="Vector_6" d="M16.0224 31.3951C13.3799 33.1626 13.3799 36.0676 16.0224 37.8176C19.0324 39.8301 23.9674 39.8301 26.9774 37.8176C29.6199 36.0501 29.6199 33.1451 26.9774 31.3951C23.9849 29.3826 19.0499 29.3826 16.0224 31.3951Z" fill="#3366FF"/>
</g>
</g>
</svg>
