<svg width="42" height="42" viewBox="0 0 42 42" fill="none" xmlns="http://www.w3.org/2000/svg">
<g id="vuesax/bulk/pause-circle">
<g id="vuesax/bulk/pause-circle_2">
<g id="pause-circle">
<path id="Vector" opacity="0.4" d="M20.9475 38.5C30.6125 38.5 38.4475 30.665 38.4475 21C38.4475 11.335 30.6125 3.5 20.9475 3.5C11.2825 3.5 3.44751 11.335 3.44751 21C3.44751 30.665 11.2825 38.5 20.9475 38.5Z" fill="#83CFFF"/>
<path id="Vector_2" d="M25.13 17.4737L20.055 14.5512C18.795 13.8163 17.2725 13.8163 16.0125 14.5512C14.7525 15.2862 14 16.5813 14 18.0512V23.9137C14 25.3662 14.7525 26.6787 16.0125 27.4137C16.6425 27.7812 17.3425 27.9562 18.025 27.9562C18.725 27.9562 19.4075 27.7812 20.0375 27.4137L25.1125 24.4912C26.3725 23.7562 27.125 22.4612 27.125 20.9912C27.16 19.5212 26.4075 18.2087 25.13 17.4737Z" fill="#83CFFF"/>
</g>
</g>
</g>
</svg>
