<svg width="42" height="42" viewBox="0 0 42 42" fill="none" xmlns="http://www.w3.org/2000/svg">
<g id="vuesax/bulk/profile-2user">
<g id="profile-2user">
<path id="Vector" opacity="0.4" d="M15.75 3.5C11.165 3.5 7.4375 7.2275 7.4375 11.8125C7.4375 16.31 10.955 19.95 15.54 20.1075C15.68 20.09 15.82 20.09 15.925 20.1075C15.96 20.1075 15.9775 20.1075 16.0125 20.1075C16.03 20.1075 16.03 20.1075 16.0475 20.1075C20.5275 19.95 24.045 16.31 24.0625 11.8125C24.0625 7.2275 20.335 3.5 15.75 3.5Z" fill="#2D99FF"/>
<path id="Vector_2" d="M24.6397 24.7625C19.7572 21.5075 11.7947 21.5075 6.87719 24.7625C4.65469 26.25 3.42969 28.2625 3.42969 30.415C3.42969 32.5675 4.65469 34.5625 6.85969 36.0325C9.30969 37.6775 12.5297 38.5 15.7497 38.5C18.9697 38.5 22.1897 37.6775 24.6397 36.0325C26.8447 34.545 28.0697 32.55 28.0697 30.38C28.0522 28.2275 26.8447 26.2325 24.6397 24.7625Z" fill="#2D99FF"/>
<path id="Vector_3" opacity="0.4" d="M34.9824 12.845C35.2624 16.24 32.8474 19.215 29.5049 19.6175C29.4874 19.6175 29.4874 19.6175 29.4699 19.6175H29.4174C29.3124 19.6175 29.2074 19.6175 29.1199 19.6525C27.4224 19.74 25.8649 19.1975 24.6924 18.2C26.4949 16.59 27.5274 14.175 27.3174 11.55C27.1949 10.1325 26.7049 8.83749 25.9699 7.73499C26.6349 7.40249 27.4049 7.19249 28.1924 7.12249C31.6224 6.82499 34.6849 9.37999 34.9824 12.845Z" fill="#2D99FF"/>
<path id="Vector_4" d="M38.4824 29.0325C38.3424 30.73 37.2574 32.2 35.4374 33.1975C33.6874 34.16 31.4824 34.615 29.2949 34.5625C30.5549 33.425 31.2899 32.0075 31.4299 30.5025C31.6049 28.3325 30.5724 26.25 28.5074 24.5875C27.3349 23.66 25.9699 22.925 24.4824 22.3825C28.3499 21.2625 33.2149 22.015 36.2074 24.43C37.8174 25.725 38.6399 27.3525 38.4824 29.0325Z" fill="#2D99FF"/>
</g>
</g>
</svg>
