<svg width="42" height="42" viewBox="0 0 42 42" fill="none" xmlns="http://www.w3.org/2000/svg">
<g id="vuesax/bulk/receipt-discount">
<g id="receipt-discount">
<path id="Vector" d="M38.5 10.5V14.735C38.5 17.5 36.75 19.25 33.985 19.25H28V7.01752C28 5.07502 29.5925 3.48252 31.535 3.50002C33.4425 3.51752 35.1925 4.28752 36.4525 5.54752C37.7125 6.82502 38.5 8.57502 38.5 10.5Z" fill="#2CD9C5"/>
<path id="Vector_2" opacity="0.4" d="M3.5 12.25V36.75C3.5 38.2025 5.145 39.025 6.3 38.15L9.2925 35.91C9.9925 35.385 10.9725 35.455 11.6025 36.085L14.5075 39.0075C15.19 39.69 16.31 39.69 16.9925 39.0075L19.9325 36.0675C20.545 35.455 21.525 35.385 22.2075 35.91L25.2 38.15C26.355 39.0075 28 38.185 28 36.75V7C28 5.075 29.575 3.5 31.5 3.5H12.25H10.5C5.25 3.5 3.5 6.6325 3.5 10.5V12.25Z" fill="#2CD9C5"/>
<g id="Group">
<path id="Vector_3" d="M20.0026 21.14C19.0401 21.14 18.2526 21.9275 18.2526 22.89C18.2526 23.8525 19.0401 24.64 20.0026 24.64C20.9651 24.64 21.7526 23.8525 21.7526 22.89C21.7526 21.9275 20.9651 21.14 20.0026 21.14Z" fill="#2CD9C5"/>
<path id="Vector_4" d="M11.4976 17.5525C12.4776 17.5525 13.2476 16.765 13.2476 15.8025C13.2476 14.84 12.4601 14.0525 11.4976 14.0525C10.5351 14.0525 9.74756 14.84 9.74756 15.8025C9.74756 16.765 10.5351 17.5525 11.4976 17.5525Z" fill="#2CD9C5"/>
<path id="Vector_5" d="M21.455 13.545C20.9475 13.0375 20.1076 13.0375 19.6001 13.545L10.0451 23.1C9.53755 23.6075 9.53755 24.4475 10.0451 24.955C10.3076 25.2175 10.6401 25.34 10.9726 25.34C11.3051 25.34 11.6375 25.2175 11.9 24.955L21.455 15.4C21.9625 14.8925 21.9625 14.0525 21.455 13.545Z" fill="#2CD9C5"/>
</g>
</g>
</g>
</svg>
