<svg width="42" height="42" viewBox="0 0 42 42" fill="none" xmlns="http://www.w3.org/2000/svg">
<g id="vuesax/bulk/calendar-2">
<g id="calendar-2">
<g id="Group">
<path id="Vector" d="M29.3125 6.23V3.5C29.3125 2.7825 28.7175 2.1875 28 2.1875C27.2825 2.1875 26.6875 2.7825 26.6875 3.5V6.125H15.3125V3.5C15.3125 2.7825 14.7175 2.1875 14 2.1875C13.2825 2.1875 12.6875 2.7825 12.6875 3.5V6.23C7.96252 6.6675 5.67003 9.485 5.32003 13.6675C5.28503 14.175 5.70503 14.595 6.19503 14.595H35.805C36.3125 14.595 36.7325 14.1575 36.68 13.6675C36.33 9.485 34.0375 6.6675 29.3125 6.23Z" fill="#2CD9C5"/>
<path id="Vector_2" opacity="0.4" d="M35 17.22C35.9625 17.22 36.75 18.0075 36.75 18.97V29.75C36.75 35 34.125 38.5 28 38.5H14C7.875 38.5 5.25 35 5.25 29.75V18.97C5.25 18.0075 6.0375 17.22 7 17.22H35Z" fill="#2CD9C5"/>
</g>
<g id="Group_2">
<path id="Vector_3" d="M14.875 26.25C14.6475 26.25 14.42 26.1975 14.21 26.11C14 26.0225 13.8075 25.9 13.6325 25.7425C13.475 25.5675 13.3525 25.375 13.265 25.165C13.1775 24.955 13.125 24.7275 13.125 24.5C13.125 24.2725 13.1775 24.045 13.265 23.835C13.3525 23.625 13.475 23.4325 13.6325 23.2575C13.8075 23.1 14 22.9774 14.21 22.8899C14.63 22.7149 15.12 22.7149 15.54 22.8899C15.75 22.9774 15.9425 23.1 16.1175 23.2575C16.275 23.4325 16.3975 23.625 16.485 23.835C16.5725 24.045 16.625 24.2725 16.625 24.5C16.625 24.7275 16.5725 24.955 16.485 25.165C16.3975 25.375 16.275 25.5675 16.1175 25.7425C15.9425 25.9 15.75 26.0225 15.54 26.11C15.33 26.1975 15.1025 26.25 14.875 26.25Z" fill="#2CD9C5"/>
</g>
<g id="Group_3">
<path id="Vector_4" d="M21 26.25C20.7725 26.25 20.545 26.1975 20.335 26.11C20.125 26.0225 19.9325 25.9 19.7575 25.7425C19.4425 25.41 19.25 24.955 19.25 24.5C19.25 24.045 19.4425 23.59 19.7575 23.2575C19.9325 23.1 20.125 22.9775 20.335 22.89C20.755 22.6975 21.245 22.6975 21.665 22.89C21.875 22.9775 22.0675 23.1 22.2425 23.2575C22.5575 23.59 22.75 24.045 22.75 24.5C22.75 24.955 22.5575 25.41 22.2425 25.7425C22.0675 25.9 21.875 26.0225 21.665 26.11C21.455 26.1975 21.2275 26.25 21 26.25Z" fill="#2CD9C5"/>
</g>
<g id="Group_4">
<path id="Vector_5" d="M14.875 32.375C14.6475 32.375 14.42 32.3225 14.21 32.235C14 32.1475 13.8075 32.025 13.6325 31.8675C13.3175 31.535 13.125 31.08 13.125 30.625C13.125 30.17 13.3175 29.715 13.6325 29.3825C13.8075 29.225 14 29.1024 14.21 29.0149C14.63 28.8399 15.12 28.8399 15.54 29.0149C15.75 29.1024 15.9425 29.225 16.1175 29.3825C16.4325 29.715 16.625 30.17 16.625 30.625C16.625 31.08 16.4325 31.535 16.1175 31.8675C15.9425 32.025 15.75 32.1475 15.54 32.235C15.33 32.3225 15.1025 32.375 14.875 32.375Z" fill="#2CD9C5"/>
</g>
</g>
</g>
</svg>
