<svg width="42" height="42" viewBox="0 0 42 42" fill="none" xmlns="http://www.w3.org/2000/svg">
<g id="&#226;&#154;&#161;icon4">
<path id="Combined Shape" opacity="0.48" fill-rule="evenodd" clip-rule="evenodd" d="M25.4901 6.39162C25.4901 4.80023 26.7914 3.5 28.3828 3.5C29.9742 3.5 31.2801 4.80023 31.2801 6.39162C31.2801 7.98303 29.9742 9.28437 28.3828 9.28437C26.7914 9.28437 25.4901 7.98303 25.4901 6.39162ZM14.1621 10.4464C14.9197 7.77703 17.3741 5.81284 20.2822 5.81284C23.1904 5.81284 25.6447 7.77703 26.4023 10.4464H14.1621Z" fill="#1890FF"/>
<path id="Combined Shape_2" fill-rule="evenodd" clip-rule="evenodd" d="M5.2352 8.13135C4.70456 8.13135 4.23539 8.34997 3.93634 8.68639C3.6373 9.02282 3.5 9.44734 3.5 9.86542C3.5 10.2835 3.6373 10.708 3.93634 11.0444C4.23539 11.3809 4.70456 11.6006 5.2352 11.6006H8.43542L11.6345 28.7197C11.7873 29.5367 12.5118 30.1214 13.3358 30.1214H31.8566C32.6509 30.1214 33.363 29.579 33.5444 28.7932L37.0181 13.745C37.2663 12.6698 36.443 11.604 35.3304 11.604H11.9816L11.5667 9.52855C11.4059 8.72154 10.6894 8.13356 9.86654 8.13135H5.2352ZM16.8085 31.279C15.2171 31.279 13.9168 32.5804 13.9168 34.1717C13.9168 35.7632 15.2171 37.0679 16.8085 37.0679C18.3999 37.0679 19.7012 35.7632 19.7012 34.1717C19.7012 32.5804 18.3998 31.279 16.8085 31.279ZM25.4901 34.1717C25.4901 32.5804 26.7915 31.279 28.3828 31.279C29.9742 31.279 31.2801 32.5804 31.2801 34.1717C31.2801 35.7632 29.9742 37.0679 28.3828 37.0679C26.7915 37.0679 25.4901 35.7632 25.4901 34.1717Z" fill="#1890FF"/>
</g>
</svg>
