<svg width="43" height="42" viewBox="0 0 43 42" fill="none" xmlns="http://www.w3.org/2000/svg">
<g id="vuesax/bulk/star">
<g id="star">
<path id="Vector" opacity="0.4" d="M10.545 28C10.7375 27.1425 10.3875 25.9175 9.775 25.305L5.5225 21.0525C4.1925 19.7225 3.6675 18.305 4.0525 17.08C4.455 15.855 5.6975 15.015 7.5525 14.7L13.0125 13.79C13.8 13.65 14.7625 12.95 15.13 12.2325L18.14 6.195C19.015 4.4625 20.205 3.5 21.5 3.5C22.795 3.5 23.985 4.4625 24.86 6.195L27.87 12.2325C28.0975 12.6875 28.57 13.125 29.0775 13.4225L10.23 32.27C9.985 32.515 9.565 32.2875 9.635 31.9375L10.545 28Z" fill="#2CD9C5"/>
<path id="Vector_2" d="M33.225 25.305C32.595 25.935 32.245 27.1425 32.455 28L33.6625 33.2675C34.17 35.455 33.855 37.1 32.77 37.8875C32.3325 38.2025 31.8075 38.36 31.195 38.36C30.3025 38.36 29.2525 38.0275 28.0975 37.345L22.97 34.3C22.165 33.8275 20.835 33.8275 20.03 34.3L14.9025 37.345C12.96 38.4825 11.2975 38.675 10.23 37.8875C9.82752 37.59 9.53002 37.1875 9.33752 36.6625L30.6175 15.3825C31.4225 14.5775 32.56 14.21 33.6625 14.4025L35.43 14.7C37.285 15.015 38.5275 15.855 38.93 17.08C39.315 18.305 38.79 19.7225 37.46 21.0525L33.225 25.305Z" fill="#2CD9C5"/>
</g>
</g>
</svg>
